<?xml version="1.0" encoding="utf-8"?>
<!-- Generator: Adobe Illustrator 19.0.0, SVG Export Plug-In . SVG Version: 6.00 Build 0)  -->
<svg version="1.1" id="fullControl" xmlns="http://www.w3.org/2000/svg" xmlns:xlink="http://www.w3.org/1999/xlink" x="0px" y="0px"
	 viewBox="3 43 506 416" style="enable-background:new 3 43 506 416;" xml:space="preserve">
<style type="text/css">
	.st0{fill:none;stroke:#000000;stroke-width:3;stroke-miterlimit:10;}
	.st1{stroke:#000000;stroke-width:2;stroke-miterlimit:10;}
</style>
<circle id="arc" class="st0" cx="259.9" cy="250.2" r="181.5"/>
<g id="controller">
	<g id="outline1">
		<g id="XMLID_69_">
			<path id="XMLID_73_" class="st1" d="M261.7,345.5c19.8-9.1,39.6-18.2,59.4-27.2c4.3-2.1,10.9-3.3,12.9-7.9
				c4.7-10.7,8.2-21.8,12.1-32.6c2.3-6.1,4.7-12.2,6.8-18.4c0.9-2.7,3.3-6.4,3.5-9.2c0.1-2-0.9-3.6-1.7-5.5
				c-2.1-5.2-3.9-10.6-6-15.6c-4.6-12-9.1-24-13.7-36c-0.7-2-1.2-4.8-2.7-6.1c-1.6-1.3-4.7-2.1-6.4-2.9c-11.7-5.3-23.3-10.6-35-15.8
				c-9.1-4-18.6-9.8-28.1-12.6c-4.6-1.3-10.2,3-14.5,4.8c-12.5,5.6-24.9,11.2-37.5,16.8c-5.2,2.3-10.3,4.7-15.4,6.9
				c-1.8,0.8-4.8,1.6-6.1,2.9c-1.3,1.6-2.1,4.8-2.7,6.5c-2.2,5.5-4.2,11.1-6.4,16.5c-4.6,11.7-9,23.6-13.7,35.3
				c-0.7,1.8-1.8,3.5-1.7,5.5c0.1,2.9,2.5,6.5,3.5,9.1c4.8,12.5,9.6,25,14.5,37.6c1.8,4.7,3.3,13.7,7.3,16.8
				c2.7,2.1,6.9,3.1,9.9,4.7c5.9,2.7,11.7,5.3,17.6,8.1c11.7,5.3,23.6,10.8,35.3,16c2.2,0.9,4.3,2.1,6.5,3c2.1,0.9,3.6-2.1,1.8-3
				c-18.9-8.7-38-17.3-56.9-26.1c-3.6-1.7-7.6-4-11.3-5.2c-0.5-0.1-1.2-0.4-1.8-0.8c1.6,1,0.4,0.5,0-0.9
				c-3.4-10.7-8.2-21.1-12.1-31.7c-2.2-5.9-4.6-11.6-6.6-17.5c-1.2-3.3-3.3-6.9-4-10.6c-0.3-1.7-0.3,1,0-0.3
				c0.3-1.2,0.9-2.6,1.6-3.8c2-4.8,3.6-9.5,5.6-14.3c4.7-11.9,9.1-23.8,13.8-35.7c0.8-2.2,1.6-5.6,2.9-7.3c-1.3,2-0.1,0.5,0.8,0.3
				c1.6-0.4,3.1-1.3,4.7-2.1c11.2-5.1,22.1-9.9,33.3-15c9.4-4.2,20.3-7.7,29.2-13c0.5-0.4,2.7-0.8,0.9-0.8s0.3,0.4,0.8,0.8
				c3.4,2.1,7.7,3.4,11.2,5.1c12.1,5.5,24.1,10.9,36.2,16.3c6.6,3,15.4,5.5,21.5,9.6c-1.3-0.9-0.5-0.8,0,0.8
				c0.5,1.8,1.3,3.5,2.1,5.3c2.1,5.3,4,10.7,6.1,16c4.3,11.3,8.6,22.7,12.9,34c0.4,1,1,2.3,1.3,3.5s0.3-1.2-0.1,0.4
				c-0.8,3.5-2.7,7.2-3.9,10.7c-4.7,12.4-9.2,24.8-13.9,37c-1.6,3.9-3.4,7.9-4.6,11.9c-0.4,1.6-1.2,1.7,0.1,0.7
				c-0.7,0.4-1.7,0.8-2.3,1c-9.9,3.8-19.7,9-29.3,13.5c-11.2,5.2-22.4,10.2-33.5,15.4c-2,0.8-3.8,1.8-5.7,2.6
				C258,343.5,259.7,346.5,261.7,345.5z"/>
		</g>
	</g>
	<g id="outline2">
		<g id="XMLID_63_">
			<path id="XMLID_67_" class="st1" d="M261.8,311.9c-12.8-5.7-25.8-11.5-38.6-17.2c-2.3-1-5-2.6-7.3-3.3c-2.1-0.5-0.5,1-1.2-1.2
				c-2.1-7-5.5-14.1-8.1-20.8c-2.3-6.1-6-12.8-7.3-19.1c-0.3-1.3-0.3,0.1-0.3,0c0.1-0.7,0.5-1.6,0.8-2.1c1.6-3.3,2.6-6.8,3.8-10
				c3-8.1,6.1-16.2,9.1-24.2c0.5-1.6,0.9-3.8,2-5.2c-1.7,2.2,2.7-0.5,3.6-1c7.7-3.4,15.4-6.9,23.1-10.3c5.7-2.6,13.9-4.7,18.9-8.6
				c1.7-1.2-0.7-1,0.5-0.1c2.1,1.7,5.6,2.5,7.9,3.5c8.3,3.6,16.5,7.3,24.8,11.1c3.3,1.6,6.5,3,9.8,4.3c1,0.5,5.3,3.1,3.8,1
				c0.9,1.2,1.3,3.6,2,5.2c1.6,3.9,3.1,8.1,4.7,12c2.9,7.3,5.5,14.9,8.5,22c0.3,0.7,0.8,1.6,0.8,2.2c0.1,0.8,0.1-1.3-0.1,0
				c-0.4,2.5-2,5.1-2.9,7.3c-3.4,9.1-6.9,18.1-10.3,27.2c-0.7,1.8-1.2,5-2.5,6.5c1.3-1.8,0.3-0.5-0.7-0.3c-1.2,0.4-2.6,1.2-3.8,1.8
				c-14.3,6.5-28.5,13-42.7,19.7c-2.1,0.9-0.3,3.8,1.8,3c13.8-6.3,27.4-12.5,41.2-18.8c3.3-1.6,6.4-2.1,8.1-5.3
				c3.5-6.9,5.7-15,8.5-22.1c1.6-3.9,3-7.9,4.6-11.9c0.7-2,2.3-4.6,2.5-6.5c0.3-4.3-3.6-10.6-5.2-14.5c-3.1-8.2-6.4-16.5-9.5-24.6
				c-1.6-4-2.1-4.6-6-6.3c-8.2-3.6-16.3-7.3-24.5-11.1c-3.9-1.8-7.8-3.5-11.7-5.3c-2.3-0.9-5.2-3-7.7-3.4c-3.3-0.7-6.9,2.1-9.9,3.4
				c-8.5,3.8-17.1,7.7-25.5,11.5c-3.4,1.6-6.6,3-10,4.6c-1.2,0.5-3.4,1-4.6,2.2c-0.9,0.9-1.3,3.1-1.8,4.3c-1.3,3.6-2.9,7.6-4.2,11.2
				c-3,8.1-6.1,16.2-9.1,24.2c-1.6,4-0.4,5.6,1.2,9.6c3.6,9.5,7.3,19,11.1,28.8c1.7,4.3,2.1,8.1,6.3,9.9c14.9,6.9,30,13.3,44.9,20.1
				C262,315.8,263.7,312.8,261.8,311.9z"/>
		</g>
	</g>
</g>
<circle class="svcirc" cx="260.5" cy="68.7" r="16.4"/>
<circle class="svcirc" cx="260.5" cy="431.7" r="16.4"/>
<circle class="svcirc" cx="78.4" cy="251" r="16.4"/>
<circle class="svcirc" cx="441.3" cy="249.8" r="16.4"/>
<circle class="svcirc" cx="127.5" cy="125.5" r="16.4"/>
<circle class="svcirc" cx="127.5" cy="373.7" r="16.4"/>
<circle class="svcirc" cx="392.1" cy="125.5" r="16.4"/>
<circle class="svcirc" cx="392.1" cy="373.7" r="16.4"/>
</svg>
