<?xml version="1.0" encoding="utf-8"?>
<!-- Generator: Adobe Illustrator 19.0.0, SVG Export Plug-In . SVG Version: 6.00 Build 0)  -->
<svg version="1.1" id="security" xmlns="http://www.w3.org/2000/svg" xmlns:xlink="http://www.w3.org/1999/xlink" x="0px" y="0px"
	 viewBox="3 43 506 416" style="enable-background:new 3 43 506 416;" xml:space="preserve">
<style type="text/css">
	.st0{stroke:#000000;stroke-width:2;stroke-miterlimit:10;}
	.st1{fill:none;stroke:#000000;stroke-width:3;stroke-miterlimit:10;}
</style>
<g id="securityBlock">
	<g id="coinInline">
		<path id="XMLID_37_" class="st0" d="M258.3,447.7c40.9-18.8,81.8-37.7,122.7-56.3c8.9-4.3,22.6-6.7,26.6-16.4
			c9.7-22.1,17-45,25-67.3c4.8-12.7,9.7-25.3,14-38c1.9-5.7,6.7-13.2,7.3-19.1c0.3-4-1.9-7.5-3.5-11.3c-4.3-10.8-8.1-21.8-12.4-32.3
			c-9.4-24.8-18.8-49.5-28.3-74.3c-1.3-4-2.4-10-5.7-12.7c-3.2-2.7-9.7-4.3-13.2-5.9c-24.2-11-48.2-21.8-72.4-32.6
			c-18.8-8.3-38.5-20.2-58.1-26.1c-9.4-2.7-21,6.2-29.9,10C204.7,77,179.1,88.6,153,100.2c-10.8,4.8-21.3,9.7-31.8,14.3
			c-3.8,1.6-10,3.2-12.7,5.9c-2.7,3.2-4.3,10-5.7,13.5c-4.6,11.3-8.6,22.9-13.2,34.2c-9.4,24.2-18.6,48.7-28.3,72.9
			c-1.3,3.8-3.8,7.3-3.5,11.3c0.3,5.9,5.1,13.5,7.3,18.8c10,25.8,19.9,51.7,29.9,77.8c3.8,9.7,6.7,28.3,15.1,34.7
			c5.7,4.3,14.3,6.5,20.5,9.7c12.1,5.7,24.2,11,36.3,16.7c24.2,11,48.7,22.3,72.9,33.1c4.6,1.9,8.9,4.3,13.5,6.2
			c4.3,1.9,7.5-4.3,3.8-6.2c-39-18-78.6-35.8-117.6-53.8c-7.5-3.5-15.6-8.3-23.4-10.8c-1.1-0.3-2.4-0.8-3.8-1.6
			c3.2,2.2,0.8,1.1,0-1.9c-7-22.1-17-43.6-25-65.4c-4.6-12.1-9.4-24-13.7-36.1c-2.4-6.7-6.7-14.3-8.3-21.8c-0.5-3.5-0.5,2.2,0-0.5
			c0.5-2.4,1.9-5.4,3.2-7.8c4-10,7.5-19.7,11.6-29.6c9.7-24.5,18.8-49.3,28.5-73.8c1.6-4.6,3.2-11.6,5.9-15.1
			c-2.7,4-0.3,1.1,1.6,0.5c3.2-0.8,6.5-2.7,9.7-4.3c23.1-10.5,45.8-20.5,68.9-31c19.4-8.6,42-15.9,60.3-26.9
			c1.1-0.8,5.7-1.6,1.9-1.6s0.5,0.8,1.6,1.6c7,4.3,15.9,7,23.1,10.5c25,11.3,49.8,22.6,74.8,33.6c13.7,6.2,31.8,11.3,44.4,19.9
			c-2.7-1.9-1.1-1.6,0,1.6c1.1,3.8,2.7,7.3,4.3,11c4.3,11,8.3,22.1,12.7,33.1c8.9,23.4,17.8,46.8,26.6,70.3c0.8,2.2,2.2,4.8,2.7,7.3
			c0.5,2.4,0.5-2.4-0.3,0.8c-1.6,7.3-5.7,14.8-8.1,22.1c-9.7,25.6-19.1,51.1-28.8,76.4c-3.2,8.1-7,16.4-9.4,24.5
			c-0.8,3.2-2.4,3.5,0.3,1.3c-1.3,0.8-3.5,1.6-4.8,2.2c-20.5,7.8-40.6,18.6-60.6,28c-23.1,10.8-46.3,21-69.2,31.8
			c-4,1.6-7.8,3.8-11.8,5.4C250.5,443.4,254.2,449.6,258.3,447.7z"/>
	</g>
	<g id="coinoutlineInside">
		<path id="XMLID_31_" class="st0" d="M258.6,378.3c-26.4-11.8-53.3-23.7-79.7-35.5c-4.8-2.2-10.2-5.4-15.1-6.7
			c-4.3-1.1-1.1,2.2-2.4-2.4c-4.3-14.5-11.3-29.1-16.7-43.1c-4.8-12.7-12.4-26.4-15.1-39.6c-0.5-2.7-0.5,0.3-0.5,0
			c0.3-1.3,1.1-3.2,1.6-4.3c3.2-6.7,5.4-14,7.8-20.7c6.2-16.7,12.7-33.4,18.8-50.1c1.1-3.2,1.9-7.8,4-10.8c-3.5,4.6,5.7-1.1,7.5-2.2
			c15.9-7,31.8-14.3,47.6-21.3c11.8-5.4,28.8-9.7,39-17.8c3.5-2.4-1.3-2.2,1.1-0.3c4.3,3.5,11.6,5.1,16.4,7.3
			c17.2,7.5,34.2,15.1,51.1,22.9c6.7,3.2,13.5,6.2,20.2,8.9c2.2,1.1,11,6.5,7.8,2.2c1.9,2.4,2.7,7.5,4,10.8
			c3.2,8.1,6.5,16.7,9.7,24.8c5.9,15.1,11.3,30.7,17.5,45.5c0.5,1.3,1.6,3.2,1.6,4.6c0.3,1.6,0.3-2.7-0.3,0
			c-0.8,5.1-4,10.5-5.9,15.1c-7,18.8-14.3,37.4-21.3,56.3c-1.3,3.8-2.4,10.2-5.1,13.5c2.7-3.8,0.5-1.1-1.3-0.5
			c-2.4,0.8-5.4,2.4-7.8,3.8c-29.6,13.5-59,26.9-88.3,40.6c-4.3,1.9-0.5,7.8,3.8,6.2c28.5-12.9,56.5-25.8,85.1-38.8
			c6.7-3.2,13.2-4.3,16.7-11c7.3-14.3,11.8-31,17.5-45.8c3.2-8.1,6.2-16.4,9.4-24.5c1.3-4,4.8-9.4,5.1-13.5
			c0.5-8.9-7.5-21.8-10.8-29.9c-6.5-17-13.2-34.2-19.7-50.9c-3.2-8.3-4.3-9.4-12.4-12.9c-17-7.5-33.6-15.1-50.6-22.9
			c-8.1-3.8-16.2-7.3-24.2-11c-4.8-1.9-10.8-6.2-15.9-7c-6.7-1.3-14.3,4.3-20.5,7c-18.6,7.5-36.1,15.6-53.6,23.4
			c-7,3.2-13.7,6.2-20.7,9.4c-2.4,1.1-7,2.2-9.4,4.6c-1.9,1.9-2.7,6.5-3.8,8.9c-2.7,7.5-5.9,15.6-8.6,23.1
			c-6.2,16.7-12.7,33.4-18.8,50.1c-3.2,8.3-0.8,11.6,2.4,19.9c7.5,19.7,15.1,39.3,22.9,59.5c3.5,8.9,4.3,16.7,12.9,20.5
			c30.7,14.3,61.9,27.5,92.9,41.5C259.1,386.3,262.6,380.1,258.6,378.3z"/>
	</g>
</g>
<path id="lock" class="st1" d="M301.7,231.7h-5.2v-22.1c0-13.1-10.6-23.7-23.7-23.7h-33.7c-13.1,0-23.7,10.6-23.7,23.7v22.1h-5.2
	c-6.9,0-12.5,5.6-12.5,12.5v62.1c0,6.9,5.6,12.5,12.5,12.5h91.5c6.9,0,12.5-5.6,12.5-12.5v-62.1
	C314.2,237.3,308.6,231.7,301.7,231.7z M265.2,280.7v13c0,5.1-4.1,9.2-9.2,9.2c-5.1,0-9.2-4.1-9.2-9.2v-13
	c-3.7-2.8-6.1-7.2-6.1-12.2c0-8.4,6.8-15.3,15.3-15.3c8.4,0,15.3,6.8,15.3,15.3C271.3,273.5,268.9,277.9,265.2,280.7z M278.3,231.7
	h-44.5v-22.1c0-3,2.4-5.4,5.4-5.4h33.7c3,0,5.4,2.4,5.4,5.4V231.7L278.3,231.7z"/>
</svg>
