

<svg version="1.1" xmlns="http://www.w3.org/2000/svg" xmlns:xlink="http://www.w3.org/1999/xlink" x="0px" y="0px"
	 viewBox="0 0 500 500" style="enable-background:new 0 0 500 500;" xml:space="preserve">
<g id="Layer_1">
	<g id="XMLID_7_">
		<g id="XMLID_21_">
			<path id="XMLID_25_" d="M38.1,389.7c12.1-19.2,24.2-38.3,36.4-57.5c19.4-30.7,38.8-61.4,58.2-92.1c4.4-7,8.9-14,13.3-21
				c-1.3,0.2-2.6,0.3-3.9,0.5c31.3,32.8,62.7,65.7,94,98.5c4.4,4.6,8.9,9.3,13.3,13.9c1.2,1.3,3,0.8,3.9-0.5
				c19.3-27.1,38.6-54.2,58-81.4c30.5-42.9,61.1-85.8,91.6-128.6c7-9.8,14-19.7,21-29.5c1.9-2.6-2.5-5.1-4.3-2.5
				c-19.3,27.1-38.6,54.2-58,81.4c-30.5,42.9-61.1,85.8-91.6,128.6c-7,9.8-14,19.7-21,29.5c1.3-0.2,2.6-0.3,3.9-0.5
				c-31.3-32.8-62.7-65.7-94-98.5c-4.4-4.6-8.9-9.3-13.3-13.9c-1.1-1.2-3.1-0.8-3.9,0.5c-12.1,19.2-24.2,38.3-36.4,57.5
				c-19.4,30.7-38.8,61.4-58.2,92.1c-4.4,7-8.9,14-13.3,21C32.1,389.9,36.4,392.4,38.1,389.7L38.1,389.7z"/>
		</g>
	</g>
</g>
<g id="Layer_2">
	<circle id="XMLID_6_" cx="35.9" cy="389" r="6.2"/>
	<circle id="XMLID_9_" cx="143.8" cy="218.3" r="6.2"/>
	<circle id="XMLID_10_" cx="251.2" cy="330.2" r="6.2"/>
	<polygon id="XMLID_8_" points="407.6,82.5 436,69.3 433.3,100.5 	"/>
</g>
</svg>

