<?xml version="1.0" encoding="utf-8"?>
<!-- Generator: Adobe Illustrator 19.0.0, SVG Export Plug-In . SVG Version: 6.00 Build 0)  -->
<svg version="1.1" id="blockchainsvg" xmlns="http://www.w3.org/2000/svg" xmlns:xlink="http://www.w3.org/1999/xlink" x="0px"
	 y="0px" viewBox="0 0 518.4 320.6" style="enable-background:new 0 0 518.4 320.6;" xml:space="preserve">
<style type="text/css">
	#blockchainsvg {
		overflow: visible;
	}
	#newblcks path,polygon {
		stroke: white !important;
	}
	#stacked path,line,polygon {
		stroke: white;
	}
</style>
<g id="stacked">
	<g id="XMLID_1_">
		<path id="XMLID_134_" class="st0" d="M0.5,191.7c0-2.9,0-5.8,0-8.6c0.5,0.1,0.9-0.3,1.2-0.6c19.3-12.1,38.6-24.2,57.9-36.3
			c0.8-0.5,1.6-0.7,2.6-0.6c2.3,0.3,4.7,0.4,7,0.8c0.8,0.1,0.9-0.2,0.9-0.9c0-2,0.1-4.1-0.1-6.1c-0.1-1.1,0.3-1.6,1.2-2.2
			c19.5-12.2,39-24.3,58.4-36.5c0.5-0.3,1-0.4,1.6-0.4c2.4,0.3,4.8,0.5,7.3,0.8c0.7,0.1,0.9-0.2,0.8-0.8c-0.1-2.3-0.1-4.6-0.1-6.9
			c0-0.8,0.3-1.2,0.9-1.6c19.4-12.1,38.8-24.3,58.2-36.4c0.3-0.2,0.7-0.3,0.9-0.7c0.6,0,1.3,0,1.9,0c0.6,0.4,1.4,0.3,2.1,0.3
			c8,0.9,16,1.7,24.1,2.5c7.2,0.8,14.5,1.5,21.7,2.3c8,0.8,16,1.7,24.1,2.5c6.3,0.7,12.6,1.3,19,2c0.6,0.1,0.9,0.3,0.9,1
			c0,1.6,0.1,3.3,0.1,4.9c0,2.5,0,5.1,0,7.8c0.6-0.4,1-0.6,1.3-0.8c5.2-3.3,10.4-6.5,15.6-9.8c0.7-0.4,1.3-0.6,2.1-0.5
			c6.4,0.7,12.7,1.3,19.1,2c8,0.8,16,1.7,24,2.5c8,0.8,16,1.7,24,2.5c8.1,0.8,16.1,1.7,24.2,2.5c0.9,0.1,1.1,0.4,1.1,1.2
			c0,5.4,0.1,10.7,0.2,16.1c0,0.3-0.2,0.8,0.2,1c0.3,0.1,0.6-0.3,0.9-0.4c5.6-3.5,11.1-6.9,16.6-10.4c0.6-0.4,1.1-0.5,1.8-0.4
			c8.3,0.9,16.7,1.8,25,2.7c11.8,1.2,23.6,2.4,35.4,3.7c10.4,1.1,20.7,2.2,31.1,3.3c0.8,0.1,1,0.3,1,1.1c0.1,9.5,0.2,18.9,0.4,28.4
			c0.1,7,0.2,14,0.3,21c0.1,10.7,0.3,21.5,0.4,32.2c0,3.2,0.1,6.3,0.2,9.5c0,2.1,0,4.2-0.1,6.2c-0.4,0.3-0.9,0.5-1.3,0.8
			c-19.3,12.1-38.7,24.2-58,36.3c-0.6,0.4-1.2,0.5-1.9,0.4c-2.3-0.3-4.7-0.5-7-0.8c-0.7-0.1-0.9,0-0.9,0.8c0.1,2.3,0,4.6,0.1,7
			c0,0.8-0.3,1.3-1,1.7c-19.5,12.2-39,24.4-58.5,36.6c-0.6,0.4-1.2,0.5-1.9,0.4c-2.1-0.3-4.3-0.4-6.4-0.7c-0.9-0.1-1,0.2-1,0.9
			c0.1,2,0,4.1,0.2,6.1c0.1,0.9-0.3,1.4-1.1,1.9c-19.5,12.1-38.9,24.3-58.3,36.5c-0.3,0.2-0.8,0.2-0.9,0.7c-0.2,0-0.3,0-0.5,0
			c-0.1-0.2-0.2-0.2-0.4-0.2c-5.3-0.6-10.6-1.1-16-1.7c-12.6-1.3-25.1-2.6-37.7-3.9c-12.7-1.3-25.3-2.7-38-4c-0.8-0.1-0.9-0.3-0.9-1
			c0-4.3-0.1-8.6-0.2-12.9c0-2.5,0-5.1,0-7.7c-0.8,0-1.1,0.4-1.5,0.7c-6.3,3.9-12.5,7.8-18.8,11.8c-0.7,0.4-1.3,0.6-2.1,0.5
			c-7.1-0.8-14.3-1.5-21.5-2.3c-8-0.8-16.1-1.7-24.1-2.5c-7.2-0.8-14.3-1.5-21.5-2.3c-8-0.8-16-1.7-24.1-2.5
			c-1.1-0.1-1.3-0.5-1.3-1.4c0.1-3.1,0-6.1,0-9.4c-0.6,0.3-0.9,0.5-1.3,0.7c-4.2,2.6-8.5,5.2-12.7,8c-1.7,1.1-3.3,1.4-5.2,1.1
			c-9.5-1.1-19.1-2.1-28.6-3.1c-9.5-1-19-2-28.5-3c-10.5-1.1-21.1-2.2-31.6-3.3c-1.8-0.2-1.7-0.2-1.8-2c-0.1-6.9-0.2-13.8-0.3-20.7
			c-0.2-12.2-0.3-24.4-0.5-36.6c-0.1-7.4-0.2-14.7-0.3-22.1c0-1.2,0.1-2.5,0-3.7C0.6,195,0.9,193.4,0.5,191.7z M202.9,212.3
			c-0.1,0-0.3,0-0.4,0c0-2.3,0-4.6,0-7c0-0.7-0.2-1-0.9-1c-1.5-0.1-3-0.3-4.5-0.5c-7.3-0.8-14.5-1.5-21.8-2.3
			c-7.2-0.8-14.4-1.5-21.6-2.3c-7.3-0.8-14.5-1.5-21.8-2.3c-6.5-0.7-13-1.3-19.5-2.1c-1.1-0.1-1.3,0.2-1.3,1.2
			c0.2,10.9,0.3,21.7,0.5,32.6c0.1,5.6,0.2,11.3,0.2,16.9c0.1,7.7,0.2,15.3,0.3,23c0.1,7.2,0.2,14.4,0.3,21.6c0,0.6,0.1,0.8,0.8,0.9
			c9.6,1,19.2,2,28.8,3c9.5,1,19.1,2,28.6,3c10.8,1.1,21.7,2.3,32.5,3.5c0.6,0.1,0.8,0,0.7-0.7c-0.1-4.4-0.1-8.9-0.2-13.3
			c-0.1-7.2-0.2-14.3-0.3-21.5c-0.1-9.8-0.3-19.6-0.4-29.4C202.8,228,202.9,220.1,202.9,212.3z M226.7,299.6c0.1,0,0.2,0,0.3,0
			c0,2.9,0,5.8,0,8.8c0,0.4-0.3,0.9,0.5,1c1,0.1,2,0.3,3.1,0.4c3.8,0.4,7.7,0.7,11.5,1.1c3.8,0.4,7.5,0.9,11.3,1.3
			c3.8,0.4,7.6,0.7,11.5,1.1c3.1,0.3,6.2,0.7,9.3,1c2.7,0.3,5.4,0.5,8.1,0.8c3.3,0.4,6.7,0.8,10,1.1c3.8,0.4,7.6,0.7,11.4,1.1
			c4.7,0.5,9.4,1,14.1,1.5c0.7,0.1,0.8-0.2,0.8-0.8c-0.1-1-0.1-1.9-0.1-2.9c-0.2-11.8-0.3-23.6-0.5-35.4c-0.1-5.1-0.2-10.2-0.2-15.3
			c-0.1-7.7-0.2-15.4-0.3-23.1c-0.1-6-0.2-11.9-0.2-17.9c0-0.4,0.1-0.8-0.5-0.8c-0.7,0-1.4-0.2-2.1-0.2c-2.6-0.2-5.2-0.5-7.8-0.7
			c-2.9-0.3-5.8-0.6-8.7-0.9c-1.6-0.2-3.3-0.3-5-0.5c-2.9-0.3-5.8-0.6-8.7-0.9c-2.4-0.3-4.9-0.5-7.3-0.8c-3.7-0.4-7.3-0.8-11-1.2
			c-2.4-0.3-4.9-0.5-7.3-0.7c-2.9-0.2-5.7-0.6-8.6-0.9c-2.5-0.3-5-0.5-7.5-0.8c-2.7-0.3-5.4-0.6-8.1-0.9c-2.6-0.3-5.2-0.4-7.8-0.8
			c-1.1-0.2-1,0.2-1,0.9c0.2,10.2,0.3,20.4,0.5,30.6c0.1,9.9,0.3,19.7,0.4,29.6C226.8,282.8,226.7,291.2,226.7,299.6z M93.4,216.4
			c-0.1,0-0.3,0-0.4,0c0-3.8,0-7.5,0-11.3c0-3.4-0.1-6.7-0.1-10.1c0-0.7-0.2-1.1-1-1.1c-5.5-0.6-11-1.1-16.6-1.7
			c-7.2-0.7-14.4-1.5-21.6-2.3c-7.3-0.8-14.6-1.5-21.9-2.3c-6.5-0.7-13-1.4-19.5-2.1c-3.3-0.3-6.5-0.7-9.8-1c-0.9-0.1-1.2,0.2-1,1
			c0,0.2,0,0.5,0,0.7c0.1,8.9,0.3,17.8,0.4,26.7c0.1,9.8,0.3,19.6,0.4,29.4c0.1,7.9,0.2,15.8,0.3,23.7c0.1,4.4,0.1,8.7,0.2,13.1
			c0,0.8,0,1.4,1.2,1.6c6.3,0.6,12.6,1.3,18.8,1.9c7.2,0.8,14.5,1.5,21.7,2.3c7.9,0.8,15.9,1.7,23.8,2.5c8.2,0.9,16.4,1.7,24.5,2.6
			c1,0.1,1.3-0.1,1.3-1.1c-0.1-4.8-0.2-9.5-0.3-14.3c-0.1-5.6-0.2-11.1-0.2-16.7c-0.1-7.9-0.2-15.7-0.3-23.6
			C93.4,228.4,93.4,222.4,93.4,216.4z M319.4,318.4c0.6-0.4,0.9-0.5,1.2-0.7c19.2-12,38.4-24.1,57.7-36.1c0.5-0.3,0.8-0.6,0.7-1.3
			c-0.1-3-0.1-6-0.2-9c-0.1-7-0.2-14.1-0.3-21.1c-0.1-9.9-0.3-19.8-0.4-29.7c-0.1-9.4-0.2-18.8-0.3-28.2c0-2.4,0-4.8,0-7.5
			c-0.6,0.3-0.8,0.5-1.1,0.7c-19.2,12-38.4,24-57.6,36c-0.7,0.4-0.9,0.9-0.9,1.6c0.1,8.3,0.3,16.5,0.4,24.8c0.1,7,0.2,14.1,0.3,21.1
			c0.2,12.2,0.3,24.4,0.5,36.6C319.5,309.8,319.4,313.9,319.4,318.4z M388.1,272.9c0.1,0,0.3,0.1,0.4,0.1c0.2-0.1,0.3-0.2,0.5-0.3
			c19.3-12.1,38.6-24.2,58-36.3c0.6-0.4,0.8-0.9,0.8-1.6c-0.1-4.8-0.2-9.5-0.2-14.3c-0.1-6.9-0.2-13.8-0.3-20.7
			c-0.2-12.2-0.3-24.4-0.5-36.6c-0.1-7.2-0.2-14.5-0.3-21.7c0-0.6,0.3-1.4-0.2-1.7c-0.4-0.2-1,0.4-1.4,0.7
			c-19,11.9-37.9,23.7-56.9,35.6c-0.8,0.5-1,1-1,1.8c0.1,6.7,0.2,13.4,0.3,20.1c0.1,6.8,0.2,13.5,0.3,20.3
			c0.2,12.1,0.3,24.1,0.5,36.2C388.1,260.7,388.1,266.8,388.1,272.9z M515.7,93.9c-0.6,0.4-0.9,0.6-1.2,0.7
			c-10.1,6.3-20.1,12.6-30.1,18.9c-9.1,5.7-18.1,11.3-27.2,17c-0.5,0.3-1,0.4-1,1.3c0.2,5.9,0.2,11.7,0.3,17.6c0.1,7,0.2,14,0.3,21
			c0.1,9.9,0.3,19.9,0.4,29.8c0.1,8,0.2,16,0.3,24c0,1,0,2,0,3.2c0.6-0.3,0.9-0.5,1.2-0.7c7.5-4.7,15-9.4,22.5-14.1
			c11.6-7.2,23.1-14.5,34.7-21.7c0.7-0.4,1-0.9,0.9-1.7c-0.1-1.2-0.1-2.5-0.1-3.7c-0.1-9.9-0.3-19.9-0.4-29.8c-0.1-7-0.2-14-0.3-21
			c-0.1-10.7-0.3-21.5-0.4-32.2C515.6,99.7,515.7,96.9,515.7,93.9z M262.9,166.6c-0.6,0.4-1,0.6-1.3,0.8
			c-18.6,11.6-37.2,23.3-55.9,34.9c-1.7,1.1-2.4,2.1-2.3,4.2c0.3,11.5,0.4,22.9,0.6,34.4c0.1,9.8,0.3,19.5,0.4,29.3
			c0.1,8,0.2,15.9,0.3,23.9c0,2,0,3.9,0,6.1c0.4-0.2,0.6-0.3,0.7-0.4c6.6-4.1,13.2-8.3,19.8-12.4c0.6-0.4,0.7-0.8,0.7-1.5
			c-0.1-6.2-0.2-12.4-0.2-18.6c-0.1-9.1-0.3-18.2-0.4-27.3c-0.1-8.9-0.2-17.8-0.4-26.7c0-0.9,0.3-1.4,1-1.9
			c12.1-7.5,24.2-15.1,36.3-22.7c0.7-0.4,0.9-0.9,0.9-1.7c-0.1-4.9-0.1-9.8-0.2-14.7C262.9,170.4,262.9,168.6,262.9,166.6z
			 M94.2,241.3c0.2,0,0.4,0,0.6,0c0,5.7,0,11.4,0,17.1c0.1,10,0.3,19.9,0.4,29.9c0,0.4-0.2,0.9,0.2,1.1c0.4,0.2,0.7-0.3,1-0.5
			c4.6-2.9,9.2-5.8,13.8-8.6c0.8-0.5,1-1,1-1.9c-0.1-7-0.2-13.9-0.3-20.9c-0.1-9.8-0.3-19.5-0.4-29.3c-0.1-7.9-0.2-15.7-0.3-23.6
			c0-3.2,0-6.3-0.1-9.5c0-1,0.2-1.6,1-2.1c13.8-8.6,27.6-17.2,41.3-25.8c0.7-0.4,1-0.9,0.9-1.7c-0.1-2.7-0.1-5.4-0.2-8
			c0-0.3,0.2-0.8-0.1-1c-0.3-0.2-0.6,0.2-0.9,0.4c-19.2,12-38.3,24-57.5,35.9c-0.7,0.4-0.9,0.8-0.9,1.6c0.2,9.2,0.3,18.3,0.4,27.5
			C94.3,228.4,94.2,234.8,94.2,241.3z M455.9,158c-0.2,0-0.4,0-0.5,0c0-5.2,0-10.5,0-15.7c0-3.1-0.1-6.2-0.1-9.2
			c0-0.8-0.1-1.4-1.2-1.4c-0.8,0-1.7-0.2-2.5-0.2c-9.5-1-19-2-28.5-3c-8.8-0.9-17.6-1.8-26.3-2.7c-10.7-1.1-21.5-2.2-32.2-3.4
			c-0.8-0.1-0.8,0.2-0.8,0.8c0.1,1.8,0.2,3.7,0.1,5.5c-0.1,1.2,0.4,1.5,1.5,1.6c8.5,0.9,17.1,1.8,25.6,2.7
			c8.7,0.9,17.5,1.8,26.2,2.7c9.7,1,19.4,2.1,29.1,3c0.8,0.1,1.1,0.3,1.1,1.1c0.1,10.5,0.3,20.9,0.5,31.4c0.1,5.4,0.2,10.9,0.2,16.3
			c0.1,7.7,0.2,15.3,0.3,23c0.1,5.3,0.2,10.6,0.2,15.8c0,0.7,0.2,0.9,0.9,0.9c2,0.2,3.9,0.4,5.8,0.7c1.1,0.2,1.3-0.2,1.3-1.2
			c-0.1-3.4-0.2-6.8-0.2-10.2c-0.2-12-0.4-23.9-0.5-35.9C455.8,173.1,455.9,165.6,455.9,158z M379.4,262.8c0.1,0,0.3,0,0.4,0
			c0,3.1,0,6.2,0,9.2c0,0.6,0.2,0.8,0.8,0.9c1.8,0.2,3.7,0.3,5.5,0.6c1.1,0.2,1.3-0.2,1.2-1.2c-0.2-6.8-0.3-13.5-0.4-20.3
			c-0.1-7.1-0.2-14.1-0.3-21.2c-0.1-9.9-0.3-19.8-0.4-29.7c-0.1-7.5-0.2-15-0.3-22.5c0-0.8-0.2-1.1-1-1.2c-4.1-0.4-8.2-0.8-12.3-1.3
			c-7.2-0.8-14.4-1.5-21.6-2.3c-7.3-0.8-14.5-1.5-21.8-2.3c-6.4-0.7-12.9-1.3-19.3-2c-4.8-0.5-9.6-1-14.4-1.5c-0.6-0.1-1,0-0.9,0.8
			c0.1,1.9,0.1,3.8,0.1,5.8c0,0.7,0.4,0.8,0.9,0.8c7.1,0.7,14.1,1.5,21.2,2.2c7.2,0.8,14.4,1.5,21.6,2.3c7.3,0.8,14.6,1.5,21.9,2.3
			c5.8,0.6,11.6,1.2,17.4,1.8c0.6,0.1,0.9,0.2,0.9,0.9c0.1,7.1,0.2,14.1,0.3,21.2c0.1,5,0.2,10,0.2,15c0.1,7.7,0.2,15.4,0.3,23.1
			C379.5,250.4,379.4,256.6,379.4,262.8z M343.9,134.9c0.1,0,0.3,0.1,0.4,0.1c2.8-1.7,5.6-3.4,8.3-5.2c1-0.7,1.9-0.8,3-0.6
			c2.1,0.3,4.3,0.4,6.4,0.7c0.7,0.1,0.8-0.1,0.8-0.7c-0.1-2.2,0-4.5-0.1-6.7c0-1,0.3-1.5,1.2-2.1c12.9-8,25.8-16.1,38.7-24.2
			c0.6-0.4,1-0.7,1-1.6c-0.1-5.2-0.2-10.5-0.3-15.7c0-0.4,0.2-0.9-0.1-1.1c-0.4-0.2-0.7,0.2-1,0.4c-4,2.5-7.9,5-11.9,7.4
			c-15.2,9.5-30.3,19-45.5,28.5c-0.5,0.3-0.9,0.6-0.9,1.4C343.9,121.9,343.9,128.4,343.9,134.9z M334.3,123.4
			c-0.1,0-0.3-0.1-0.4-0.1c-2.7,1.7-5.4,3.4-8.1,5.1c-16.6,10.4-33.2,20.8-49.9,31.2c-0.9,0.6-1.2,1.2-1.2,2.2
			c0.1,4.6,0.1,9.3,0.2,13.9c0,1.6,0,3.2,0,4.9c0.4-0.2,0.6-0.3,0.8-0.4c2.9-1.8,5.7-3.6,8.6-5.4c0.4-0.3,0.8-0.5,1.4-0.5
			c2.2,0.3,4.5,0.4,6.7,0.7c1.2,0.2,1.3-0.2,1.3-1.2c-0.1-2-0.1-3.9-0.2-5.9c-0.1-0.9,0.3-1.3,1-1.8c13-8.1,25.9-16.2,38.9-24.3
			c0.7-0.4,1-0.9,0.9-1.7c-0.1-2-0.1-3.9-0.1-5.9C334.3,130.7,334.3,127,334.3,123.4z M292.1,65.6c-0.7-0.1-0.9,0.2-1.2,0.4
			c-19.2,12-38.4,24-57.6,36c-0.5,0.3-0.8,0.7-0.8,1.3c0.1,2.3,0,4.6,0.1,6.8c0,2.6,0,5.2,0,8c2.9-1.8,5.5-3.4,8-5
			c0.8-0.5,1.5-0.7,2.5-0.5c2.5,0.3,4.9,0.5,7.5,0.8c0-2.6,0-5.2,0-7.8c0-0.7,0.2-1.1,0.8-1.5c12.8-8,25.5-16,38.3-23.9
			c1.8-1.1,2.9-2.2,2.5-4.5c-0.2-0.8,0-1.8,0-2.6C292.1,70.6,292.1,68,292.1,65.6z M335.2,140.7c2.6-1.7,5-3.1,7.3-4.6
			c0.5-0.3,0.7-0.6,0.7-1.2c-0.1-6.2-0.2-12.5-0.3-18.7c0-0.8-0.3-0.9-1-1c-5.6-0.6-11.2-1.2-16.8-1.7c-7.1-0.7-14.2-1.5-21.3-2.2
			c-7.3-0.8-14.6-1.5-21.9-2.3c-6.5-0.7-13-1.4-19.5-2.1c-3.3-0.3-6.5-0.7-9.8-1c-0.4,0-1.1-0.3-1,0.6c0.1,2,0.1,4.1,0.1,6.1
			c0,0.8,0.3,1,1.1,1.1c7.1,0.7,14.2,1.5,21.3,2.2c6.5,0.7,13,1.3,19.4,2c7.3,0.8,14.5,1.5,21.8,2.3c6.3,0.7,12.6,1.3,19,2
			c0.6,0.1,0.9,0.3,0.9,0.9c0,2.7,0.1,5.4,0.1,8C335.2,134.2,335.2,137.3,335.2,140.7z M163.7,160.2c2.1-1.3,4-2.5,6-3.7
			c0.5-0.3,0.9-0.5,1.6-0.4c3.2,0.4,6.4,0.7,9.5,1.1c0.6,0.1,0.8-0.1,0.7-0.7c0-1.6,0-3.3-0.1-4.9c-0.1-1,0.3-1.5,1.1-2
			c13.2-8.2,26.3-16.5,39.5-24.7c0.7-0.5,1-0.9,1-1.8c-0.1-2.2-0.1-4.5-0.1-6.7c0-1.7,0-3.5,0-5.4c-0.7,0.4-1.1,0.6-1.4,0.9
			c-18.1,11.3-36.2,22.7-54.3,34c-1.2,0.8-2.8,1.3-3.5,2.4c-0.8,1.2-0.2,2.9-0.2,4.3C163.5,155,163.4,157.5,163.7,160.2z
			 M223.8,123.7c2.8-1.7,5.2-3.2,7.6-4.7c0.5-0.3,0.5-0.7,0.5-1.1c-0.1-4.6-0.1-9.3-0.2-13.9c0-0.6-0.2-0.8-0.8-0.9
			c-2-0.2-4-0.4-6-0.6c-7.2-0.8-14.4-1.5-21.6-2.3c-7.3-0.8-14.5-1.5-21.8-2.3c-6.4-0.7-12.9-1.3-19.3-2c-7.1-0.7-14.1-1.5-21.2-2.3
			c-0.5-0.1-0.8,0-0.8,0.6c0.1,2.1,0.1,4.2,0.1,6.4c0,0.7,0.3,0.8,0.9,0.8c6.3,0.6,12.6,1.3,19,2c7.1,0.7,14.1,1.5,21.2,2.2
			c7.3,0.8,14.5,1.5,21.8,2.3c6.4,0.7,12.9,1.4,19.3,2c1.1,0.1,1.3,0.6,1.3,1.6C223.7,115.4,223.8,119.4,223.8,123.7z M154.2,165.8
			c0.1,0,0.3,0.1,0.4,0.1c2.5-1.6,5.1-3.2,7.6-4.7c0.5-0.3,0.4-0.7,0.4-1.2c0-3.4-0.1-6.9-0.1-10.3c0-0.6-0.2-0.9-0.9-0.9
			c-8.1-0.8-16.2-1.7-24.3-2.6c-10.3-1.1-20.6-2.1-30.9-3.2c-11.5-1.2-23-2.4-34.6-3.7c-0.7-0.1-0.8,0.2-0.8,0.7c0,1.7,0.2,3.4,0,5
			c-0.1,1.4,0.5,1.7,1.6,1.8c3.6,0.3,7.2,0.7,10.7,1.1c7.9,0.8,15.9,1.7,23.8,2.5c7.2,0.8,14.5,1.5,21.7,2.3c8,0.8,16,1.7,24.1,2.5
			c0.9,0.1,1.1,0.4,1.1,1.2C154.1,159.5,154.2,162.6,154.2,165.8z M263.8,187.2c0.1,0,0.3,0.1,0.4,0.1c3.1-2,6.3-3.9,9.4-5.9
			c0.5-0.3,0.4-0.7,0.4-1.1c0-2-0.1-4-0.1-6c-0.1-4.2-0.1-8.3-0.1-12.5c0-0.6-0.2-0.9-0.8-1c-1.5-0.1-3-0.3-4.5-0.5
			c-8.7-0.9-17.5-1.9-26.2-2.8c-8.7-0.9-17.5-1.8-26.2-2.7c-10.9-1.1-21.8-2.3-32.8-3.5c-0.6-0.1-0.9,0-0.8,0.7
			c0.1,1.3,0.1,2.6,0,3.8c-0.1,1.1,0.4,1.3,1.3,1.4c8,0.8,16,1.6,24,2.5c8.7,0.9,17.5,1.9,26.2,2.8c9.5,1,19,2,28.5,2.9
			c1.1,0.1,1.4,0.5,1.4,1.6C263.8,173.9,263.8,180.6,263.8,187.2z"/>
		<path id="XMLID_129_" class="st0" d="M0.7,200.4l-0.1,0l-0.1,0c0-2.9,0-5.8,0-8.6c0.4,1.6,0.1,3.3,0.2,5
			C0.8,197.9,0.7,199.1,0.7,200.4z"/>
		<path id="XMLID_128_" class="st0" d="M517.7,185.2c0.1,0,0.1,0,0.2,0c0,2.1,0,4.2,0,6.2c-0.1,0-0.2,0-0.3,0
			C517.7,189.4,517.7,187.3,517.7,185.2z"/>
		<path id="XMLID_127_" class="st0" d="M202.9,212.3c0,7.8-0.1,15.7,0,23.5c0.1,9.8,0.3,19.6,0.4,29.4c0.1,7.2,0.2,14.3,0.3,21.5
			c0.1,4.4,0.1,8.9,0.2,13.3c0,0.6-0.2,0.7-0.7,0.7c-10.8-1.2-21.7-2.3-32.5-3.5c-9.5-1-19.1-2-28.6-3c-9.6-1-19.2-2.1-28.8-3
			c-0.6-0.1-0.8-0.3-0.8-0.9c-0.1-7.2-0.2-14.4-0.3-21.6c-0.1-7.7-0.2-15.3-0.3-23c-0.1-5.6-0.2-11.3-0.2-16.9
			c-0.2-10.9-0.3-21.7-0.5-32.6c0-1,0.2-1.3,1.3-1.2c6.5,0.8,13,1.4,19.5,2.1c7.3,0.8,14.5,1.5,21.8,2.3c7.2,0.8,14.4,1.5,21.6,2.3
			c7.3,0.8,14.5,1.5,21.8,2.3c1.5,0.2,3,0.4,4.5,0.5c0.7,0.1,1,0.3,0.9,1c-0.1,2.3,0,4.6,0,7C202.6,212.3,202.8,212.3,202.9,212.3z"
			/>
		<path id="XMLID_126_" class="st0" d="M226.7,299.6c0-8.4,0.1-16.9,0-25.3c-0.1-9.9-0.3-19.7-0.4-29.6c-0.2-10.2-0.3-20.4-0.5-30.6
			c0-0.7-0.1-1.1,1-0.9c2.6,0.4,5.2,0.5,7.8,0.8c2.7,0.3,5.4,0.6,8.1,0.9c2.5,0.3,5,0.5,7.5,0.8c2.9,0.3,5.7,0.7,8.6,0.9
			c2.4,0.2,4.9,0.5,7.3,0.7c3.7,0.4,7.3,0.7,11,1.2c2.4,0.3,4.9,0.5,7.3,0.8c2.9,0.3,5.8,0.6,8.7,0.9c1.6,0.2,3.3,0.3,5,0.5
			c2.9,0.3,5.8,0.6,8.7,0.9c2.6,0.3,5.2,0.5,7.8,0.7c0.7,0.1,1.4,0.2,2.1,0.2c0.7,0,0.5,0.5,0.5,0.8c0.1,6,0.2,11.9,0.2,17.9
			c0.1,7.7,0.2,15.4,0.3,23.1c0.1,5.1,0.2,10.2,0.2,15.3c0.2,11.8,0.3,23.6,0.5,35.4c0,1,0,1.9,0.1,2.9c0,0.6-0.1,0.9-0.8,0.8
			c-4.7-0.5-9.4-1-14.1-1.5c-3.8-0.4-7.6-0.7-11.4-1.1c-3.3-0.4-6.7-0.8-10-1.1c-2.7-0.3-5.4-0.5-8.1-0.8c-3.1-0.3-6.2-0.7-9.3-1
			c-3.8-0.4-7.6-0.7-11.5-1.1c-3.8-0.4-7.5-0.9-11.3-1.3c-3.8-0.4-7.7-0.7-11.5-1.1c-1-0.1-2-0.3-3.1-0.4c-0.8-0.1-0.5-0.6-0.5-1
			c0-2.9,0-5.8,0-8.8C227,299.6,226.9,299.6,226.7,299.6z"/>
		<path id="XMLID_125_" class="st0" d="M93.4,216.4c0,6,0,12,0,18c0.1,7.9,0.2,15.7,0.3,23.6c0.1,5.6,0.2,11.1,0.2,16.7
			c0.1,4.8,0.1,9.5,0.3,14.3c0,1.1-0.3,1.2-1.3,1.1c-8.2-0.9-16.4-1.7-24.5-2.6c-7.9-0.8-15.9-1.7-23.8-2.5
			c-7.2-0.8-14.5-1.5-21.7-2.3c-6.3-0.7-12.6-1.3-18.8-1.9c-1.2-0.1-1.2-0.7-1.2-1.6c0-4.4-0.1-8.7-0.2-13.1
			c-0.1-7.9-0.2-15.8-0.3-23.7c-0.1-9.8-0.3-19.6-0.4-29.4c-0.1-8.9-0.3-17.8-0.4-26.7c0-0.2,0-0.5,0-0.7c-0.1-0.8,0.2-1.1,1-1
			c3.3,0.4,6.5,0.7,9.8,1c6.5,0.7,13,1.4,19.5,2.1c7.3,0.8,14.6,1.5,21.9,2.3c7.2,0.8,14.4,1.5,21.6,2.3c5.5,0.6,11,1.2,16.6,1.7
			c0.8,0.1,1,0.4,1,1.1c0,3.4,0.1,6.7,0.1,10.1c0,3.8,0,7.5,0,11.3C93.1,216.4,93.3,216.4,93.4,216.4z"/>
		<path id="XMLID_124_" class="st0" d="M319.4,318.4c0-4.5,0-8.7,0-12.8c-0.1-12.2-0.3-24.4-0.5-36.6c-0.1-7-0.2-14.1-0.3-21.1
			c-0.1-8.3-0.2-16.5-0.4-24.8c0-0.8,0.2-1.2,0.9-1.6c19.2-12,38.4-24,57.6-36c0.3-0.2,0.5-0.3,1.1-0.7c0,2.7,0,5.1,0,7.5
			c0.1,9.4,0.2,18.8,0.3,28.2c0.1,9.9,0.3,19.8,0.4,29.7c0.1,7,0.2,14.1,0.3,21.1c0,3,0.1,6,0.2,9c0,0.7-0.2,1-0.7,1.3
			c-19.2,12-38.5,24-57.7,36.1C320.3,317.9,320.1,318.1,319.4,318.4z"/>
		<path id="XMLID_123_" class="st0" d="M388.1,272.9c0-6.1,0.1-12.1,0-18.2c-0.1-12.1-0.3-24.1-0.5-36.2c-0.1-6.8-0.2-13.5-0.3-20.3
			c-0.1-6.7-0.2-13.4-0.3-20.1c0-0.9,0.2-1.4,1-1.8c19-11.8,37.9-23.7,56.9-35.6c0.5-0.3,1-0.9,1.4-0.7c0.5,0.3,0.2,1.1,0.2,1.7
			c0.1,7.2,0.2,14.5,0.3,21.7c0.2,12.2,0.3,24.4,0.5,36.6c0.1,6.9,0.2,13.8,0.3,20.7c0.1,4.8,0.1,9.5,0.2,14.3
			c0,0.7-0.1,1.2-0.8,1.6c-19.3,12.1-38.7,24.2-58,36.3c-0.2,0.1-0.3,0.2-0.5,0.3C388.3,273,388.2,272.9,388.1,272.9z"/>
		<path id="XMLID_122_" class="st0" d="M515.7,93.9c0,3,0,5.7,0,8.5c0.1,10.7,0.3,21.5,0.4,32.2c0.1,7,0.2,14,0.3,21
			c0.1,9.9,0.3,19.9,0.4,29.8c0,1.2,0,2.5,0.1,3.7c0.1,0.8-0.2,1.3-0.9,1.7c-11.6,7.2-23.2,14.5-34.7,21.7
			c-7.5,4.7-15,9.4-22.5,14.1c-0.3,0.2-0.7,0.4-1.2,0.7c0-1.2,0-2.2,0-3.2c-0.1-8-0.2-16-0.3-24c-0.1-9.9-0.3-19.9-0.4-29.8
			c-0.1-7-0.2-14-0.3-21c-0.1-5.9-0.1-11.7-0.3-17.6c0-0.9,0.5-1,1-1.3c9.1-5.7,18.1-11.4,27.2-17c10.1-6.3,20.1-12.6,30.1-18.9
			C514.7,94.5,515,94.3,515.7,93.9z"/>
		<path id="XMLID_121_" class="st0" d="M262.9,166.6c0,2.1,0,3.8,0,5.6c0,4.9,0.1,9.8,0.2,14.7c0,0.8-0.2,1.3-0.9,1.7
			c-12.1,7.5-24.2,15.1-36.3,22.7c-0.8,0.5-1.1,1-1,1.9c0.2,8.9,0.3,17.8,0.4,26.7c0.1,9.1,0.3,18.2,0.4,27.3
			c0.1,6.2,0.2,12.4,0.2,18.6c0,0.6-0.1,1.1-0.7,1.5c-6.6,4.1-13.2,8.2-19.8,12.4c-0.1,0.1-0.3,0.1-0.7,0.4c0-2.1,0-4.1,0-6.1
			c-0.1-8-0.2-15.9-0.3-23.9c-0.1-9.8-0.3-19.5-0.4-29.3c-0.2-11.5-0.2-22.9-0.6-34.4c-0.1-2.1,0.6-3.1,2.3-4.2
			c18.7-11.6,37.2-23.3,55.9-34.9C261.9,167.2,262.3,167,262.9,166.6z"/>
		<path id="XMLID_120_" class="st0" d="M94.2,241.3c0-6.5,0-12.9,0-19.4c-0.1-9.2-0.2-18.3-0.4-27.5c0-0.8,0.2-1.2,0.9-1.6
			c19.2-12,38.3-24,57.5-35.9c0.3-0.2,0.6-0.6,0.9-0.4c0.3,0.2,0.1,0.7,0.1,1c0.1,2.7,0.1,5.4,0.2,8c0,0.8-0.2,1.3-0.9,1.7
			c-13.8,8.6-27.6,17.2-41.3,25.8c-0.9,0.5-1.1,1.1-1,2.1c0.1,3.2,0.1,6.3,0.1,9.5c0.1,7.9,0.2,15.7,0.3,23.6
			c0.1,9.8,0.3,19.5,0.4,29.3c0.1,7,0.2,13.9,0.3,20.9c0,0.9-0.2,1.4-1,1.9c-4.6,2.8-9.2,5.7-13.8,8.6c-0.3,0.2-0.7,0.6-1,0.5
			c-0.4-0.2-0.2-0.7-0.2-1.1c-0.1-10-0.3-19.9-0.4-29.9c-0.1-5.7,0-11.4,0-17.1C94.6,241.3,94.4,241.3,94.2,241.3z"/>
		<path id="XMLID_119_" class="st0" d="M455.9,158c0,7.6-0.1,15.1,0,22.7c0.1,12,0.3,23.9,0.5,35.9c0,3.4,0.1,6.8,0.2,10.2
			c0,1.1-0.2,1.4-1.3,1.2c-1.9-0.3-3.9-0.5-5.8-0.7c-0.7-0.1-0.9-0.3-0.9-0.9c-0.1-5.3-0.1-10.6-0.2-15.8c-0.1-7.7-0.2-15.3-0.3-23
			c-0.1-5.4-0.2-10.9-0.2-16.3c-0.2-10.5-0.3-20.9-0.5-31.4c0-0.9-0.3-1-1.1-1.1c-9.7-1-19.4-2-29.1-3c-8.7-0.9-17.5-1.8-26.2-2.7
			c-8.5-0.9-17.1-1.8-25.6-2.7c-1.1-0.1-1.6-0.4-1.5-1.6c0.1-1.8-0.1-3.7-0.1-5.5c0-0.6,0-0.9,0.8-0.8c10.7,1.2,21.5,2.3,32.2,3.4
			c8.8,0.9,17.6,1.8,26.3,2.7c9.5,1,19,2,28.5,3c0.8,0.1,1.7,0.3,2.5,0.2c1.1-0.1,1.2,0.6,1.2,1.4c0,3.1,0.1,6.2,0.1,9.2
			c0,5.2,0,10.5,0,15.7C455.5,158,455.7,158,455.9,158z"/>
		<path id="XMLID_118_" class="st0" d="M379.4,262.8c0-6.2,0-12.4,0-18.6c-0.1-7.7-0.2-15.4-0.3-23.1c-0.1-5-0.2-10-0.2-15
			c-0.1-7.1-0.2-14.1-0.3-21.2c0-0.7-0.2-0.9-0.9-0.9c-5.8-0.6-11.6-1.2-17.4-1.8c-7.3-0.8-14.6-1.5-21.9-2.3
			c-7.2-0.8-14.4-1.5-21.6-2.3c-7.1-0.7-14.1-1.5-21.2-2.2c-0.5-0.1-0.9-0.1-0.9-0.8c0-1.9,0-3.8-0.1-5.8c0-0.8,0.3-0.8,0.9-0.8
			c4.8,0.5,9.6,1,14.4,1.5c6.4,0.7,12.9,1.3,19.3,2c7.3,0.8,14.5,1.5,21.8,2.3c7.2,0.8,14.4,1.5,21.6,2.3c4.1,0.4,8.2,0.9,12.3,1.3
			c0.8,0.1,1,0.4,1,1.2c0.1,7.5,0.2,15,0.3,22.5c0.1,9.9,0.3,19.8,0.4,29.7c0.1,7.1,0.2,14.1,0.3,21.2c0.1,6.8,0.2,13.5,0.4,20.3
			c0,1-0.2,1.3-1.2,1.2c-1.8-0.3-3.6-0.5-5.5-0.6c-0.6-0.1-0.8-0.3-0.8-0.9c0-3.1,0-6.2,0-9.2C379.7,262.8,379.6,262.8,379.4,262.8z
			"/>
		<path id="XMLID_117_" class="st0" d="M343.9,134.9c0-6.5,0-12.9,0-19.4c0-0.8,0.4-1,0.9-1.4c15.2-9.5,30.3-19,45.5-28.5
			c4-2.5,7.9-5,11.9-7.4c0.3-0.2,0.7-0.7,1-0.4c0.3,0.2,0.1,0.7,0.1,1.1c0.1,5.2,0.1,10.5,0.3,15.7c0,0.8-0.4,1.2-1,1.6
			c-12.9,8.1-25.8,16.1-38.7,24.2c-0.9,0.5-1.2,1.1-1.2,2.1c0.1,2.2,0.1,4.5,0.1,6.7c0,0.7-0.1,0.8-0.8,0.7
			c-2.1-0.3-4.3-0.4-6.4-0.7c-1.1-0.1-2.1,0-3,0.6c-2.7,1.8-5.5,3.5-8.3,5.2C344.2,135,344.1,134.9,343.9,134.9z"/>
		<path id="XMLID_116_" class="st0" d="M334.3,123.4c0,3.6,0,7.3,0,10.9c0,2,0,3.9,0.1,5.9c0,0.8-0.3,1.3-0.9,1.7
			c-13,8.1-25.9,16.2-38.9,24.3c-0.7,0.5-1,0.9-1,1.8c0.1,2,0.1,3.9,0.2,5.9c0.1,1-0.1,1.4-1.3,1.2c-2.2-0.4-4.4-0.5-6.7-0.7
			c-0.6-0.1-1,0.2-1.4,0.5c-2.9,1.8-5.7,3.6-8.6,5.4c-0.2,0.1-0.4,0.2-0.8,0.4c0-1.8,0-3.4,0-4.9c0-4.6-0.1-9.3-0.2-13.9
			c0-1,0.3-1.6,1.2-2.2c16.6-10.4,33.2-20.8,49.9-31.2c2.7-1.7,5.4-3.4,8.1-5.1C334,123.3,334.2,123.4,334.3,123.4z"/>
		<path id="XMLID_115_" class="st0" d="M292.1,65.6c0,2.5,0,5,0,7.5c0,0.9-0.1,1.8,0,2.6c0.5,2.3-0.6,3.3-2.5,4.5
			c-12.8,7.9-25.5,15.9-38.3,23.9c-0.6,0.4-0.8,0.8-0.8,1.5c0,2.6,0,5.2,0,7.8c-2.5-0.3-5-0.5-7.5-0.8c-0.9-0.1-1.7,0-2.5,0.5
			c-2.5,1.6-5.1,3.2-8,5c0-2.9,0-5.5,0-8c0-2.3,0-4.6-0.1-6.8c0-0.6,0.2-1,0.8-1.3c19.2-12,38.4-24,57.6-36
			C291.2,65.8,291.4,65.5,292.1,65.6z"/>
		<path id="XMLID_114_" class="st0" d="M335.2,140.7c0-3.4,0-6.5,0-9.6c0-2.7-0.1-5.4-0.1-8c0-0.7-0.3-0.9-0.9-0.9
			c-6.3-0.6-12.6-1.3-19-2c-7.3-0.8-14.5-1.5-21.8-2.3c-6.5-0.7-13-1.4-19.4-2c-7.1-0.7-14.2-1.5-21.3-2.2c-0.7-0.1-1.1-0.3-1.1-1.1
			c0-2,0-4.1-0.1-6.1c0-0.9,0.6-0.7,1-0.6c3.3,0.3,6.5,0.7,9.8,1c6.5,0.7,13,1.4,19.5,2.1c7.3,0.8,14.6,1.5,21.9,2.3
			c7.1,0.7,14.2,1.5,21.3,2.2c5.6,0.6,11.2,1.2,16.8,1.7c0.6,0.1,1,0.2,1,1c0.1,6.2,0.2,12.5,0.3,18.7c0,0.6-0.2,0.9-0.7,1.2
			C340.2,137.6,337.9,139.1,335.2,140.7z"/>
		<path id="XMLID_113_" class="st0" d="M163.7,160.2c-0.3-2.7-0.2-5.2-0.2-7.7c0-1.5-0.6-3.2,0.2-4.3c0.7-1.1,2.3-1.6,3.5-2.4
			c18.1-11.3,36.2-22.7,54.3-34c0.4-0.2,0.7-0.4,1.4-0.9c0,2,0,3.7,0,5.4c0,2.2,0,4.5,0.1,6.7c0,0.9-0.2,1.3-1,1.8
			c-13.2,8.2-26.3,16.5-39.5,24.7c-0.8,0.5-1.2,1-1.1,2c0.1,1.6,0,3.3,0.1,4.9c0,0.6-0.1,0.7-0.7,0.7c-3.2-0.4-6.4-0.7-9.5-1.1
			c-0.6-0.1-1.1,0.1-1.6,0.4C167.7,157.7,165.7,158.9,163.7,160.2z"/>
		<path id="XMLID_112_" class="st0" d="M223.8,123.7c0-4.3,0-8.3,0-12.2c0-1-0.2-1.5-1.3-1.6c-6.4-0.6-12.9-1.3-19.3-2
			c-7.3-0.8-14.5-1.5-21.8-2.3c-7.1-0.7-14.1-1.5-21.2-2.2c-6.3-0.7-12.6-1.3-19-2c-0.6-0.1-0.9-0.2-0.9-0.8c0-2.1-0.1-4.2-0.1-6.4
			c0-0.6,0.3-0.7,0.8-0.6c7.1,0.8,14.1,1.5,21.2,2.3c6.4,0.7,12.9,1.3,19.3,2c7.3,0.8,14.5,1.5,21.8,2.3c7.2,0.8,14.4,1.5,21.6,2.3
			c2,0.2,4,0.4,6,0.6c0.6,0.1,0.8,0.3,0.8,0.9c0,4.6,0.1,9.3,0.2,13.9c0,0.4,0,0.8-0.5,1.1C228.9,120.5,226.5,122,223.8,123.7z"/>
		<path id="XMLID_111_" class="st0" d="M154.2,165.8c0-3.1,0-6.2,0-9.3c0-0.9-0.2-1.1-1.1-1.2c-8-0.8-16.1-1.7-24.1-2.5
			c-7.2-0.8-14.5-1.5-21.7-2.3c-7.9-0.8-15.9-1.7-23.8-2.5c-3.6-0.4-7.1-0.8-10.7-1.1c-1.2-0.1-1.8-0.4-1.6-1.8c0.1-1.7,0-3.4,0-5
			c0-0.6,0-0.8,0.8-0.7c11.5,1.2,23,2.5,34.6,3.7c10.3,1.1,20.6,2.1,30.9,3.2c8.1,0.9,16.2,1.7,24.3,2.6c0.7,0.1,0.9,0.3,0.9,0.9
			c0,3.4,0.1,6.9,0.1,10.3c0,0.4,0.1,0.9-0.4,1.2c-2.5,1.6-5.1,3.2-7.6,4.7C154.4,165.8,154.3,165.8,154.2,165.8z"/>
		<path id="XMLID_110_" class="st0" d="M263.8,187.2c0-6.7,0-13.3,0-20c0-1.1-0.2-1.5-1.4-1.6c-9.5-0.9-19-1.9-28.5-2.9
			c-8.7-0.9-17.5-1.9-26.2-2.8c-8-0.8-16-1.7-24-2.5c-1-0.1-1.4-0.3-1.3-1.4c0.1-1.3,0.1-2.6,0-3.8c0-0.7,0.3-0.8,0.8-0.7
			c10.9,1.2,21.8,2.3,32.8,3.5c8.7,0.9,17.5,1.8,26.2,2.7c8.7,0.9,17.5,1.9,26.2,2.8c1.5,0.2,3,0.3,4.5,0.5c0.7,0.1,0.8,0.3,0.8,1
			c0,4.2,0.1,8.3,0.1,12.5c0,2,0.1,4,0.1,6c0,0.4,0.1,0.8-0.4,1.1c-3.1,1.9-6.3,3.9-9.4,5.9C264.1,187.3,263.9,187.3,263.8,187.2z"
			/>
	</g>
</g>
<g id="newblck">
	<g id="box4">
		<g id="XMLID_9_" class="st1">
			<g id="XMLID_86_">
				<polygon id="XMLID_87_" class="st2" points="171.1,39.3 231.5,1.6 232.6,83.5 172.3,121.3 				"/>
			</g>
			<g id="XMLID_84_">
				<polygon id="XMLID_85_" class="st2" points="172.3,121.3 232.6,83.5 311.3,91.8 251,129.5 				"/>
			</g>
			<g id="XMLID_82_">
				<polygon id="XMLID_83_" class="st2" points="171.1,39.3 231.5,1.6 310.2,9.8 249.8,47.6 				"/>
			</g>
			<g id="XMLID_80_">
				<polygon id="XMLID_81_" class="st2" points="250.7,46.7 311.1,9 312.3,92.8 251.9,130.6 				"/>
			</g>
			<g id="XMLID_78_">
				<polygon id="XMLID_79_" class="st2" points="249.8,47.6 310.2,9.8 311.3,91.8 251,129.5 				"/>
			</g>
			<g id="XMLID_76_">
				<polygon id="XMLID_77_" class="st2" points="249.8,47.6 251,129.5 172.3,121.3 171.1,39.3 				"/>
			</g>
			<g id="XMLID_37_">
				<polygon id="XMLID_38_" class="st2" points="170.2,38.3 230.5,0.5 311.1,9 250.7,46.7 				"/>
			</g>
		</g>
	</g>
	<g id="box3">
		<g id="XMLID_16_" class="st1">
			<g id="XMLID_74_">
				<polygon id="XMLID_75_" class="st2" points="322,59 382.3,21.2 383.5,103.1 323.2,140.9 				"/>
			</g>
			<g id="XMLID_72_">
				<polygon id="XMLID_73_" class="st2" points="323.2,140.9 383.5,103.1 462.2,111.4 401.9,149.2 				"/>
			</g>
			<g id="XMLID_70_">
				<polygon id="XMLID_71_" class="st2" points="322,59 382.3,21.2 461.1,29.5 400.7,67.2 				"/>
			</g>
			<g id="XMLID_68_">
				<polygon id="XMLID_69_" class="st2" points="401.6,66.4 462,28.6 463.2,112.5 402.8,150.2 				"/>
			</g>
			<g id="XMLID_66_">
				<polygon id="XMLID_67_" class="st2" points="400.7,67.2 461.1,29.5 462.2,111.4 401.9,149.2 				"/>
			</g>
			<g id="XMLID_58_">
				<polygon id="XMLID_65_" class="st2" points="400.7,67.2 401.9,149.2 323.2,140.9 322,59 				"/>
			</g>
			<g id="XMLID_32_">
				<polygon id="XMLID_57_" class="st2" points="321.1,57.9 381.4,20.1 462,28.6 401.6,66.4 				"/>
			</g>
		</g>
	</g>
	<g id="box2">
		<g id="XMLID_15_" class="st1">
			<g id="XMLID_55_">
				<polygon id="XMLID_56_" class="st2" points="40.7,95.1 101,57.4 102.3,151.8 42,189.5 				"/>
			</g>
			<g id="XMLID_53_">
				<polygon id="XMLID_54_" class="st2" points="42,189.5 102.3,151.8 193,161.3 132.7,199.1 				"/>
			</g>
			<g id="XMLID_51_">
				<polygon id="XMLID_52_" class="st2" points="40.7,95.1 101,57.4 191.7,66.9 131.3,104.7 				"/>
			</g>
			<g id="XMLID_49_">
				<polygon id="XMLID_50_" class="st2" points="132.2,103.8 192.6,66.1 193.9,162.4 133.6,200.1 				"/>
			</g>
			<g id="XMLID_47_">
				<polygon id="XMLID_48_" class="st2" points="131.3,104.7 191.7,66.9 193,161.3 132.7,199.1 				"/>
			</g>
			<g id="XMLID_45_">
				<polygon id="XMLID_46_" class="st2" points="131.3,104.7 132.7,199.1 42,189.5 40.7,95.1 				"/>
			</g>
			<g id="XMLID_26_">
				<polygon id="XMLID_44_" class="st2" points="39.7,94.1 100.1,56.3 192.6,66.1 132.2,103.8 				"/>
			</g>
		</g>
	</g>
	<g id="box1">
		<g id="XMLID_3_" class="st1">
			<g id="XMLID_63_">
				<polygon id="XMLID_64_" class="st2" points="186.9,107.6 247.3,69.9 248.6,164.3 188.3,202 				"/>
			</g>
			<g id="XMLID_61_">
				<polygon id="XMLID_62_" class="st2" points="188.3,202 248.6,164.3 339.3,173.8 279,211.5 				"/>
			</g>
			<g id="XMLID_40_">
				<polygon id="XMLID_60_" class="st2" points="186.9,107.6 247.3,69.9 337.9,79.4 277.6,117.2 				"/>
			</g>
			<g id="XMLID_28_">
				<polygon id="XMLID_34_" class="st2" points="278.5,116.3 338.8,78.5 340.2,174.8 279.9,212.6 				"/>
			</g>
			<g id="XMLID_20_">
				<polygon id="XMLID_22_" class="st2" points="277.6,117.2 337.9,79.4 339.3,173.8 279,211.5 				"/>
			</g>
			<g id="XMLID_14_">
				<polygon id="XMLID_19_" class="st2" points="277.6,117.2 279,211.5 188.3,202 186.9,107.6 				"/>
			</g>
			<g id="XMLID_12_">
				<polygon id="XMLID_13_" class="st2" points="186,106.6 246.3,68.8 338.8,78.5 278.5,116.3 				"/>
			</g>
		</g>
	</g>
</g>
</svg>
