<?xml version="1.0" encoding="utf-8"?>
<!-- Generator: Adobe Illustrator 19.0.0, SVG Export Plug-In . SVG Version: 6.00 Build 0)  -->
<svg version="1.1" id="clock" xmlns="http://www.w3.org/2000/svg" xmlns:xlink="http://www.w3.org/1999/xlink" x="0px" y="0px"
	 viewBox="3 43 506 416" style="enable-background:new 3 43 506 416;" xml:space="preserve">
<style type="text/css">
	.st0{stroke:#000000;stroke-width:2;stroke-miterlimit:10;}
	.st1{fill:none;stroke:#000000;stroke-width:8;stroke-miterlimit:10;}
	.st2{stroke:#000000;stroke-width:8;stroke-miterlimit:10;}
	.st3{font-family:'MyriadPro-Regular';}
	.st4{font-size:21px;}
</style>
<g id="clockOutline">
	<path id="XMLID_37_" class="st0" d="M261.3,449c40.9-18.8,81.8-37.7,122.7-56.3c8.9-4.3,22.6-6.7,26.6-16.4c9.7-22.1,17-45,25-67.3
		c4.8-12.7,9.7-25.3,14-38c1.9-5.7,6.7-13.2,7.3-19.1c0.3-4-1.9-7.5-3.5-11.3c-4.3-10.8-8.1-21.8-12.4-32.3
		c-9.4-24.8-18.8-49.5-28.3-74.3c-1.3-4-2.4-10-5.7-12.7c-3.2-2.7-9.7-4.3-13.2-5.9c-24.2-11-48.2-21.8-72.4-32.6
		c-18.8-8.3-38.5-20.2-58.1-26.1c-9.4-2.7-21,6.2-29.9,10c-25.7,11.6-51.3,23.2-77.4,34.8c-10.8,4.8-21.3,9.7-31.8,14.3
		c-3.8,1.6-10,3.2-12.7,5.9c-2.7,3.2-4.3,10-5.7,13.5c-4.6,11.3-8.6,22.9-13.2,34.2c-9.4,24.2-18.6,48.7-28.3,72.9
		c-1.3,3.8-3.8,7.3-3.5,11.3c0.3,5.9,5.1,13.5,7.3,18.8c10,25.8,19.9,51.7,29.9,77.8c3.8,9.7,6.7,28.3,15.1,34.7
		c5.7,4.3,14.3,6.5,20.5,9.7c12.1,5.7,24.2,11,36.3,16.7c24.2,11,48.7,22.3,72.9,33.1c4.6,1.9,8.9,4.3,13.5,6.2
		c4.3,1.9,7.5-4.3,3.8-6.2c-39-18-78.6-35.8-117.6-53.8c-7.5-3.5-15.6-8.3-23.4-10.8c-1.1-0.3-2.4-0.8-3.8-1.6
		c3.2,2.2,0.8,1.1,0-1.9c-7-22.1-17-43.6-25-65.4c-4.6-12.1-9.4-24-13.7-36.1c-2.4-6.7-6.7-14.3-8.3-21.8c-0.5-3.5-0.5,2.2,0-0.5
		c0.5-2.4,1.9-5.4,3.2-7.8c4-10,7.5-19.7,11.6-29.6c9.7-24.5,18.8-49.3,28.5-73.8c1.6-4.6,3.2-11.6,5.9-15.1c-2.7,4-0.3,1.1,1.6,0.5
		c3.2-0.8,6.5-2.7,9.7-4.3c23.1-10.5,45.8-20.5,68.9-31c19.4-8.6,42-15.9,60.3-26.9c1.1-0.8,5.7-1.6,1.9-1.6s0.5,0.8,1.6,1.6
		c7,4.3,15.9,7,23.1,10.5c25,11.3,49.8,22.6,74.8,33.6c13.7,6.2,31.8,11.3,44.4,19.9c-2.7-1.9-1.1-1.6,0,1.6c1.1,3.8,2.7,7.3,4.3,11
		c4.3,11,8.3,22.1,12.7,33.1c8.9,23.4,17.8,46.8,26.6,70.3c0.8,2.2,2.2,4.8,2.7,7.3c0.5,2.4,0.5-2.4-0.3,0.8
		c-1.6,7.3-5.7,14.8-8.1,22.1c-9.7,25.6-19.1,51.1-28.8,76.4c-3.2,8.1-7,16.4-9.4,24.5c-0.8,3.2-2.4,3.5,0.3,1.3
		c-1.3,0.8-3.5,1.6-4.8,2.2c-20.5,7.8-40.6,18.6-60.6,28c-23.1,10.8-46.3,21-69.2,31.8c-4,1.6-7.8,3.8-11.8,5.4
		C253.5,444.7,257.2,450.9,261.3,449z"/>
</g>
<g id="clockInside">
	<line id="minute" class="st1" x1="259" y1="150.3" x2="259" y2="257.6"/>
	<line id="hour" class="st1" x1="258" y1="254.6" x2="201.5" y2="219.3"/>
	<circle id="circle" class="st2" cx="259" cy="253.6" r="8.5"/>
</g>
<text transform="matrix(1 0 0 1 250 96)" class="st3 st4">XII</text>
<text transform="matrix(1 0 0 1 250 430)" class="st3 st4">VI</text>
<text transform="matrix(1 0 0 1 421 257.6423)" class="st3 st4">III</text>
<text transform="matrix(1 0 0 1 80.5 257.6421)" class="st3 st4">IX</text>
</svg>
