<?xml version="1.0" encoding="utf-8"?>
<!-- Generator: Adobe Illustrator 21.0.0, SVG Export Plug-In . SVG Version: 6.00 Build 0)  -->
<svg version="1.1" id="infinitesymbol" xmlns="http://www.w3.org/2000/svg" xmlns:xlink="http://www.w3.org/1999/xlink" x="0px"
	 y="0px" viewBox="0 0 249.7 122.9" style="enable-background:new 0 0 249.7 122.9;" xml:space="preserve">
<path id="right" d="M72.9,115.6c0,0,22.1,8.5,53.3-46.7c1.5-2.7,3.1-5.6,4.7-8.7c0,0,1.5-2.5,3.8-6.3c6.4-10.2,19.5-29.8,28.7-35.1
	c0,0,20.6-14.8,52.5,10.9c0,0,11.4,8.8,21.3,24.3c2.9,4.4,5.6,9.5,7.9,15c1.5,3.5,2.8,7.3,3.8,11.3c0,0,9,43.2-36.4,35.9
	c0,0-25.8-5.3-48.6-24.6c2.2,1.1,53.9,25.7,60,4c0,0,3.8-11-4.9-26.6c-2.6-4.6-6.2-9.7-11.4-15c-1.7-1.8-3.6-3.6-5.7-5.4
	c0,0-25.2-25.9-44.7,5.4c-0.4,0.6-0.8,1.3-1.2,2c0,0-3.4,5.9-7.3,13c-3.1,5.6-6.5,11.8-8.8,16.3c0,0-11.2,23-22.7,30.4
	C117.2,115.6,96.4,132,72.9,115.6z"/>
<path id="left" d="M33.3,92.2c0,0-10.8-8.5-20.4-23.3c-2.9-4.4-5.7-9.4-8-15C3.3,50,1.8,45.8,0.7,41.4c0,0-8.6-43.3,36.7-35.6
	c0,0,25.8,5.6,48.4,25c-2.3-1.1-53.7-26.1-59.9-4.5c0,0-4.1,11.4,5.2,27.7c2.7,4.6,6.4,9.7,11.6,15c1.5,1.5,3,3,4.8,4.5
	c0,0,24.7,25.8,44.4-4.5c0.5-0.8,1-1.6,1.5-2.5c0,0,3.3-5.7,7.2-12.4c3.2-5.7,6.8-12,9.2-16.7c0,0,11.4-22.9,23-30.2
	c0,0,21-16.2,44.3,0.4c0,0-22.1-8.7-53.9,46.5c-1.5,2.6-3.1,5.4-4.6,8.4c0,0-1.6,2.6-4.1,6.6c-6.6,10.2-19.6,29.4-28.8,34.5
	C85.7,103.5,65,118.1,33.3,92.2z"/>
</svg>
