<?xml version="1.0" encoding="utf-8"?>
<!-- Generator: Adobe Illustrator 19.0.0, SVG Export Plug-In . SVG Version: 6.00 Build 0)  -->
<svg version="1.1" id="fullControl" xmlns="http://www.w3.org/2000/svg" xmlns:xlink="http://www.w3.org/1999/xlink" x="0px"
	 y="0px" viewBox="131.1 228 233.3 70.2" style="enable-background:new 131.1 228 233.3 70.2;" xml:space="preserve">
<style type="text/css">
	.circlpath{stroke:#000000;stroke-width:2;stroke-miterlimit:10;}

	.immcirclaoder {
		animation: bounce 2s infinite linear;
	}

	#two {
		animation-delay: .5s;
	}
	#three {
		animation-delay: 1s;
	}

	@keyframes bounce {
		33%  {
			transform: translateY(-40%);
		}

		66% {
			transform: translateY(40%);
		}

		100% {
			transform: translateY(0%);
		}
	}
</style>
<g id="three" class='immcirclaoder'>
	<path id="XMLID_8_" class="circlpath" d="M330.3,296.7c6.9-3.2,13.8-6.4,20.8-9.5c1.5-0.7,3.8-1.1,4.5-2.8c1.6-3.7,2.9-7.6,4.2-11.4
		c0.8-2.1,1.6-4.3,2.4-6.4c0.3-1,1.1-2.2,1.2-3.2c0.1-0.7-0.3-1.3-0.6-1.9c-0.7-1.8-1.4-3.7-2.1-5.5c-1.6-4.2-3.2-8.4-4.8-12.6
		c-0.2-0.7-0.4-1.7-1-2.1c-0.5-0.5-1.6-0.7-2.2-1c-4.1-1.9-8.2-3.7-12.3-5.5c-3.2-1.4-6.5-3.4-9.8-4.4c-1.6-0.5-3.5,1-5.1,1.7
		c-4.4,2-8.7,3.9-13.1,5.9c-1.8,0.8-3.6,1.6-5.4,2.4c-0.6,0.3-1.7,0.5-2.1,1c-0.5,0.5-0.7,1.7-1,2.3c-0.8,1.9-1.4,3.9-2.2,5.8
		c-1.6,4.1-3.1,8.2-4.8,12.3c-0.2,0.6-0.6,1.2-0.6,1.9c0.1,1,0.9,2.3,1.2,3.2c1.7,4.4,3.4,8.7,5.1,13.2c0.6,1.6,1.1,4.8,2.5,5.9
		c1,0.7,2.4,1.1,3.5,1.6c2,1,4.1,1.9,6.1,2.8c4.1,1.9,8.2,3.8,12.3,5.6c0.8,0.3,1.5,0.7,2.3,1c0.7,0.3,1.3-0.7,0.6-1
		c-6.6-3.1-13.3-6.1-19.9-9.1c-1.3-0.6-2.7-1.4-4-1.8c-0.2-0.1-0.4-0.1-0.6-0.3c0.5,0.4,0.1,0.2,0-0.3c-1.2-3.7-2.9-7.4-4.2-11.1
		c-0.8-2-1.6-4-2.3-6.1c-0.4-1.1-1.1-2.4-1.4-3.7c-0.1-0.6-0.1,0.4,0-0.1c0.1-0.4,0.3-0.9,0.5-1.3c0.7-1.7,1.3-3.3,2-5
		c1.6-4.2,3.2-8.3,4.8-12.5c0.3-0.8,0.5-2,1-2.5c-0.5,0.7-0.1,0.2,0.3,0.1c0.5-0.1,1.1-0.5,1.6-0.7c3.9-1.8,7.8-3.5,11.7-5.2
		c3.3-1.4,7.1-2.7,10.2-4.6c0.2-0.1,1-0.3,0.3-0.3c-0.6,0,0.1,0.1,0.3,0.3c1.2,0.7,2.7,1.2,3.9,1.8c4.2,1.9,8.4,3.8,12.7,5.7
		c2.3,1,5.4,1.9,7.5,3.4c-0.5-0.3-0.2-0.3,0,0.3c0.2,0.6,0.5,1.2,0.7,1.9c0.7,1.9,1.4,3.7,2.1,5.6c1.5,4,3,7.9,4.5,11.9
		c0.1,0.4,0.4,0.8,0.5,1.2c0.1,0.4,0.1-0.4-0.1,0.1c-0.3,1.2-1,2.5-1.4,3.7c-1.6,4.3-3.2,8.7-4.9,12.9c-0.5,1.4-1.2,2.8-1.6,4.2
		c-0.1,0.5-0.4,0.6,0.1,0.2c-0.2,0.1-0.6,0.3-0.8,0.4c-3.5,1.3-6.9,3.1-10.2,4.7c-3.9,1.8-7.8,3.5-11.7,5.4c-0.7,0.3-1.3,0.6-2,0.9
		C329,296,329.6,297,330.3,296.7z"/>
	<path id="XMLID_6_" class="circlpath" d="M330.3,284.9c-4.5-2-9-4-13.5-6c-0.8-0.4-1.7-0.9-2.5-1.1c-0.7-0.2-0.2,0.4-0.4-0.4
		c-0.7-2.5-1.9-4.9-2.8-7.3c-0.8-2.1-2.1-4.5-2.5-6.7c-0.1-0.5-0.1,0.1-0.1,0c0.1-0.2,0.2-0.5,0.3-0.7c0.5-1.1,0.9-2.4,1.3-3.5
		c1-2.8,2.1-5.7,3.2-8.5c0.2-0.5,0.3-1.3,0.7-1.8c-0.6,0.8,1-0.2,1.3-0.4c2.7-1.2,5.4-2.4,8.1-3.6c2-0.9,4.9-1.6,6.6-3
		c0.6-0.4-0.2-0.4,0.2-0.1c0.7,0.6,2,0.9,2.8,1.2c2.9,1.3,5.8,2.5,8.7,3.9c1.1,0.5,2.3,1,3.4,1.5c0.4,0.2,1.9,1.1,1.3,0.4
		c0.3,0.4,0.5,1.3,0.7,1.8c0.5,1.4,1.1,2.8,1.6,4.2c1,2.5,1.9,5.2,2.9,7.7c0.1,0.2,0.3,0.5,0.3,0.8c0.1,0.3,0.1-0.5-0.1,0
		c-0.1,0.9-0.7,1.8-1,2.5c-1.2,3.2-2.4,6.3-3.6,9.5c-0.2,0.6-0.4,1.7-0.9,2.3c0.5-0.6,0.1-0.2-0.2-0.1c-0.4,0.1-0.9,0.4-1.3,0.6
		c-5,2.3-10,4.6-14.9,6.9c-0.7,0.3-0.1,1.3,0.6,1c4.8-2.2,9.6-4.4,14.4-6.6c1.1-0.5,2.2-0.7,2.8-1.9c1.2-2.4,2-5.2,2.9-7.8
		c0.5-1.4,1-2.8,1.6-4.2c0.2-0.7,0.8-1.6,0.9-2.3c0.1-1.5-1.3-3.7-1.8-5.1c-1.1-2.9-2.2-5.8-3.3-8.6c-0.5-1.4-0.7-1.6-2.1-2.2
		c-2.9-1.3-5.7-2.5-8.6-3.9c-1.4-0.6-2.7-1.2-4.1-1.9c-0.8-0.3-1.8-1-2.7-1.2c-1.1-0.2-2.4,0.7-3.5,1.2c-2.9,1.3-6,2.7-8.9,4
		c-1.2,0.5-2.3,1-3.5,1.6c-0.4,0.2-1.2,0.4-1.6,0.8c-0.3,0.3-0.5,1.1-0.6,1.5c-0.5,1.3-1,2.7-1.4,3.9c-1,2.8-2.1,5.7-3.2,8.5
		c-0.5,1.4-0.1,2,0.4,3.4c1.3,3.3,2.5,6.7,3.9,10.1c0.6,1.5,0.7,2.8,2.2,3.5c5.2,2.4,10.5,4.6,15.7,7
		C330.4,286.3,331,285.3,330.3,284.9z"/>
</g>
<g id="two" class='immcirclaoder'>
	<path id="XMLID_4_" class="circlpath" d="M248.4,296.9c6.9-3.2,13.8-6.4,20.8-9.5c1.5-0.7,3.8-1.1,4.5-2.8c1.6-3.7,2.9-7.6,4.2-11.4
		c0.8-2.1,1.6-4.3,2.4-6.4c0.3-1,1.1-2.2,1.2-3.2c0.1-0.7-0.3-1.3-0.6-1.9c-0.7-1.8-1.4-3.7-2.1-5.5c-1.6-4.2-3.2-8.4-4.8-12.6
		c-0.2-0.7-0.4-1.7-1-2.1c-0.5-0.5-1.6-0.7-2.2-1c-4.1-1.9-8.2-3.7-12.3-5.5c-3.2-1.4-6.5-3.4-9.8-4.4c-1.6-0.5-3.5,1-5.1,1.7
		c-4.4,2-8.7,3.9-13.1,5.9c-1.8,0.8-3.6,1.6-5.4,2.4c-0.6,0.3-1.7,0.5-2.1,1c-0.5,0.5-0.7,1.7-1,2.3c-0.8,1.9-1.4,3.9-2.2,5.8
		c-1.6,4.1-3.1,8.2-4.8,12.3c-0.2,0.6-0.6,1.2-0.6,1.9c0.1,1,0.9,2.3,1.2,3.2c1.7,4.4,3.4,8.7,5.1,13.2c0.6,1.6,1.1,4.8,2.5,5.9
		c1,0.7,2.4,1.1,3.5,1.6c2,1,4.1,1.9,6.1,2.8c4.1,1.9,8.2,3.8,12.3,5.6c0.8,0.3,1.5,0.7,2.3,1c0.7,0.3,1.3-0.7,0.6-1
		c-6.6-3.1-13.3-6.1-19.9-9.1c-1.3-0.6-2.7-1.4-4-1.8c-0.2-0.1-0.4-0.1-0.6-0.3c0.5,0.4,0.1,0.2,0-0.3c-1.2-3.7-2.9-7.4-4.2-11.1
		c-0.8-2-1.6-4-2.3-6.1c-0.4-1.1-1.1-2.4-1.4-3.7c-0.1-0.6-0.1,0.4,0-0.1c0.1-0.4,0.3-0.9,0.5-1.3c0.7-1.7,1.3-3.3,2-5
		c1.6-4.2,3.2-8.3,4.8-12.5c0.3-0.8,0.5-2,1-2.5c-0.5,0.7-0.1,0.2,0.3,0.1c0.5-0.1,1.1-0.5,1.6-0.7c3.9-1.8,7.8-3.5,11.7-5.2
		c3.3-1.4,7.1-2.7,10.2-4.6c0.2-0.1,1-0.3,0.3-0.3c-0.6,0,0.1,0.1,0.3,0.3c1.2,0.7,2.7,1.2,3.9,1.8c4.2,1.9,8.4,3.8,12.7,5.7
		c2.3,1,5.4,1.9,7.5,3.4c-0.5-0.3-0.2-0.3,0,0.3c0.2,0.6,0.5,1.2,0.7,1.9c0.7,1.9,1.4,3.7,2.1,5.6c1.5,4,3,7.9,4.5,11.9
		c0.1,0.4,0.4,0.8,0.5,1.2c0.1,0.4,0.1-0.4-0.1,0.1c-0.3,1.2-1,2.5-1.4,3.7c-1.6,4.3-3.2,8.7-4.9,12.9c-0.5,1.4-1.2,2.8-1.6,4.2
		c-0.1,0.5-0.4,0.6,0.1,0.2c-0.2,0.1-0.6,0.3-0.8,0.4c-3.5,1.3-6.9,3.1-10.2,4.7c-3.9,1.8-7.8,3.5-11.7,5.4c-0.7,0.3-1.3,0.6-2,0.9
		C247.1,296.2,247.7,297.2,248.4,296.9z"/>
	<path id="XMLID_2_" class="circlpath" d="M248.4,285.1c-4.5-2-9-4-13.5-6c-0.8-0.4-1.7-0.9-2.5-1.1c-0.7-0.2-0.2,0.4-0.4-0.4
		c-0.7-2.5-1.9-4.9-2.8-7.3c-0.8-2.1-2.1-4.5-2.5-6.7c-0.1-0.5-0.1,0.1-0.1,0c0.1-0.2,0.2-0.5,0.3-0.7c0.5-1.1,0.9-2.4,1.3-3.5
		c1-2.8,2.1-5.7,3.2-8.5c0.2-0.5,0.3-1.3,0.7-1.8c-0.6,0.8,1-0.2,1.3-0.4c2.7-1.2,5.4-2.4,8.1-3.6c2-0.9,4.9-1.6,6.6-3
		c0.6-0.4-0.2-0.4,0.2-0.1c0.7,0.6,2,0.9,2.8,1.2c2.9,1.3,5.8,2.5,8.7,3.9c1.1,0.5,2.3,1,3.4,1.5c0.4,0.2,1.9,1.1,1.3,0.4
		c0.3,0.4,0.5,1.3,0.7,1.8c0.5,1.4,1.1,2.8,1.6,4.2c1,2.5,1.9,5.2,2.9,7.7c0.1,0.2,0.3,0.5,0.3,0.8c0.1,0.3,0.1-0.5-0.1,0
		c-0.1,0.9-0.7,1.8-1,2.5c-1.2,3.2-2.4,6.3-3.6,9.5c-0.2,0.6-0.4,1.7-0.9,2.3c0.5-0.6,0.1-0.2-0.2-0.1c-0.4,0.1-0.9,0.4-1.3,0.6
		c-5,2.3-10,4.6-14.9,6.9c-0.7,0.3-0.1,1.3,0.6,1c4.8-2.2,9.6-4.4,14.4-6.6c1.1-0.5,2.2-0.7,2.8-1.9c1.2-2.4,2-5.2,2.9-7.8
		c0.5-1.4,1-2.8,1.6-4.2c0.2-0.7,0.8-1.6,0.9-2.3c0.1-1.5-1.3-3.7-1.8-5.1c-1.1-2.9-2.2-5.8-3.3-8.6c-0.5-1.4-0.7-1.6-2.1-2.2
		c-2.9-1.3-5.7-2.5-8.6-3.9c-1.4-0.6-2.7-1.2-4.1-1.9c-0.8-0.3-1.8-1-2.7-1.2c-1.1-0.2-2.4,0.7-3.5,1.2c-2.9,1.3-6,2.7-8.9,4
		c-1.2,0.5-2.3,1-3.5,1.6c-0.4,0.2-1.2,0.4-1.6,0.8c-0.3,0.3-0.5,1.1-0.6,1.5c-0.5,1.3-1,2.7-1.4,3.9c-1,2.8-2.1,5.7-3.2,8.5
		c-0.5,1.4-0.1,2,0.4,3.4c1.3,3.3,2.5,6.7,3.9,10.1c0.6,1.5,0.7,2.8,2.2,3.5c5.2,2.4,10.5,4.6,15.7,7
		C248.5,286.5,249.1,285.5,248.4,285.1z"/>
</g>
<g id="one" class='immcirclaoder'>
	<path id="XMLID_73_" class="circlpath" d="M166,295.5c6.9-3.2,13.8-6.4,20.8-9.5c1.5-0.7,3.8-1.1,4.5-2.8c1.6-3.7,2.9-7.6,4.2-11.4
		c0.8-2.1,1.6-4.3,2.4-6.4c0.3-1,1.1-2.2,1.2-3.2c0.1-0.7-0.3-1.3-0.6-1.9c-0.7-1.8-1.4-3.7-2.1-5.5c-1.6-4.2-3.2-8.4-4.8-12.6
		c-0.2-0.7-0.4-1.7-1-2.1c-0.5-0.5-1.6-0.7-2.2-1c-4.1-1.9-8.2-3.7-12.3-5.5c-3.2-1.4-6.5-3.4-9.8-4.4c-1.6-0.5-3.5,1-5.1,1.7
		c-4.4,2-8.7,3.9-13.1,5.9c-1.8,0.8-3.6,1.6-5.4,2.4c-0.6,0.3-1.7,0.5-2.1,1c-0.5,0.5-0.7,1.7-1,2.3c-0.8,1.9-1.4,3.9-2.2,5.8
		c-1.6,4.1-3.1,8.2-4.8,12.3c-0.2,0.6-0.6,1.2-0.6,1.9c0.1,1,0.9,2.3,1.2,3.2c1.7,4.4,3.4,8.7,5.1,13.2c0.6,1.6,1.1,4.8,2.5,5.9
		c1,0.7,2.4,1.1,3.5,1.6c2,1,4.1,1.9,6.1,2.8c4.1,1.9,8.2,3.8,12.3,5.6c0.8,0.3,1.5,0.7,2.3,1c0.7,0.3,1.3-0.7,0.6-1
		c-6.6-3.1-13.3-6.1-19.9-9.1c-1.3-0.6-2.7-1.4-4-1.8c-0.2-0.1-0.4-0.1-0.6-0.3c0.5,0.4,0.1,0.2,0-0.3c-1.2-3.7-2.9-7.4-4.2-11.1
		c-0.8-2-1.6-4-2.3-6.1c-0.4-1.1-1.1-2.4-1.4-3.7c-0.1-0.6-0.1,0.4,0-0.1c0.1-0.4,0.3-0.9,0.5-1.3c0.7-1.7,1.3-3.3,2-5
		c1.6-4.2,3.2-8.3,4.8-12.5c0.3-0.8,0.5-2,1-2.5c-0.5,0.7-0.1,0.2,0.3,0.1c0.5-0.1,1.1-0.5,1.6-0.7c3.9-1.8,7.8-3.5,11.7-5.2
		c3.3-1.4,7.1-2.7,10.2-4.6c0.2-0.1,1-0.3,0.3-0.3s0.1,0.1,0.3,0.3c1.2,0.7,2.7,1.2,3.9,1.8c4.2,1.9,8.4,3.8,12.7,5.7
		c2.3,1,5.4,1.9,7.5,3.4c-0.5-0.3-0.2-0.3,0,0.3c0.2,0.6,0.5,1.2,0.7,1.9c0.7,1.9,1.4,3.7,2.1,5.6c1.5,4,3,7.9,4.5,11.9
		c0.1,0.4,0.4,0.8,0.5,1.2s0.1-0.4-0.1,0.1c-0.3,1.2-1,2.5-1.4,3.7c-1.6,4.3-3.2,8.7-4.9,12.9c-0.5,1.4-1.2,2.8-1.6,4.2
		c-0.1,0.5-0.4,0.6,0.1,0.2c-0.2,0.1-0.6,0.3-0.8,0.4c-3.5,1.3-6.9,3.1-10.2,4.7c-3.9,1.8-7.8,3.5-11.7,5.4c-0.7,0.3-1.3,0.6-2,0.9
		C164.7,294.8,165.3,295.8,166,295.5z"/>
	<path id="XMLID_67_" class="circlpath" d="M166,283.7c-4.5-2-9-4-13.5-6c-0.8-0.4-1.7-0.9-2.5-1.1c-0.7-0.2-0.2,0.4-0.4-0.4
		c-0.7-2.5-1.9-4.9-2.8-7.3c-0.8-2.1-2.1-4.5-2.5-6.7c-0.1-0.5-0.1,0.1-0.1,0c0.1-0.2,0.2-0.5,0.3-0.7c0.5-1.1,0.9-2.4,1.3-3.5
		c1-2.8,2.1-5.7,3.2-8.5c0.2-0.5,0.3-1.3,0.7-1.8c-0.6,0.8,1-0.2,1.3-0.4c2.7-1.2,5.4-2.4,8.1-3.6c2-0.9,4.9-1.6,6.6-3
		c0.6-0.4-0.2-0.4,0.2-0.1c0.7,0.6,2,0.9,2.8,1.2c2.9,1.3,5.8,2.5,8.7,3.9c1.1,0.5,2.3,1,3.4,1.5c0.4,0.2,1.9,1.1,1.3,0.4
		c0.3,0.4,0.5,1.3,0.7,1.8c0.5,1.4,1.1,2.8,1.6,4.2c1,2.5,1.9,5.2,2.9,7.7c0.1,0.2,0.3,0.5,0.3,0.8c0.1,0.3,0.1-0.5-0.1,0
		c-0.1,0.9-0.7,1.8-1,2.5c-1.2,3.2-2.4,6.3-3.6,9.5c-0.2,0.6-0.4,1.7-0.9,2.3c0.5-0.6,0.1-0.2-0.2-0.1c-0.4,0.1-0.9,0.4-1.3,0.6
		c-5,2.3-10,4.6-14.9,6.9c-0.7,0.3-0.1,1.3,0.6,1c4.8-2.2,9.6-4.4,14.4-6.6c1.1-0.5,2.2-0.7,2.8-1.9c1.2-2.4,2-5.2,2.9-7.8
		c0.5-1.4,1-2.8,1.6-4.2c0.2-0.7,0.8-1.6,0.9-2.3c0.1-1.5-1.3-3.7-1.8-5.1c-1.1-2.9-2.2-5.8-3.3-8.6c-0.5-1.4-0.7-1.6-2.1-2.2
		c-2.9-1.3-5.7-2.5-8.6-3.9c-1.4-0.6-2.7-1.2-4.1-1.9c-0.8-0.3-1.8-1-2.7-1.2c-1.1-0.2-2.4,0.7-3.5,1.2c-2.9,1.3-6,2.7-8.9,4
		c-1.2,0.5-2.3,1-3.5,1.6c-0.4,0.2-1.2,0.4-1.6,0.8c-0.3,0.3-0.5,1.1-0.6,1.5c-0.5,1.3-1,2.7-1.4,3.9c-1,2.8-2.1,5.7-3.2,8.5
		c-0.5,1.4-0.1,2,0.4,3.4c1.3,3.3,2.5,6.7,3.9,10.1c0.6,1.5,0.7,2.8,2.2,3.5c5.2,2.4,10.5,4.6,15.7,7
		C166.1,285.1,166.7,284,166,283.7z"/>
</g>
</svg>
