<?xml version="1.0" encoding="utf-8"?>
<!-- Generator: Adobe Illustrator 19.0.0, SVG Export Plug-In . SVG Version: 6.00 Build 0)  -->
<svg version="1.1" id="loading" xmlns="http://www.w3.org/2000/svg" xmlns:xlink="http://www.w3.org/1999/xlink" x="0px" y="0px"
	 viewBox="0 0 309.7 309.7" style="enable-background:new 0 0 309.7 309.7;" xml:space="preserve">
<style type="text/css">
	.circlpath{fill:none;stroke:white;stroke-miterlimit:10;}
	<!-- .circlpath{stroke:#000000;stroke-width:2;stroke-miterlimit:10;} -->
	#loading {
		width: 100px;
		overflow: visible;
	}
	.circlpath:nth-child(odd) {
		animation: spinner 1s infinite linear;
		transform-origin: 50% 50%;
	}
	.circlpath:nth-child(even) {
		animation: spinner-reverse 1s infinite linear;
		transform-origin: 50% 50%;
	}

	#two {
		animation-delay: .5s;
	}
	#four {
		animation-delay: .5s;
	}
	
	@keyframes spinner {
		33%  {

			transform: scale(1) rotate(0deg);
		}

		66% {
			transform: scale(1.4) rotate(180deg);
			stroke: #00AEEF;
		}

		100% {
			transform: scale(1) rotate(360deg);
		}
	}

	@keyframes spinner-reverse {
		33%  {

			transform: scale(1) rotate(0deg);
		}

		66% {
			transform: scale(1.6) rotate(-180deg);
			stroke: red;
		}

		100% {
			transform: scale(1) rotate(-360deg);
		}
	}

</style>
<polygon id="five" class="circlpath" points="271,52.7 309.2,154.9 271.7,255.9 154.8,309.2 39.2,257.1 0.5,154.9 38.6,53.2 154.8,0.5 "/>
<polygon id="four" class="circlpath" points="245.2,81.1 273.5,156.9 245.7,231.9 159,271.4 73.2,232.8 44.5,156.9 72.8,81.5 159,42.4 "/>
<polygon id="three" class="circlpath" points="214.7,104.1 233.7,154.9 215.1,205.1 157,231.6 99.5,205.7 80.2,154.9 99.1,104.3 157,78.1 
	"/>
<polygon id="two" class="circlpath" points="193.9,121.3 206.4,154.7 194.1,187.8 155.8,205.2 118,188.2 105.3,154.7 117.8,121.5 
	155.8,104.2 "/>
<polygon id="one" class="circlpath" points="176.1,136.9 182.8,154.7 176.2,172.3 155.8,181.6 135.7,172.6 128.9,154.7 135.6,137 
	155.8,127.8 "/>
</svg>
