<?xml version="1.0" encoding="utf-8"?>
<!-- Generator: Adobe Illustrator 19.0.0, SVG Export Plug-In . SVG Version: 6.00 Build 0)  -->
<svg version="1.1" id="loadersvg" xmlns="http://www.w3.org/2000/svg" xmlns:xlink="http://www.w3.org/1999/xlink" x="0px" y="0px"
	 viewBox="120.9 138.2 251.8 250.9" style="enable-background:new 120.9 138.2 251.8 250.9;" xml:space="preserve">
<style type="text/css">
	.loaderinner{
		stroke:white !important;
		stroke-width:2;
		stroke-miterlimit:10;
		animation: anim 5s infinite linear;
		transform-origin: 50% 50%;
	}
	#twoloader {
		animation-delay: .5s;
	}
	#threeloader {
		animation-delay: 1s;
	}
	@keyframes anim {
		to {
			transform: rotateZ(360deg);
		}
	}
</style>
<g id="one">
	<g id="XMLID_69_">
		<path id="oneloader" class="loaderinner" d="M248.2,387.2c25.8-11.9,51.6-23.8,77.5-35.5c5.6-2.7,14.3-4.2,16.8-10.4
			c6.1-13.9,10.7-28.4,15.8-42.5c3.1-8,6.1-16,8.8-23.9c1.2-3.6,4.2-8.3,4.6-12.1c0.2-2.5-1.2-4.8-2.2-7.1
			c-2.7-6.8-5.1-13.8-7.8-20.4c-5.9-15.6-11.9-31.3-17.8-46.9c-0.8-2.5-1.5-6.3-3.6-8c-2-1.7-6.1-2.7-8.3-3.7
			c-15.3-7-30.4-13.8-45.7-20.6c-11.9-5.3-24.3-12.7-36.7-16.5c-5.9-1.7-13.2,3.9-18.9,6.3c-16.3,7.3-32.4,14.6-48.9,21.9
			c-6.8,3.1-13.4,6.1-20,9c-2.4,1-6.3,2-8,3.7c-1.7,2-2.7,6.3-3.6,8.5c-2.9,7.1-5.4,14.4-8.3,21.6c-5.9,15.3-11.7,30.7-17.8,46
			c-0.8,2.4-2.4,4.6-2.2,7.1c0.2,3.7,3.2,8.5,4.6,11.9c6.3,16.3,12.6,32.6,18.9,49.1c2.4,6.1,4.2,17.8,9.5,21.9
			c3.6,2.7,9,4.1,12.9,6.1c7.6,3.6,15.3,7,22.9,10.5c15.3,7,30.7,14.1,46,20.9c2.9,1.2,5.6,2.7,8.5,3.9c2.7,1.2,4.8-2.7,2.4-3.9
			c-24.6-11.4-49.6-22.6-74.2-34c-4.8-2.2-9.9-5.3-14.8-6.8c-0.7-0.2-1.5-0.5-2.4-1c2,1.4,0.5,0.7,0-1.2
			c-4.4-13.9-10.7-27.5-15.8-41.3c-2.9-7.6-5.9-15.1-8.7-22.8c-1.5-4.2-4.2-9-5.3-13.8c-0.3-2.2-0.3,1.4,0-0.3
			c0.3-1.5,1.2-3.4,2-4.9c2.5-6.3,4.8-12.4,7.3-18.7c6.1-15.5,11.9-31.1,18-46.5c1-2.9,2-7.3,3.7-9.5c-1.7,2.5-0.2,0.7,1,0.3
			c2-0.5,4.1-1.7,6.1-2.7c14.6-6.6,28.9-12.9,43.5-19.5c12.2-5.4,26.5-10,38-17c0.7-0.5,3.6-1,1.2-1s0.3,0.5,1,1
			c4.4,2.7,10,4.4,14.6,6.6c15.8,7.1,31.4,14.3,47.2,21.2c8.7,3.9,20,7.1,28,12.6c-1.7-1.2-0.7-1,0,1c0.7,2.4,1.7,4.6,2.7,7
			c2.7,7,5.3,13.9,8,20.9c5.6,14.8,11.2,29.6,16.8,44.3c0.5,1.4,1.4,3.1,1.7,4.6s0.3-1.5-0.2,0.5c-1,4.6-3.6,9.3-5.1,13.9
			c-6.1,16.1-12.1,32.3-18.2,48.2c-2,5.1-4.4,10.4-5.9,15.5c-0.5,2-1.5,2.2,0.2,0.8c-0.8,0.5-2.2,1-3.1,1.4
			c-12.9,4.9-25.6,11.7-38.2,17.7c-14.6,6.8-29.2,13.2-43.7,20c-2.5,1-4.9,2.4-7.5,3.4C243.5,384.5,245.7,388.4,248.2,387.2z"/>
	</g>
</g>
<g id="two">
	<path id="twoloader" class="loaderinner" d="M248.4,343.3c-16.6-7.5-33.6-14.9-50.3-22.4c-3.1-1.4-6.5-3.4-9.5-4.2
		c-2.7-0.7-0.7,1.4-1.5-1.5c-2.7-9.2-7.1-18.3-10.5-27.2c-3.1-8-7.8-16.6-9.5-25c-0.3-1.7-0.3,0.2-0.3,0c0.2-0.8,0.7-2,1-2.7
		c2-4.2,3.4-8.8,4.9-13.1c3.9-10.5,8-21.1,11.9-31.6c0.7-2,1.2-4.9,2.5-6.8c-2.2,2.9,3.6-0.7,4.8-1.4c10-4.4,20-9,30.1-13.4
		c7.5-3.4,18.2-6.1,24.6-11.2c2.2-1.5-0.8-1.4,0.7-0.2c2.7,2.2,7.3,3.2,10.4,4.6c10.9,4.8,21.6,9.5,32.3,14.4
		c4.2,2,8.5,3.9,12.7,5.6c1.4,0.7,7,4.1,4.9,1.4c1.2,1.5,1.7,4.8,2.5,6.8c2,5.1,4.1,10.5,6.1,15.6c3.7,9.5,7.1,19.4,11,28.7
		c0.3,0.8,1,2,1,2.9c0.2,1,0.2-1.7-0.2,0c-0.5,3.2-2.5,6.6-3.7,9.5c-4.4,11.9-9,23.6-13.4,35.5c-0.8,2.4-1.5,6.5-3.2,8.5
		c1.7-2.4,0.3-0.7-0.8-0.3c-1.5,0.5-3.4,1.5-4.9,2.4c-18.7,8.5-37.2,17-55.7,25.6c-2.7,1.2-0.3,4.9,2.4,3.9
		c18-8.2,35.7-16.3,53.7-24.5c4.2-2,8.3-2.7,10.5-7c4.6-9,7.5-19.5,11-28.9c2-5.1,3.9-10.4,5.9-15.5c0.8-2.5,3.1-5.9,3.2-8.5
		c0.3-5.6-4.8-13.8-6.8-18.9c-4.1-10.7-8.3-21.6-12.4-32.1c-2-5.3-2.7-5.9-7.8-8.2c-10.7-4.8-21.2-9.5-31.9-14.4
		c-5.1-2.4-10.2-4.6-15.3-7c-3.1-1.2-6.8-3.9-10-4.4c-4.2-0.8-9,2.7-12.9,4.4c-11,4.9-22.3,10-33.3,14.9c-4.4,2-8.7,3.9-13.1,5.9
		c-1.5,0.7-4.4,1.4-5.9,2.9c-1.2,1.2-1.7,4.1-2.4,5.6c-1.7,4.8-3.7,9.9-5.4,14.6c-3.9,10.5-8,21.1-11.9,31.6
		c-2,5.3-0.5,7.3,1.5,12.6c4.8,12.4,9.5,24.8,14.4,37.5c2.2,5.6,2.7,10.5,8.2,12.9c19.4,9,39.1,17.3,58.6,26.2
		C248.7,348.4,250.9,344.5,248.4,343.3z"/>
</g>
<g id="three">
	<g id="XMLID_1_">
		<path id="threeloader" class="loaderinner" d="M248.2,309.5c-9.5-4.3-19.2-8.5-28.7-12.8c-1.8-0.8-3.7-1.9-5.4-2.4c-1.5-0.4-0.4,0.8-0.9-0.9
			c-1.5-5.2-4-10.4-6-15.5c-1.8-4.6-4.4-9.5-5.4-14.3c-0.2-1-0.2,0.1-0.2,0c0.1-0.5,0.4-1.1,0.6-1.5c1.1-2.4,1.9-5,2.8-7.5
			c2.2-6,4.6-12,6.8-18c0.4-1.1,0.7-2.8,1.4-3.9c-1.3,1.7,2.1-0.4,2.7-0.8c5.7-2.5,11.4-5.1,17.2-7.6c4.3-1.9,10.4-3.5,14-6.4
			c1.3-0.9-0.5-0.8,0.4-0.1c1.5,1.3,4.2,1.8,5.9,2.6c6.2,2.7,12.3,5.4,18.4,8.2c2.4,1.1,4.8,2.2,7.2,3.2c0.8,0.4,4,2.3,2.8,0.8
			c0.7,0.9,1,2.7,1.4,3.9c1.1,2.9,2.3,6,3.5,8.9c2.1,5.4,4,11.1,6.3,16.4c0.2,0.5,0.6,1.1,0.6,1.7c0.1,0.6,0.1-1-0.1,0
			c-0.3,1.8-1.4,3.8-2.1,5.4c-2.5,6.8-5.1,13.5-7.6,20.2c-0.5,1.4-0.9,3.7-1.8,4.8c1-1.4,0.2-0.4-0.5-0.2c-0.9,0.3-1.9,0.9-2.8,1.4
			c-10.7,4.8-21.2,9.7-31.8,14.6c-1.5,0.7-0.2,2.8,1.4,2.2c10.3-4.7,20.4-9.3,30.6-14c2.4-1.1,4.7-1.5,6-4
			c2.6-5.1,4.3-11.1,6.3-16.5c1.1-2.9,2.2-5.9,3.4-8.8c0.5-1.4,1.8-3.4,1.8-4.8c0.2-3.2-2.7-7.9-3.9-10.8
			c-2.3-6.1-4.7-12.3-7.1-18.3c-1.1-3-1.5-3.4-4.4-4.7c-6.1-2.7-12.1-5.4-18.2-8.2c-2.9-1.4-5.8-2.6-8.7-4c-1.8-0.7-3.9-2.2-5.7-2.5
			c-2.4-0.5-5.1,1.5-7.4,2.5c-6.3,2.8-12.7,5.7-19,8.5c-2.5,1.1-5,2.2-7.5,3.4c-0.9,0.4-2.5,0.8-3.4,1.7c-0.7,0.7-1,2.3-1.4,3.2
			c-1,2.7-2.1,5.6-3.1,8.3c-2.2,6-4.6,12-6.8,18c-1.1,3-0.3,4.2,0.9,7.2c2.7,7.1,5.4,14.1,8.2,21.4c1.3,3.2,1.5,6,4.7,7.4
			c11.1,5.1,22.3,9.9,33.4,14.9C248.4,312.4,249.6,310.2,248.2,309.5z"/>
	</g>
</g>

</svg>

