<?xml version="1.0" encoding="utf-8"?>
<!-- Generator: Adobe Illustrator 19.0.0, SVG Export Plug-In . SVG Version: 6.00 Build 0)  -->
<svg version="1.1" id="profitsvg" xmlns="http://www.w3.org/2000/svg" xmlns:xlink="http://www.w3.org/1999/xlink" x="0px" y="0px"
	 viewBox="0 0 476.6 378.9" style="enable-background:new 0 0 476.6 378.9;" xml:space="preserve">
<style type="text/css">
	#profitsvg {
		overflow: visible;
	}
	#profitstack path,line {
		stroke: white;
		fill: none;
	}
	#arrows .ar {
		stroke: white;
		fill: white;
	}
</style>
<g id="profitstack">
	<g id="XMLID_381_">
		<path id="XMLID_1515_" class="st0" d="M180.3,151.3c-5.3,0-10.5,0-15.8,0c-1.6,0-1.6,0-1.6-1.6c0-9.2-0.1-18.4-0.1-27.6
			c0-1.7,0-1.7,1.8-1.7c2.3,0,4.7,0,7-0.1c11.2-0.2,22.4-0.3,33.7-0.5c0.3,0,0.6,0,0.9,0c0.8-0.1,1.2,0.2,1.2,1.1c0,0.4,0,0.8,0,1.1
			c0,9.1,0.1,18.3,0.1,27.4c0,0.2,0,0.4,0,0.5c0,1.6,0,1.6-1.6,1.6C197.2,151.5,188.7,151.1,180.3,151.3z"/>
		<path id="XMLID_1514_" class="st0" d="M219.5,355.3c0,4.5,0,9,0,13.6c0,2.2,0.2,2.1-2.1,2.1c-9.3-0.1-18.5-0.2-27.8-0.3
			c-4.3,0-8.6,0-12.9,0c-1.6,0-1.7,0-1.7-1.5c0-9.3-0.1-18.5-0.1-27.8c0-1.5,0-1.5,1.7-1.6c6.2-0.1,12.3-0.1,18.6-0.2
			c7.4-0.1,15-0.2,22.4-0.3c1.8,0,1.8,0,1.8,1.7C219.5,345.8,219.5,350.5,219.5,355.3z"/>
		<path id="XMLID_1513_" class="st0" d="M129.8,355.2c0-4.7,0-9.4,0-14c0-1.7,0-1.7,1.8-1.7c5.7,0,11.4-0.1,17.1,0.1
			c8,0.2,16,0.2,23.9,0.2c1.7,0,1.7,0,1.7,1.8c0,9.1,0.1,18.3,0.1,27.4c0,0.3,0,0.6,0,0.9c0,0.6-0.3,0.8-0.9,0.8c-0.4,0-0.8,0-1.1,0
			c-8.7,0.1-17.3,0-25.9,0.2c-4.6,0.1-9.2,0.2-13.8,0.2c-0.5,0-1.1,0-1.7,0c-0.8,0.1-1.1-0.4-1.1-1.1c0-0.4,0-0.8,0-1.1
			C129.8,364.4,129.8,359.8,129.8,355.2z"/>
		<path id="XMLID_1512_" class="st0" d="M366.1,329.4c-6,0-12,0-18,0.1c-1.6,0-3.1,0.1-4.8,0.2c-1,0.1-1.3-0.3-1.2-1.3
			c0-0.5,0-0.8,0-1.3c0-9-0.1-17.9-0.1-26.8c0-0.2,0-0.5,0-0.8c0-1.8,0-1.8,1.7-1.7c3.7,0.2,7.4,0.2,11,0.2c9.6,0,19.2,0,28.8,0.1
			c0.5,0,0.8,0,1.3,0c1.3,0,1.4,0.1,1.4,1.3c0,2,0,4.1,0,6.1c0,7.1,0,14.2,0.1,21.3c0,0.5,0,0.8,0,1.3c0.1,0.8-0.3,1.1-1.1,1.1
			c-2.4,0-4.8,0-7.1,0c-4,0-8,0-12,0C366.1,329.4,366.1,329.4,366.1,329.4z"/>
		<path id="XMLID_1511_" class="st0" d="M407.9,297.9c6,0,12,0,18-0.1c1.5,0,3.1-0.2,4.6-0.2c0.8-0.1,1.2,0.3,1.1,1.1
			c0,0.4,0,0.8,0,1.1c0,9.2,0.1,18.4,0.1,27.6c0,0.3,0,0.6,0,0.9c0.1,0.8-0.3,1.2-1.2,1.2c-1.7-0.1-3.3-0.2-5-0.2
			c-12-0.1-23.9-0.1-35.9-0.1c-2.4,0-2.2,0.2-2.2-2.1c0-9-0.1-17.9-0.1-26.8c0-0.3,0-0.6,0-0.9c-0.1-0.9,0.4-1.2,1.2-1.2
			c2.5,0,5.1,0,7.5,0c3.9,0,7.8,0,11.7,0C407.9,298,407.9,297.9,407.9,297.9z"/>
		<path id="XMLID_1510_" class="st0" d="M166.2,225c0-4.8,0-9.4,0-14.2c0-1.7,0-1.7,1.7-1.7c11.7,0,23.5,0.4,35.3,0.3
			c2,0,3.9,0,5.9,0c1.3,0,1.3,0,1.4,1.3c0,2.9,0,5.9,0,8.8c0,6.1,0,12.3,0.1,18.4c0,0.4,0,0.8,0,1.1c0.1,1-0.4,1.3-1.3,1.2
			c-2.5,0-5.1,0-7.5,0.1c-11.1,0.2-22.2,0.3-33.3,0.5c-0.2,0-0.5,0-0.8,0c-1.4,0-1.4,0-1.4-1.5C166.2,234.6,166.2,229.8,166.2,225z"
			/>
		<path id="XMLID_1509_" class="st0" d="M305.4,285c-0.4-0.5-0.2-1.2-0.2-1.8c0-9.4-0.1-18.6-0.1-28c0-2.3,0-2,2-2
			c13.6,0.3,27.1,0.3,40.6,0.2c1.6,0,1.6,0,1.6,1.6c0,9.2,0.1,18.4,0.1,27.6c0,1.7,0,1.7-1.8,1.8c-7.4,0.1-14.7,0.2-22.1,0.2
			C318.9,285,312.1,285,305.4,285z"/>
		<path id="XMLID_1508_" class="st0" d="M368.6,253.4c5.4,0,10.7,0.1,16-0.1c2.6-0.1,5.3-0.2,7.9-0.2c2.1,0,2.1-0.3,2.1,2.1
			c0,8,0.1,16,0.1,23.9c0,1.3,0,2.6,0,3.8c0,1.9,0,1.9-2,1.9c-5.8,0-11.5-0.1-17.3-0.1c-1.8,0-3.7,0-5.5,0
			c-5.9-0.1-11.7-0.1-17.6-0.2c-0.4,0-0.8,0-1.1,0c-0.5,0-0.7-0.2-0.7-0.7c0-0.5,0-0.8,0-1.3c0-9-0.1-18-0.1-27c0-2-0.2-1.9,1.8-1.9
			c5.4,0,10.9,0,16.3-0.1C368.6,253.5,368.6,253.5,368.6,253.4z"/>
		<path id="XMLID_1507_" class="st0" d="M144.2,151.5c-4.9,0-9.8-0.1-14.7,0.1c-3.5,0.1-7,0.2-10.5,0.2c-1.4,0-1.5,0-1.5-1.5
			c0-9.6-0.1-19.2-0.1-28.7c0-1.5,0-1.5,1.5-1.5c8.4,0,16.8,0,25.2,0.2c5.2,0.2,10.4,0.1,15.6,0.2c0.3,0,0.6,0,0.9,0
			c0.6,0,0.9,0.2,0.9,0.8c0,0.5,0,0.8,0,1.3c0,8.9,0.1,17.8,0.1,26.7c0,0.3,0,0.6,0,0.9c0.1,0.9-0.4,1.2-1.2,1.2c-3.2,0-6.5,0-9.7,0
			c-2.2,0-4.4,0-6.6,0C144.2,151.4,144.2,151.4,144.2,151.5z"/>
		<path id="XMLID_1506_" class="st0" d="M225.1,296.8c5.1,0,10,0.1,15.1-0.1c3.5-0.2,7.1-0.2,10.7-0.2c1.4,0,1.5,0,1.5,1.5
			c0,9.6,0.1,19.1,0.1,28.7c0,1.5,0,1.5-1.7,1.5c-7.7,0-15.6,0-23.3-0.2c-5.9-0.2-11.7-0.1-17.6-0.2c-1.5,0-1.5,0-1.5-1.5
			c0-9.3-0.1-18.6-0.1-27.9c0-1.4,0-1.5,1.5-1.5c5.2,0,10.4,0,15.6-0.1C225.1,297,225.1,296.9,225.1,296.8z"/>
		<path id="XMLID_1505_" class="st0" d="M162.6,312.6c0-4.7,0-9.4,0-14c0-1.8,0-1.8,1.7-1.8c13.7,0.3,27.5,0.3,41.2,0.3
			c1.3,0,1.3,0,1.3,1.3c0,9.4,0.1,18.8,0.1,28.1c0,1.4,0,1.4-1.5,1.4c-2.7,0-5.4,0-8.1,0.1c-11,0.2-22.1,0.3-33.1,0.5
			c-1.5,0-1.5,0-1.5-1.5C162.7,322.1,162.7,317.3,162.6,312.6z"/>
		<path id="XMLID_1504_" class="st0" d="M310.1,356.2c0-4.7,0-9.3,0-14c0-1.6,0-1.6,1.6-1.6c5.5,0.1,11,0.2,16.6,0.2
			c8.1,0.1,16,0,24.1,0c2.1,0,2-0.2,2,2c0,9,0.1,17.9,0.1,26.8c0,0.2,0,0.2,0,0.4c0,1.7,0,1.8-1.7,1.8c-4.1,0-8.4,0-12.5,0.1
			c-9,0.1-18,0.2-27,0.4c-0.6,0-1.2,0-1.8,0c-0.9,0.1-1.2-0.4-1.2-1.2c0-0.4,0-0.8,0-1.1C310.1,365.4,310.1,360.8,310.1,356.2z"/>
		<path id="XMLID_1503_" class="st0" d="M372.1,340.7c4.8,0,9.7,0.1,14.5-0.1c3.8-0.2,7.6-0.2,11.4-0.2c1.6,0,1.6,0,1.6,1.6
			c0,9.4,0.1,18.9,0.1,28.3c0,1.7,0,1.7-1.8,1.7c-7.1,0-14.3,0.1-21.5-0.2c-6.2-0.2-12.5-0.1-18.7-0.2c-0.3,0-0.6,0-0.9,0
			c-1.2-0.1-1.2-0.1-1.3-1.4c0-0.2,0-0.5,0-0.8c0-8.9-0.1-17.8-0.1-26.7c0-0.2,0-0.5,0-0.8c0-1.4,0-1.4,1.5-1.4
			C362,340.7,367.2,340.7,372.1,340.7C372.1,340.8,372.1,340.7,372.1,340.7z"/>
		<path id="XMLID_1502_" class="st0" d="M207,180.4c0-4.8,0-9.4,0-14.2c0-1.7,0-1.8,1.7-1.8c5.6,0,11.1-0.1,16.7,0.1
			c7.7,0.2,15.6,0.2,23.3,0.2c0.5,0,1,0,1.5,0c0.7,0,1,0.3,1,1c0,0.4,0,0.8,0,1.1c0,9,0.1,17.9,0.1,26.8c0,2.1,0.2,2-2,2
			c-8.4,0.1-16.9,0-25.4,0.2c-5.1,0.2-10.2,0.2-15.3,0.2c-1.6,0-1.6,0-1.6-1.6C207,189.8,207,185.1,207,180.4z"/>
		<path id="XMLID_1501_" class="st0" d="M255.8,224.9c0,4.7,0,9.3,0,14c0,1.7,0,1.7-1.8,1.7c-6.1,0-12.1,0.1-18.2-0.2
			c-7.5-0.2-15-0.1-22.6-0.2c-1.6,0-1.7,0-1.7-1.5c0-9.3-0.1-18.5-0.1-27.8c0-1.5,0-1.5,1.6-1.6c9-0.1,17.9-0.1,26.8-0.2
			c4.6-0.1,9.2-0.2,13.8-0.2c2,0,2,0,2,2C255.7,215.6,255.7,220.3,255.8,224.9z"/>
		<path id="XMLID_1500_" class="st0" d="M296.5,180.2c0,4.4,0,8.8,0,13.3c0,2.8,0.3,2.5-2.6,2.5c-7.1-0.1-14.1-0.2-21.2-0.2
			c-6.1-0.1-12.3,0-18.4,0c-0.5,0-0.8,0-1.3,0c-0.5,0-0.8-0.2-0.8-0.8c0-0.4,0-0.8,0-1.1c0-9-0.1-18.2-0.1-27.2c0-0.3,0-0.6,0-0.9
			c-0.1-0.8,0.3-1,1-0.9c0.3,0,0.6,0,0.9,0c6.9-0.1,13.9,0,20.8-0.2c6.1-0.2,12.3-0.2,18.4-0.3c0.5,0,0.8,0,1.3,0
			c1.8,0,1.8,0,1.8,1.8c0,2.9,0,5.8,0,8.7C296.5,176.5,296.5,178.4,296.5,180.2z"/>
		<path id="XMLID_1499_" class="st0" d="M190.7,267.9c0,4.8,0,9.4,0,14.2c0,1.8,0,1.8-1.7,1.8c-5.2,0-10.4,0.1-15.6-0.1
			c-8.3-0.3-16.6-0.1-24.8-0.2c-2.1,0-2,0.2-2-2c0-9-0.1-18-0.1-27.1c0-0.2,0-0.2,0-0.4c0-1.5,0-1.5,1.5-1.5c4,0,8,0,12-0.1
			c4.5,0,9,0.1,13.6-0.2c5.1-0.2,10.2-0.2,15.3-0.2c1.8-0.1,1.8,0,1.8,1.8C190.7,258.6,190.7,263.3,190.7,267.9z"/>
		<path id="XMLID_1498_" class="st0" d="M101.1,268.2c0-4.8,0-9.4,0-14.2c0-1.6,0-1.6,1.6-1.6c13.7,0.1,27.5,0.4,41.2,0.3
			c1.4,0,1.4,0,1.5,1.5c0,9.3,0.1,18.6,0.1,27.9c0,1.5,0,1.5-1.5,1.5c-6.8,0.1-13.7,0.1-20.6,0.2c-6.5,0.1-13,0.2-19.5,0.3
			c-0.5,0-1,0-1.5,0c-0.9,0.1-1.2-0.4-1.2-1.2c0-3.2,0-6.4,0-9.6C101.2,271.5,101.1,269.8,101.1,268.2z"/>
		<path id="XMLID_1497_" class="st0" d="M134.2,225c0-5.1,0-10,0-15.1c0-1.8,0-1.8,1.7-1.8c8.2,0.5,16.4,0.5,24.6,0.8
			c1.3,0.1,2.6,0.1,3.8,0.1c0.9,0,1.2,0.4,1.2,1.2c0,2.8,0,5.5,0,8.3c0,6.7,0,13.5,0.1,20.2c0,2.2-0.2,2.1-1.8,2.1
			c-0.8,0-1.6,0.2-2.4,0.2c-6.5,0-13,0.5-19.5,0.5c-2,0.1-4.1,0.2-6.1,0.3c-1.5,0.1-1.5,0-1.5-1.5
			C134.2,235.3,134.2,230.1,134.2,225z"/>
		<path id="XMLID_1496_" class="st0" d="M304.4,269.2c0,4.8,0,9.4,0,14.2c0,1.8,0,1.8-1.8,1.8c-6.6,0-13.3,0.5-19.9,0.5
			c-2.6,0.1-5.3,0.2-7.9,0.4c-1.7,0.1-1.7,0.1-1.7-1.7c0-10.1-0.1-20.2-0.1-30.4c0-1.8,0-1.8,1.8-1.8c8.2,0.6,16.4,0.5,24.6,0.9
			c1.2,0.1,2.5,0.1,3.7,0c0.8,0,1.2,0.3,1.2,1.2c0,3,0,6,0,9C304.4,265.4,304.4,267.3,304.4,269.2z"/>
		<path id="XMLID_1495_" class="st0" d="M97.8,355.5c0-5.1,0-10.2,0-15.3c0-1.8,0-1.8,1.7-1.7c8.4,0.3,16.8,0.7,25.2,0.8
			c1.1,0,2.1,0.1,3.1,0.2c1.2,0.1,1.3,0.1,1.3,1.4c0,0.2,0,0.5,0,0.8c0,9.2,0.1,18.4,0.1,27.5c0,0.2,0,0.5,0,0.8
			c-0.1,1.2-0.1,1.2-1.4,1.4c-3.5,0.3-7.1,0.2-10.7,0.3c-5.4,0.2-10.9,0.3-16.3,0.7c-0.4,0-0.8,0-1.1,0c-1.8,0.1-1.8,0.1-1.8-1.8
			C97.8,365.6,97.8,360.5,97.8,355.5z"/>
		<path id="XMLID_1494_" class="st0" d="M310,313.9c0-5.2,0-10.4,0-15.6c0-1.5,0-1.4,1.5-1.3c3.5,0.3,6.8,0.2,10.3,0.5
			c5.9,0.3,11.9,0.3,17.8,0.5c1.8,0,1.8,0,1.8,1.7c0,9.5,0.1,19,0.1,28.5c0,1.7,0,1.7-1.7,1.8c-5.9,0.2-11.7,0.3-17.6,0.5
			c-3.6,0.2-7.2,0.4-10.8,0.6c-0.8,0.1-1.2-0.1-1.2-0.9c0-0.5,0-0.8,0-1.3C310,323.7,310,318.8,310,313.9z"/>
		<path id="XMLID_1493_" class="st0" d="M239.3,135.7c0,5,0,9.9,0,14.9c0,2.1,0.3,2.1-2.1,1.9c-5.9-0.3-11.9-0.5-17.8-0.7
			c-3.2-0.1-6.5-0.2-9.7-0.3c-1.6-0.1-1.6-0.1-1.6-1.6c0-7.6-0.1-15.2-0.1-22.8c0-2,0-4.1,0-6.1c0-0.8,0.2-1.3,1.2-1.3
			c0.5,0,1.1-0.2,1.6-0.2c4.4-0.1,9-0.2,13.4-0.4c4.5-0.2,9-0.5,13.6-0.5c1.5,0,1.5,0,1.5,1.5C239.3,125.4,239.3,130.6,239.3,135.7z
			"/>
		<path id="XMLID_1492_" class="st0" d="M463.9,313.5c0,4.9,0,9.8,0,14.7c0,0.5,0,0.8,0,1.3c0,0.8-0.5,1.1-1.2,1
			c-2.3-0.4-4.7-0.2-7-0.3c-7.1-0.4-14.2-0.5-21.3-0.6c-0.3,0-0.6,0-0.9,0c-0.6,0-0.9-0.2-0.9-0.8c0-0.4,0-0.8,0-1.1
			c0-9.4-0.1-18.6-0.1-28c0-0.2,0-0.4,0-0.5c0-1.4,0-1.4,1.5-1.4c5.1-0.2,10.2-0.3,15.3-0.5c4.1-0.2,8.2-0.3,12.3-0.5
			c0.4,0,0.8,0,1.1-0.1c0.9-0.1,1.2,0.4,1.2,1.2c0,0.5,0,0.8,0,1.3C463.9,303.9,463.9,308.7,463.9,313.5z"/>
		<path id="XMLID_1491_" class="st0" d="M284.3,312.4c0,4.8,0,9.7,0,14.6c0,0.5,0,0.8,0,1.3c0.1,0.8-0.4,1.1-1.2,1.1
			c-1.5-0.1-3.1-0.1-4.6-0.2c-7.2-0.4-14.4-0.6-21.7-0.7c-0.9,0-1.8-0.2-2.8-0.2s-1.2-0.5-1.2-1.2c0-0.3,0-0.6,0-0.9
			c0-9.1-0.1-18.3-0.1-27.5c0-0.2,0-0.2,0-0.4c0-1.8,0-1.8,1.8-1.8c5.3-0.2,10.6-0.2,15.8-0.5c3.8-0.2,7.6-0.1,11.3-0.5
			c0.4-0.1,0.8,0,1.1-0.1c0.9-0.1,1.2,0.3,1.2,1.2c0,2.9,0,5.9,0,8.8C284.3,307.7,284.3,310,284.3,312.4z"/>
		<path id="XMLID_1490_" class="st0" d="M85.4,136c0-5.1,0-10.2,0-15.3c0-1.6,0-1.7,1.6-1.6c8.9,0.3,17.8,0.6,26.7,0.8
			c3.5,0.1,3-0.4,3,3c0.1,9,0.1,17.9,0.1,26.8c0,2.3,0,2-1.9,2.1c-5.4,0.2-10.7,0.2-16,0.5c-3.7,0.2-7.4,0.1-11,0.5
			c-0.5,0.1-1,0-1.5,0.1c-0.5,0-0.8-0.2-0.8-0.8c0-0.5,0-0.8,0-1.3C85.4,146,85.4,141,85.4,136z"/>
		<path id="XMLID_1489_" class="st0" d="M130.4,312.6c0-5.1,0-10.2,0-15.3c0-1.6,0-1.7,1.6-1.5c9.4,0.5,18.9,0.8,28.3,0.9
			c1.4,0,1.4,0.1,1.4,1.5c0,9.6,0.1,19.1,0.1,28.7c0,1.5,0,1.5-1.5,1.6c-1.1,0.1-2.2,0.2-3.3,0.2c-6.2,0.2-12.5,0.4-18.7,0.5
			c-2.1,0.1-4.1,0.2-6.2,0.3c-1.5,0.1-1.5,0-1.5-1.5C130.4,322.9,130.4,317.8,130.4,312.6z"/>
		<path id="XMLID_1488_" class="st0" d="M251.6,355c0,5.1,0,10.3,0,15.5c0,1.5,0,1.6-1.5,1.5c-7.8-0.5-15.6-0.5-23.5-0.8
			c-1.5-0.1-3.1-0.1-4.6-0.1c-1.6,0-1.6-0.1-1.6-1.6c0-5.4,0-10.9-0.1-16.4c0-4,0-8,0-12c0-1.8,0-1.8,1.7-1.8
			c7.7-0.2,15.3-0.5,23-0.8c1.6-0.1,3.1-0.2,4.8-0.3c1.8-0.1,1.8-0.1,1.8,1.7c0,3.6,0,7.2,0,10.9C251.6,352.1,251.6,353.6,251.6,355
			z"/>
		<path id="XMLID_1487_" class="st0" d="M426.7,269c0,4.8,0,9.7,0,14.6c0,0.5,0,0.8,0,1.3c0,0.7-0.3,1-1,1c-2.2-0.1-4.4-0.2-6.6-0.2
			c-0.5,0-1.1-0.1-1.7-0.1c-6.5-0.2-13-0.3-19.5-0.5c-0.5,0-0.8,0-1.3-0.1c-0.6-0.1-1-0.4-1-1.1c0-0.4,0-0.8,0-1.1
			c0-9.3-0.1-18.6-0.1-27.8c0-0.2,0-0.4,0-0.5c0-1.3,0.1-1.4,1.3-1.4c3.3-0.2,6.6-0.2,9.9-0.3c6.1-0.2,12.1-0.3,18.2-0.8
			c1.6-0.1,1.7,0,1.7,1.5C426.7,258.7,426.7,263.9,426.7,269z"/>
		<path id="XMLID_1486_" class="st0" d="M278.1,356.5c0-5.1,0-10.2,0-15.3c0-1.6,0-1.7,1.6-1.6c7.2,0.5,14.4,0.5,21.6,0.8
			c2,0.1,4.1,0.1,6.1,0.1c1.7,0,1.8,0,1.8,1.8c0,7.5,0.1,15,0.1,22.5c0,2.1,0,4.1,0,6.3c0,0.9-0.2,1.4-1.2,1.4
			c-1.2,0-2.5,0.2-3.7,0.2c-6.1,0.2-12.1,0.3-18.2,0.5c-2.1,0.1-4.1,0.2-6.2,0.3c-1.8,0-1.8,0-1.8-1.7
			C278.1,366.6,278.1,361.6,278.1,356.5z"/>
		<path id="XMLID_1485_" class="st0" d="M174.9,180.4c0-5.1,0-10.2,0-15.3c0-1.7,0-1.8,1.7-1.7c8.6,0.3,17.1,0.6,25.7,0.9
			c0.8,0,1.7,0,2.6,0c0.8,0,1.1,0.4,1.1,1.2c0,0.4,0,0.8,0,1.1c0,9.1,0.1,18.3,0.1,27.4c0,0.2,0,0.2,0,0.4c0,1.8,0,1.8-1.7,1.8
			c-4.4,0.2-8.8,0.2-13.2,0.4c-4.7,0.2-9.3,0.5-14,0.7c-0.5,0-0.8,0-1.3,0c-0.6,0-0.9-0.2-0.9-0.8c0-0.7,0-1.4,0-2
			C174.9,189.8,174.9,185.1,174.9,180.4z"/>
		<path id="XMLID_1484_" class="st0" d="M69.2,268.2c0-5.1,0-10.2,0-15.3c0-1.6,0-1.7,1.6-1.6c8,0.3,15.9,0.6,23.8,0.8
			c1.4,0.1,2.8,0,4.2,0.1c1.3,0.1,1.3,0.1,1.3,1.4c0,1.7,0,3.3,0,5c0,7.6,0.1,15.2,0.1,22.8c0,0.4,0,0.8,0,1.1
			c-0.1,1.5-0.1,1.5-1.6,1.5c-2.9,0.1-5.9,0.2-8.8,0.3c-6.1,0.2-12.3,0.5-18.3,0.8c-0.4,0-0.8,0-1.1,0c-0.8,0.1-1.2-0.3-1.2-1.2
			c0-2.1,0-4.1,0-6.2C69.2,274.6,69.2,271.5,69.2,268.2z"/>
		<path id="XMLID_1483_" class="st0" d="M328.5,180c0,5.1,0,10.2,0,15.3c0,1.7,0,1.8-1.8,1.7c-7.8-0.5-15.6-0.5-23.5-0.8
			c-1.2-0.1-2.5-0.1-3.7-0.1c-2.5,0-2.1-0.1-2.1-2.2c0-7.2-0.1-14.5-0.1-21.7c0-2.1,0-4.3,0-6.4c0-1.3,0.1-1.4,1.3-1.4
			c2.3-0.1,4.5-0.2,6.8-0.2c6.2-0.2,12.3-0.3,18.6-0.8c0.9-0.1,1.8-0.1,2.8-0.1c1.6,0,1.6,0,1.6,1.6
			C328.5,169.8,328.5,174.9,328.5,180z"/>
		<path id="XMLID_1482_" class="st0" d="M287.8,224.7c0,4.8,0,9.7,0,14.5c0,0.5,0,0.8,0,1.3c0,0.8-0.3,1.2-1.1,1.1
			c-1-0.1-2,0-2.9-0.1c-7.2-0.4-14.4-0.6-21.7-0.7c-1.5,0-2.9-0.2-4.4-0.2c-0.7,0-1-0.4-1-1c0-0.4,0-0.8,0-1.1
			c0-9.2-0.1-18.4-0.1-27.6c0-0.2,0-0.5,0-0.8c0.1-1.2,0.1-1.3,1.4-1.3c3.6-0.2,7.2-0.2,10.8-0.4c5.5-0.2,11-0.4,16.5-0.7
			c2.3-0.2,2.3-0.2,2.3,2.1C287.8,214.9,287.8,219.8,287.8,224.7z"/>
		<path id="XMLID_1481_" class="st0" d="M222.8,267.9c0,5.1,0,10.2,0,15.3c0,1.7,0,1.8-1.8,1.7c-8.3-0.5-16.6-0.5-24.9-0.8
			c-1.1-0.1-2.1-0.1-3.1,0c-1,0-1.3-0.4-1.2-1.3c0-0.1,0-0.2,0-0.2c0-9.6-0.1-19.2-0.1-28.8c0-1.3,0.1-1.4,1.3-1.4
			c2.6-0.1,5.3-0.2,7.9-0.3c6.2-0.2,12.3-0.3,18.6-0.8c0.5,0,0.8,0,1.3-0.1c2-0.1,2-0.1,2,1.9C222.8,257.9,222.8,262.9,222.8,267.9z
			"/>
		<path id="XMLID_1480_" class="st0" d="M431.7,356.1c0,4.8,0,9.7,0,14.5c0,0.4,0,0.8,0,1.1c0.1,0.9-0.2,1.4-1.2,1.3
			c-1.1-0.1-2.2,0-3.3-0.1c-6.3-0.4-12.6-0.5-18.9-0.6c-2.1,0-4.3-0.2-6.4-0.2c-0.8,0-1.2-0.4-1.2-1.2c0-0.8,0-1.5,0-2.2
			c0-8.7-0.1-17.3-0.1-25.9c0-0.5,0-0.8,0-1.3c-0.1-0.9,0.4-1.2,1.2-1.2c1.1,0,2.1,0,3.1-0.1c7.7-0.3,15.3-0.5,22.9-0.8
			c0.8,0,1.6-0.2,2.4-0.2c1.3-0.1,1.4,0,1.4,1.2c0,1.1,0,2.1,0,3.1C431.7,347.8,431.7,351.9,431.7,356.1z"/>
		<path id="XMLID_1479_" class="st0" d="M314.7,120.9c5,0,9.9,0,14.9,0c1.5,0,1.5,0,1.5,1.5c0,8.6,0.1,17.2,0.1,25.8
			c0,1.5,0,1.5-1.5,1.5c-10,0.1-19.9,0.2-30,0.3c-1.5,0-1.5,0-1.5-1.5c0-8.7-0.1-17.4-0.1-26.1c0-1.5,0-1.5,1.7-1.5
			C304.7,120.9,309.7,120.9,314.7,120.9C314.7,120.8,314.7,120.8,314.7,120.9z"/>
		<path id="XMLID_1478_" class="st0" d="M348.5,120.6c5,0,9.9,0,14.9,0c1.6,0,1.6,0,1.6,1.6c0,8.7,0.1,17.3,0.1,25.9
			c0,1.6,0,1.6-1.6,1.6c-9.7-0.1-19.4-0.1-29.1-0.2c-0.2,0-0.5,0-0.8,0c-1.5-0.1-1.6-0.2-1.6-1.8c0-8.4-0.1-16.9-0.1-25.4
			c0-1.6,0-1.6,1.6-1.6c5,0,9.9,0,14.9-0.1C348.5,120.8,348.5,120.7,348.5,120.6z"/>
		<path id="XMLID_1477_" class="st0" d="M242.3,110.3c-4.8,0-9.7,0-14.6,0c-0.4,0-0.8,0-1.1,0c-0.5,0-0.7-0.3-0.7-0.7
			c0-0.5,0-0.8,0-1.3c0-8.4-0.1-16.8-0.1-25.2c0-0.2,0-0.2,0-0.4c0-1.6,0-1.6,1.6-1.6c6.5,0,13-0.1,19.5,0.2
			c3.5,0.1,6.8,0.1,10.3,0.2c1.5,0,1.5,0,1.5,1.5c0,8.5,0.1,17,0.1,25.6c0,1.5,0,1.5-1.5,1.5c-5.1,0-10,0-15.1,0.1
			C242.3,110.3,242.3,110.3,242.3,110.3z"/>
		<path id="XMLID_1476_" class="st0" d="M276.5,110.1c-4.8,0-9.7,0-14.6,0c-0.4,0-0.8,0-1.1,0c-0.6,0-0.9-0.2-0.9-0.9
			c0-0.4,0-0.8,0-1.1c0-8.2-0.1-16.4-0.1-24.6c0-0.2,0-0.2,0-0.4c0-1.6,0-1.6,1.6-1.6c9.8-0.2,19.6-0.3,29.4-0.4c0.3,0,0.6,0,0.9,0
			c0.7-0.1,1,0.2,1,0.9c0,0.4,0,0.8,0,1.1c0,8.4,0.1,16.6,0.1,25c0,0.1,0,0.2,0,0.2c0,1.9,0,1.9-1.9,1.9
			C286.2,110.2,281.4,110.2,276.5,110.1C276.5,110.2,276.5,110.2,276.5,110.1z"/>
		<path id="XMLID_1475_" class="st0" d="M252.4,54.5c0,4.4,0,8.7,0,13c0,1.5,0,1.5-1.5,1.5c-6.2,0-12.5,0.1-18.7-0.2
			c-3.6-0.1-7.2-0.1-10.8-0.2c-1.7,0-1.7,0-1.7-1.6c0-8.5-0.1-17-0.1-25.5c0-1.5,0-1.5,1.5-1.5c9.1-0.1,18.3-0.2,27.4-0.2
			c0.8,0,1.5-0.1,2.2-0.2c1.5-0.2,1.7-0.1,1.7,1.5c0,3.7,0,7.4,0,11C252.4,53.1,252.4,53.7,252.4,54.5z"/>
		<path id="XMLID_1474_" class="st0" d="M185.6,54.7c0-4.3,0-8.6,0-12.9c0-1.8,0.1-1.8,1.7-1.8c8.2,0.1,16.4,0.1,24.6,0.2
			c1.7,0,3.5,0.1,5.1,0.2c1.3,0.1,1.3,0.1,1.4,1.4c0,3,0,6,0,9c0,5.4,0,10.9,0.1,16.3c0,1.8,0,1.8-1.7,1.8c-3.5,0-7,0-10.5,0.1
			c-6,0.1-12,0.2-18,0.3c-0.3,0-0.6,0-0.9,0c-1.8,0-1.8,0-1.8-1.7C185.7,63.3,185.7,59,185.6,54.7z"/>
		<path id="XMLID_1473_" class="st0" d="M276.6,54.4c0,4.6,0,9.2,0,13.8c0,0.5,0,1-0.1,1.5c-0.1,0.5-0.4,0.7-0.9,0.6
			c-6-0.8-12-0.8-18.1-0.9c-1.1,0-2.2-0.2-3.3-0.2c-0.8,0-1.1-0.4-1-1.2c0-1.5,0-3.1,0-4.6c0-7.1,0-14.2-0.1-21.3c0-0.5,0-1,0-1.5
			c0-0.6,0.3-0.9,0.9-0.9c0.2,0,0.5,0,0.8,0c4.9,0.1,9.8-0.4,14.7-0.5c1.7-0.1,3.3-0.2,4.9-0.3c2.3-0.1,2.1-0.2,2.1,2.1
			C276.5,45.5,276.6,50,276.6,54.4z"/>
		<path id="XMLID_1472_" class="st0" d="M161.4,54.7c0-4.7,0-9.3,0-14c0-1.7,0-1.8,1.8-1.7c6.7,0.3,13.4,0.7,20.2,0.8
			c1.2,0,1.3,0.1,1.3,1.4c0,3.8,0,7.6,0,11.4c0,5,0,9.9,0,14.9c0,1.8,0,1.9-1.8,1.9c-5.3,0-10.5,0.4-15.8,0.5
			c-1.4,0.1-2.8,0.2-4.2,0.3c-1.4,0.1-1.4,0-1.5-1.4C161.5,64.2,161.5,59.5,161.4,54.7z"/>
		<path id="XMLID_1471_" class="st0" d="M274.2,135.4c0-4.8,0-9.4,0-14.2c0-1.4,0-1.5,1.5-1.4c3.5,0.2,7,0.4,10.4,0.5
			c3.2,0.2,6.4,0.2,9.6,0.2c1.7,0,1.8,0.1,1.8,1.8c0,8.7,0.1,17.4,0.1,26.1c0,1.6-0.1,1.7-1.6,1.8c-0.2,0-0.2,0-0.4,0
			c-6.3,0.1-12.6,0.4-18.9,0.8c-2.6,0.2-2.3,0.3-2.3-2.1C274.2,144.3,274.2,139.9,274.2,135.4z"/>
		<path id="XMLID_1470_" class="st0" d="M389.1,135.2c0,4.8,0,9.4,0,14.2c0,1.5,0,1.5-1.4,1.4c-6.7-0.5-13.4-0.7-20.2-0.8
			c-1.5,0-1.5-0.2-1.5-1.6c0-8.8-0.1-17.6-0.1-26.5c0-1.5,0.1-1.5,1.6-1.5c4.9,0,9.8-0.3,14.7-0.5c1.7-0.1,3.5-0.2,5.1-0.3
			c1.7-0.1,1.8-0.1,1.8,1.6C389,125.8,389.1,130.5,389.1,135.2z"/>
		<path id="XMLID_1469_" class="st0" d="M202,95.8c0-4.7,0-9.3,0-14c0-1.7,0-1.7,1.6-1.6c6.4,0.5,12.7,0.5,19.1,0.8
			c3,0.1,2.5-0.2,2.5,2.5c0.1,8.2,0.1,16.4,0.1,24.6c0,0.3,0,0.6,0,0.9c0,1.5,0,1.5-1.4,1.5c-0.2,0-0.2,0-0.4,0
			c-6.1,0.1-12.3,0.3-18.3,0.8c-0.6,0.1-1.2,0-1.8,0.1c-1,0.2-1.2-0.4-1.2-1.3C202.1,105.4,202,100.7,202,95.8z"/>
		<path id="XMLID_1468_" class="st0" d="M316.9,95.5c0,4.7,0,9.3,0,14c0,1.7,0,1.8-1.8,1.6c-6.7-0.3-13.3-0.7-20-0.8
			c-1.4,0-1.5-0.1-1.5-1.5c0-4.1,0-8.1,0-12.1c0-4.8,0-9.4,0-14.2c0-1.6,0-1.6,1.6-1.7c5.6-0.2,11.1-0.5,16.7-0.7
			c1.2-0.1,2.5-0.2,3.7-0.3c1.2-0.1,1.2,0,1.2,1.2C316.9,86,316.9,90.8,316.9,95.5z"/>
		<path id="XMLID_1467_" class="st0" d="M261.3,251.4c3.2,0.5,6.5,0.6,9.8,0.9c0.6,0.1,0.9,0.3,0.9,0.9c0,0.4,0,0.8,0,1.1
			c0,10,0.1,20.1,0.1,30.1c0,0.3,0,0.6,0,0.9c0.1,0.8-0.2,1.2-1,1.2c-2.8,0.1-5.5,0.5-8.2,0.7c-1.6,0.2-1.7,0.2-1.7-1.5
			c0-3.5,0-7.1,0-10.7c0-7.2-0.1-14.5-0.1-21.7C261,252.7,260.9,252.1,261.3,251.4z"/>
		<path id="XMLID_1466_" class="st0" d="M296.3,312.3c0,5.4,0,10.9,0.1,16.3c0,1.7-0.1,1.8-1.8,1.5c-2.6-0.3-5.2-0.5-7.8-0.7
			c-1.2-0.1-1.3-0.1-1.3-1.5c0-10.5-0.1-20.9-0.1-31.4c0-0.8,0.2-1.3,1.2-1.4c3-0.3,6-0.3,9-0.9c0.5-0.1,0.8,0.2,0.8,0.7
			c0,0.5,0,0.8,0,1.3C296.3,301.7,296.3,307,296.3,312.3z"/>
		<path id="XMLID_1465_" class="st0" d="M122.2,225.1c0-5.4,0-10.8-0.1-16.2c0-1.8,0-1.8,1.8-1.6c2.1,0.2,4.1,0.4,6.2,0.5
			c0.5,0,0.8,0,1.3,0.1c1.7,0.2,1.7,0.2,1.7,1.9c0,9.6,0.1,19.2,0.1,28.8c0,0.8,0,1.6,0,2.4c0,0.8-0.4,1.2-1.2,1.2
			c-1.8,0-3.7,0.2-5.5,0.4c-0.8,0.1-1.7,0.2-2.5,0.3c-1.7,0.3-1.7,0.3-1.7-1.5c0-3.1,0-6.1,0-9.2
			C122.2,229.8,122.2,227.4,122.2,225.1z"/>
		<path id="XMLID_1464_" class="st0" d="M73.4,136c0-5.4,0-10.8-0.1-16.2c0-1.9,0.1-1.9,2-1.7c2.5,0.3,4.8,0.5,7.3,0.6
			c1.6,0.1,1.6,0.1,1.6,1.6c0,5.1,0,10.2,0.1,15.3c0,5.2,0,10.4,0,15.6c0,1.6,0,1.6-1.5,1.8c-2.8,0.3-5.4,0.5-8.2,0.8
			c-1.1,0.2-1.2,0.2-1.2-1c0-4.4,0-9-0.1-13.4C73.4,138.4,73.4,137.2,73.4,136z"/>
		<path id="XMLID_1463_" class="st0" d="M266.2,338.6c3.1,0.5,6.3,0.6,9.4,0.8c1.1,0.1,1.3,0.5,1.3,1.5c0,3.1,0,6.1,0,9.2
			c0,7.1,0,14.1,0.1,21.2c0,0.5,0,0.8,0,1.3c0,0.8-0.2,1.2-1.1,1.2c-2.9,0.1-5.8,0.4-8.7,0.8c-0.8,0.1-1.2-0.1-1.2-1
			c0-0.2,0-0.5,0-0.8c0-10.9-0.1-21.8-0.1-32.7C266,339.6,265.9,339.1,266.2,338.6z"/>
		<path id="XMLID_1462_" class="st0" d="M162.9,180.3c0-5.4,0-10.9,0-16.3c0-1.5,0.1-1.5,1.5-1.4c2.5,0.4,5,0.5,7.5,0.7
			c1.8,0.1,1.8,0.2,1.9,1.9c0,10.2,0.1,20.3,0.1,30.5c0,1.7,0,1.8-1.7,1.9c-2.8,0.2-5.5,0.3-8.2,0.8c-0.8,0.2-1.1-0.2-1.1-1
			c0-2.3,0-4.5,0-6.8C163,187.1,162.9,183.7,162.9,180.3z"/>
		<path id="XMLID_1461_" class="st0" d="M298,313.8c0-5.4,0-10.8,0-16.2c0-1.6,0-1.7,1.6-1.5c2.8,0.2,5.6,0.5,8.4,0.7
			c0.6,0.1,0.9,0.3,0.8,0.9c0,0.4,0,0.8,0,1.1c0,10,0.1,20.1,0.1,30.2c0,0.2,0,0.4,0,0.5c0,1.4,0,1.4-1.5,1.5
			c-2.7,0.2-5.4,0.5-8.1,0.8c-1.4,0.2-1.5,0.1-1.5-1.4C298,324.8,298,319.3,298,313.8z"/>
		<path id="XMLID_1460_" class="st0" d="M57.1,268.1c0-5.2,0-10.4-0.1-15.6c0-2.1,0-2.1,2.1-1.9c1.8,0.2,3.7,0.3,5.5,0.5
			c0.8,0.1,1.7,0.2,2.5,0.2c0.5,0.1,0.8,0.3,0.8,0.8c0,0.5,0,0.8,0,1.3c0,9.9,0.1,19.9,0.1,29.8c0,0.2,0,0.4,0,0.5
			c0,1.5,0,1.5-1.5,1.7c-2.8,0.2-5.6,0.4-8.4,0.8c-0.7,0.1-1.1-0.1-1-0.8c0-0.5,0-0.8,0-1.3C57.1,278.8,57.1,273.5,57.1,268.1z"/>
		<path id="XMLID_1459_" class="st0" d="M263.4,355c0,5.5,0,11,0,16.6c0,1.5,0,1.5-1.5,1.3c-2.5-0.3-4.8-0.5-7.3-0.6
			c-1.8-0.1-1.8-0.1-1.8-1.9c0-10.2-0.1-20.5-0.1-30.7c0-0.3,0-0.6,0-0.9c0-0.8,0.5-0.8,1.1-0.9c1.7,0,3.3-0.2,4.9-0.4
			c1.2-0.2,2.3-0.2,3.5-0.4c0.8-0.2,1.2,0.1,1.2,1c-0.1,1.6,0,3.2,0,4.8C263.4,346.9,263.4,351,263.4,355z"/>
		<path id="XMLID_1458_" class="st0" d="M340.6,180c0,5.4,0,10.7,0.1,16c0,2,0,2-1.9,1.8c-1.9-0.2-3.9-0.3-5.8-0.5
			c-0.6-0.1-1.2-0.1-1.8-0.2c-0.8-0.1-1.2-0.5-1.2-1.3c0-0.5,0-0.8,0-1.3c0-9.7-0.1-19.4-0.1-29.1c0-0.5,0-1,0-1.5
			c0-0.8,0.4-1.2,1.1-1.2c2.9-0.1,5.8-0.4,8.6-0.8c0.7-0.1,1.1,0.1,1,0.8c0,0.5,0,0.8,0,1.3C340.6,169.5,340.6,174.7,340.6,180z"/>
		<path id="XMLID_1457_" class="st0" d="M250.9,153.6c-2.8-0.5-5.8-0.5-8.7-0.8c-1.8-0.2-1.8,0.2-1.8-2.1c0-6.9,0-13.9-0.1-20.8
			c0-3.2,0-6.4,0-9.6c0-1.8,0-1.8,1.8-1.8c2.5-0.2,4.9-0.3,7.3-0.7c1.5-0.2,1.5-0.2,1.5,1.4c0,8.7,0.1,17.4,0.1,26.1
			c0,2.4,0,4.8,0,7.2C251.1,152.8,251.1,153.1,250.9,153.6z"/>
		<path id="XMLID_1456_" class="st0" d="M438.5,250.9c0.3,0.8,0.2,1.4,0.2,2c0,10.6,0.1,21.2,0.1,31.8c0,2.3,0,2.2-2.1,2
			c-2.3-0.3-4.6-0.5-7-0.6c-1.5-0.2-1.5-0.1-1.6-1.6c0-3.2,0-6.5,0-9.7c0-6.8,0-13.6-0.1-20.4c0-0.5,0-0.8,0-1.3
			c-0.1-0.8,0.3-1.2,1.2-1.2c2.4-0.2,4.8-0.5,7.1-0.7C437,251.1,437.7,251.1,438.5,250.9z"/>
		<path id="XMLID_1455_" class="st0" d="M118.8,294.8c3.1,0.3,6.3,0.5,9.5,0.8c0.8,0.1,1.2,0.4,1.1,1.2c0,0.4,0,0.8,0,1.1
			c0,10,0.1,19.9,0.1,29.8c0,0.5,0,0.8,0,1.3c0,0.6-0.3,0.8-0.9,0.9c-2.9,0.1-5.9,0.4-8.8,0.8c-0.7,0.1-1.1-0.2-1-0.8
			c0-0.3,0-0.6,0-0.9c0-10.8-0.1-21.6-0.1-32.4C118.6,296,118.5,295.4,118.8,294.8z"/>
		<path id="XMLID_1454_" class="st0" d="M475.7,313.5c0,5.1,0,10.3,0.1,15.4c0,0.4,0,0.8,0,1.1c-0.1,1.3-0.1,1.4-1.3,1.3
			c-1.9-0.2-3.8-0.3-5.7-0.5c-0.9-0.1-1.8-0.2-2.8-0.2c-0.7,0-1-0.3-1-1c0-0.4,0-0.8,0-1.1c0-10-0.1-20-0.1-30c0-0.4,0-0.8,0-1.1
			c0-0.7,0.3-1,1-1c2.8-0.2,5.5-0.5,8.2-0.8c1.5-0.2,1.5-0.1,1.5,1.5C475.7,302.5,475.7,308,475.7,313.5z"/>
		<path id="XMLID_1453_" class="st0" d="M86.2,373.4c-0.3-0.8-0.2-1.4-0.2-2c0-10.6-0.1-21.2-0.1-31.7c0-0.3,0-0.6,0-0.9
			c0.1-1.2,0.1-1.3,1.5-1.2c2.2,0.3,4.5,0.5,6.7,0.6c0.5,0,1.1,0.1,1.6,0.2c0.5,0.1,0.9,0.3,0.8,0.9c0,0.4,0,0.8,0,1.1
			c0,10,0.1,20.1,0.1,30.1c0,0.3,0,0.6,0,0.9c0.1,0.7-0.3,1-1,1c-2.1,0.2-4.3,0.4-6.4,0.6C88.3,373.2,87.3,373.3,86.2,373.4z"/>
		<path id="XMLID_1452_" class="st0" d="M299.6,206.7c0.3,0.6,0.2,1.2,0.2,1.7c0,10.8,0.1,21.6,0.1,32.4c0,0.3,0,0.6,0,0.9
			c0.1,0.8-0.4,1-1,0.8c-1.2-0.2-2.3-0.2-3.5-0.4c-1.5-0.2-3.1-0.2-4.6-0.4c-1.6-0.2-1.6-0.2-1.6-1.8c0-2.9,0-5.9,0-8.8
			c0-7.2-0.1-14.5-0.1-21.7c0-1.8,0-1.8,1.8-1.9C293.8,207.3,296.6,207,299.6,206.7z"/>
		<path id="XMLID_1451_" class="st0" d="M234.7,250c0,12,0.1,23.8,0.1,36c-3.3-0.5-6.4-0.7-9.6-1c-0.8-0.1-1.1-0.5-1-1.2
			c0-0.4,0-0.8,0-1.1c0-9.9-0.1-19.7-0.1-29.6c0-0.4,0-0.8,0-1.1c-0.1-0.8,0.3-1.1,1.1-1.2c2.2-0.2,4.4-0.5,6.6-0.6
			C232.7,250.2,233.6,249.8,234.7,250z"/>
		<path id="XMLID_1450_" class="st0" d="M443.7,338.1c0,0.8,0,1.3,0,1.8c0,10.7,0.1,21.5,0.1,32.1c0,2.1,0,2.1-2.1,1.8
			c-1.9-0.2-3.9-0.4-5.8-0.5c-0.5-0.1-1-0.1-1.5-0.1c-0.8-0.1-1.4-0.4-1.3-1.4c0-0.3,0-0.6,0-0.9c0-9.9-0.1-19.9-0.1-29.8
			c0-0.2,0-0.5,0-0.8c0.1-1.3,0.1-1.3,1.4-1.4C437.3,338.8,440.4,338.6,443.7,338.1z"/>
		<path id="XMLID_1449_" class="st0" d="M277.4,70.2c0-0.5,0-1.2,0-1.7c0-9.3-0.1-18.5-0.1-27.8c0-0.4,0-0.8,0-1.1
			c0-0.8,0.4-1.1,1.1-1.2c2.2-0.1,4.4-0.5,6.5-0.7c0.5,0.4,0.3,0.9,0.3,1.4c0,10,0.1,19.9,0.1,30c0,0.2,0,0.2,0,0.4
			c-0.1,1.4-0.1,1.4-1.3,1.3C281.9,70.6,279.7,70.4,277.4,70.2z"/>
		<path id="XMLID_1448_" class="st0" d="M397.8,151.7c-2.2-0.2-4.4-0.6-6.5-0.7c-1.3,0-1.5-0.2-1.5-1.6c0-9.6-0.1-19.2-0.1-28.7
			c0-1.4,0.1-1.5,1.5-1.5c2.1-0.1,4.2-0.5,6.4-0.7C397.8,129.6,397.8,140.6,397.8,151.7z"/>
		<path id="XMLID_1447_" class="st0" d="M152.8,38.1c2.2,0.3,4.4,0.6,6.5,0.7c1.2,0.1,1.3,0.2,1.3,1.5c0,1.1,0,2.2,0,3.3
			c0,8.3,0.1,16.6,0.1,24.8c0,2.1,0,2.1-2.1,2.3c-1.3,0.1-2.5,0.2-3.8,0.4c-2.1,0.3-2.1,0.2-2.1-1.8c0-3.6,0-7.2,0-10.8
			c0-6.1,0-12.1-0.1-18.2C152.6,39.6,152.4,38.9,152.8,38.1z"/>
		<path id="XMLID_1446_" class="st0" d="M193.3,79.4c1.9,0.2,3.8,0.5,5.8,0.6c1.7,0.1,1.8,0.2,1.8,1.8c0,5.7,0,11.3,0.1,16.9
			c0,3.8,0,7.7,0,11.6c0,1.4,0,1.4-1.5,1.5c-1.8,0.2-3.5,0.3-5.3,0.6c-0.8,0.2-1.2-0.2-1.1-0.9c0-0.6,0-1.2,0-1.8
			c0-9.4-0.1-18.9-0.1-28.3C193.1,80.7,192.9,80,193.3,79.4z"/>
		<path id="XMLID_1445_" class="st0" d="M325.5,112.1c-2-0.2-3.9-0.5-5.8-0.6c-1.7-0.1-1.7-0.2-1.8-1.8c0-6.3,0-12.7-0.1-18.9
			c0-3.1,0-6.1,0-9.2c0-1.5,0-1.5,1.6-1.8c1.6-0.2,3.3-0.4,4.9-0.6c0.8-0.1,1.2,0.1,1.2,1c0,10.5,0,20.9,0.1,31.4
			C325.7,111.8,325.6,112,325.5,112.1z"/>
		<path id="XMLID_1444_" class="st0" d="M265.4,135.4c0-4.8,0-9.6,0-14.3c0-0.5,0-0.8,0-1.3s0.2-0.8,0.8-0.8c2,0.2,4,0.4,6.1,0.6
			c0.6,0.1,1,0.4,0.9,1.1c0,0.4,0,0.8,0,1.1c0,9,0.1,18.2,0.1,27.2c0,0.5,0,0.8,0,1.3c0,0.5-0.2,0.8-0.8,0.8
			c-2.1,0.2-4.1,0.5-6.2,0.7c-0.5,0.1-0.8-0.3-0.8-0.8s0-0.8,0-1.3C265.4,145,265.4,140.3,265.4,135.4z"/>
		<path id="XMLID_1443_" class="st0" d="M335.3,285.7c4.3,0,8.4,0,12.5,0c1.7,0,1.7,0,1.7,1.6c0.1,3.8,0.1,3.8-3.6,3.8
			c-3.8,0-7.7,0.1-11.6,0c-9-0.3-18.1-0.1-27.1-0.2c-0.4,0-0.8-0.1-1.1,0c-0.7,0-0.9-0.3-1-1c-0.3-3.5-0.3-3.5,3.2-3.5
			c4.1-0.1,8.1,0.1,12.1-0.2C325.5,285.7,330.5,285.9,335.3,285.7z"/>
		<path id="XMLID_1442_" class="st0" d="M374.1,291.9c3.4,0,7.1,0,10.7,0c1.5,0,1.5,0,1.5,1.4c0,1.2,0.5,2.8-0.2,3.6
			c-0.8,0.9-2.3,0.3-3.5,0.3c-4.9,0.1-9.8,0.2-14.7,0c-8.1-0.2-16.2-0.1-24.2-0.2c-1.5,0-1.5,0-1.5-1.6c0-3.5-0.5-2.9,2.8-3
			c5.1-0.1,10.2,0,15.3-0.2C364.7,291.9,369.3,292,374.1,291.9z"/>
		<path id="XMLID_1441_" class="st0" d="M333.7,247.4c4.6,0,9.2,0,13.8,0c2,0,2,0,2,2.1c0,0.7,0,1.4,0,2c0.1,1-0.4,1.3-1.3,1.2
			c-3.5-0.1-7.1,0-10.7-0.2c-4.6-0.2-9.2-0.1-13.8-0.1c-5.2,0-10.4-0.1-15.6-0.1c-3.1,0-3.1-0.1-3.1-3.1c0-1.4,0-1.4,1.5-1.5
			c2.9-0.1,5.8,0,8.7-0.2C321.3,247.5,327.5,247.5,333.7,247.4z"/>
		<path id="XMLID_1440_" class="st0" d="M376.9,252.4c-4.8,0-9.7-0.1-14.6,0.1c-3.5,0.1-6.8,0.2-10.3,0.2c-1.7,0-1.7,0-1.7-1.6
			c0-1.2-0.5-2.6,0.2-3.4c0.8-0.8,2.2-0.3,3.4-0.3c8.6,0,17.2-0.1,25.8,0.1c4.5,0.1,9,0.1,13.6,0.2c1.5,0,1.5,0.1,1.5,1.4
			c-0.1,3.3,0.8,3-3,3.1c-5,0.2-10,0.1-14.9,0.1C376.9,252.3,376.9,252.4,376.9,252.4z"/>
		<path id="XMLID_1439_" class="st0" d="M381,378c-5.1,0-10.3-0.1-15.4,0.1c-2.7,0.1-5.4,0.2-8.1,0.2c-2.1,0-1.9,0.1-1.9-2
			c0-0.6,0-1.2,0-1.8c0-1.4,0-1.5,1.4-1.5c2.6,0,5.1,0,7.7,0c6.8,0,13.7-0.1,20.6,0.1c4.4,0.1,9,0.1,13.4,0.2c1.3,0,1.3,0.1,1.3,1.4
			c0,3.8,0.5,2.8-3,3.1c-3.9,0.3-7.8,0.2-11.7,0.2C383.7,377.9,382.3,377.9,381,378C381,377.9,381,377.9,381,378z"/>
		<path id="XMLID_1438_" class="st0" d="M396.8,291.9c11.8,0.1,22.5,0.2,33.4,0.3c1.5,0,1.6,0,1.6,1.5c0,3.6,0.3,3.1-3,3.1
			c-7.9,0.1-15.8,0.1-23.7,0.2c-5.1,0.2-10.3,0.2-15.4,0.2c-0.5,0-0.8,0-1.3,0c-0.7,0.1-1-0.3-0.9-1c0-1.1,0-2.2,0-3.3
			c0-0.8,0.4-1,1.2-1C391.6,291.9,394.7,291.9,396.8,291.9z"/>
		<path id="XMLID_1437_" class="st0" d="M338.5,372.9c4.8,0,9.4,0,14.2,0c1.7,0,1.7,0,1.7,1.5c0,1.2,0.5,2.7-0.3,3.5
			c-0.8,0.8-2.2,0.2-3.4,0.2c-12.4-0.3-24.9-0.1-37.3-0.2c-0.5,0-1.1-0.1-1.6-0.2c-1.5-0.2-1.5-0.2-1.5-1.8c0-3-0.4-2.6,2.6-2.7
			C321.4,373.3,330,372.8,338.5,372.9z"/>
		<path id="XMLID_1436_" class="st0" d="M376.6,290.7c-5.3,0-10.6-0.1-15.8,0.1c-2.9,0.1-5.9,0.2-8.8,0.2c-1.4,0-1.5,0-1.5-1.4
			c0-1.2-0.5-2.8,0.2-3.6c0.8-0.9,2.3-0.3,3.5-0.3c6.1-0.1,12.1-0.2,18.2,0c7,0.2,14,0.2,20.9,0.2c1.5,0,1.5,0.1,1.5,1.5
			c0,3.4,0.4,3-2.9,3c-5.1,0.1-10.3,0.1-15.5,0.1C376.6,290.6,376.6,290.7,376.6,290.7z"/>
		<path id="XMLID_1435_" class="st0" d="M139.8,152.5c5.6,0,11.1,0,16.7-0.1c1.4,0,2.7-0.1,4.1-0.2c0.9-0.1,1.4,0.2,1.3,1.2
			c-0.1,1-0.1,2,0,2.9c0.1,0.9-0.4,1.2-1.2,1.2c-3.6,0-7.2,0-10.8,0c-6,0-12,0.1-18-0.1c-4.3-0.1-8.6-0.2-12.9-0.2
			c-1.5,0-1.5-0.1-1.5-1.4c0-0.9-0.4-2,0.2-2.7c0.5-0.7,1.6-0.2,2.5-0.3c5.7-0.5,11.4-0.2,17.1-0.3
			C138.1,152.5,138.9,152.5,139.8,152.5L139.8,152.5z"/>
		<path id="XMLID_1434_" class="st0" d="M224.8,290.9c4.9,0,9.8-0.2,14.7,0c3.8,0.2,7.4,0.2,11.2,0.2c1.5,0,1.5,0,1.5,1.5
			c0.1,2.7,0.1,2.6-2.6,2.9c-4.4,0.4-8.8,0.2-13.3,0.3c-8.8,0.1-17.6,0.1-26.5,0.2c-0.4,0-0.8,0-1.1,0c-0.7,0-1-0.3-1-1
			c0-1,0.1-2,0-2.9c-0.1-1,0.4-1.2,1.3-1.2C214.3,290.9,219.5,290.9,224.8,290.9C224.8,290.8,224.8,290.9,224.8,290.9z"/>
		<path id="XMLID_1433_" class="st0" d="M186.3,295.8c-5.6,0-11.1,0.1-16.7,0c-2,0-4.1-0.2-6.1-0.2c-0.8,0-1.1-0.3-1.1-1.1
			c-0.2-3.3-0.2-3.2,2.9-3.3c13.2-0.4,26.3-0.5,39.5-0.5c2.2,0,2.1-0.3,2.1,2.1c0,0.5,0,1.1,0,1.7c0,1.4,0,1.4-1.5,1.4
			c-6.4,0-12.7,0-19.1,0.1C186.3,295.9,186.3,295.9,186.3,295.8z"/>
		<path id="XMLID_1432_" class="st0" d="M156.5,371.8c5.4,0,10.8,0,16.2,0c1.5,0,1.5,0,1.5,1.5c0,0.9,0,1.8,0,2.8
			c0,0.6-0.2,0.9-0.8,0.9c-0.4,0-0.8,0-1.1,0c-10.1,0-20.2,0.1-30.4-0.1c-3.6-0.1-7.2-0.2-10.8-0.2c-1,0-1.3-0.4-1.2-1.3
			c0.1-3.6-0.5-3,2.9-3.1C140.7,372,148.6,371.9,156.5,371.8z"/>
		<path id="XMLID_1431_" class="st0" d="M192.4,376.9c-5.2,0-10.4,0-15.6,0c-1.5,0-1.5,0-1.5-1.5c0-0.8,0-1.5,0-2.2
			c0-1.4,0-1.4,1.5-1.4c7.7,0,15.3-0.1,23,0c6.1,0,12.3,0.2,18.4,0.2c1.5,0,1.5,0.1,1.5,1.5c0,3.5,0.4,2.8-2.8,2.8
			C208.7,376.7,200.5,377,192.4,376.9z"/>
		<path id="XMLID_1430_" class="st0" d="M270.1,196.8c5.1,0,10.3-0.2,15.5,0c3.3,0.1,6.6,0.2,9.9,0.2c1.2,0,1.3,0.1,1.3,1.4
			c0,3.6,0.4,2.8-2.8,3c-13,0.5-25.8,0.4-38.8,0.5c-0.2,0-0.5,0-0.8,0c-2.1,0-2,0.2-2-2c0-1-0.5-2.1,0.2-2.8c0.7-0.8,2-0.3,3-0.3
			c4.8-0.1,9.7-0.1,14.6-0.1C270.1,196.8,270.1,196.8,270.1,196.8z"/>
		<path id="XMLID_1429_" class="st0" d="M182.9,152.5c5.9,0,11.9-0.1,17.8,0c1.8,0,3.7,0.2,5.5,0.2c0.8,0,1,0.4,1.1,1.1
			c0.2,3.2,0.2,3.2-3.1,3.3c-12.9,0.3-25.8,0.5-38.7,0.5c-3,0-2.6,0.4-2.6-2.5c0-3-0.5-2.7,2.6-2.7c5.8,0,11.7,0,17.5-0.1
			C182.9,152.4,182.9,152.4,182.9,152.5z"/>
		<path id="XMLID_1428_" class="st0" d="M271.2,158.6c5.6,0,11.1-0.1,16.7,0c2.5,0,5,0.2,7.5,0.2c0.9,0,1.3,0.3,1.3,1.3
			c-0.1,3.8,0.5,3.1-2.9,3.1c-13.1,0.4-26.2,0.5-39.3,0.5c-2.5,0-2.2,0.3-2.2-2.3c0-2.8,0-2.8,2.9-2.8c5.3,0,10.7,0,16-0.1
			C271.2,158.5,271.2,158.5,271.2,158.6z"/>
		<path id="XMLID_1427_" class="st0" d="M229.9,208.2c-5.6,0-11.1,0-16.7,0.1c-1.6,0-1.6,0-1.6-1.6c0-1.1-0.5-2.5,0.2-3.2
			c0.7-0.8,2.1-0.3,3.1-0.3c9.3,0,18.5-0.1,27.8,0.1c3.9,0.1,7.8,0.2,11.7,0.2c1.4,0,1.5,0.1,1.5,1.5c0,3.5,0.3,2.8-2.7,2.9
			C245.5,208.1,237.6,208.2,229.9,208.2z"/>
		<path id="XMLID_1426_" class="st0" d="M141,114.2c6.4,0,12.7,0,19.1-0.1c1.6,0,1.7,0,1.7,1.6c0,1.1,0.5,2.5-0.2,3.2
			c-0.7,0.8-2.1,0.3-3.1,0.3c-6.9,0-13.7,0.2-20.6,0c-6.3-0.2-12.7-0.2-18.9-0.2c-1.5,0-1.5,0-1.5-1.5c-0.1-2.7-0.1-2.7,2.5-2.8
			c6.1-0.5,12.1-0.2,18.2-0.3C139,114.3,140,114.3,141,114.2C141,114.3,141,114.2,141,114.2z"/>
		<path id="XMLID_1425_" class="st0" d="M190.7,285.3c0,1.3,0,2.5,0,3.8c-0.5,0.3-1.1,0.2-1.6,0.2c-13.3,0.5-26.5,0.4-39.9,0.5
			c-0.4,0-0.8,0-1.1,0c-1.6,0-1.6,0-1.6-1.6c0-1.1-0.5-2.5,0.2-3.2c0.7-0.8,2.1-0.3,3.1-0.3c9,0,18-0.1,27,0.1
			c4.4,0.1,8.9,0.1,13.4,0.3C190.5,285.1,190.6,285.2,190.7,285.3z"/>
		<path id="XMLID_1424_" class="st0" d="M191.9,208.2c-5.4,0-10.8,0.1-16.2,0c-2.8-0.1-5.6-0.2-8.4-0.2c-0.7,0-1.1-0.2-1.2-1
			c-0.2-3.3-0.3-3.3,3.1-3.4c13-0.4,26.1-0.5,39.2-0.5c2.2,0,2.1-0.2,2.1,2.1c0,3,0,3-3,3c-5.1,0-10.3,0-15.4,0.1
			C191.9,208.3,191.9,208.3,191.9,208.2z"/>
		<path id="XMLID_1423_" class="st0" d="M126.7,289.7c-5.5,0-11,0.1-16.6,0c-2.5-0.1-5.1-0.2-7.7-0.2c-1,0-1.2-0.4-1.2-1.3
			c0.1-3.7-0.5-3,3-3.1c13-0.4,25.8-0.5,38.8-0.5c0.5,0,0.8,0,1.3,0c0.8-0.1,1.2,0.2,1.2,1.2c-0.1,1.1,0,2.1,0,3.1
			c0,0.6-0.3,0.9-0.9,0.8c-0.5,0-0.8,0-1.3,0c-5.5,0-11,0-16.6,0.1C126.7,289.8,126.7,289.8,126.7,289.7z"/>
		<path id="XMLID_1422_" class="st0" d="M235.1,163.6c-4.6,0-9.2,0.2-13.8,0c-4.4-0.2-8.7-0.2-13-0.2c-1.3,0-1.4-0.1-1.4-1.4
			c0-3.6-0.5-2.9,2.8-3.1c13-0.5,26.1-0.4,39.2-0.5c2.5,0,2.2-0.2,2.2,2.3c0,2.8,0,2.8-2.8,2.8C243.9,163.6,239.6,163.6,235.1,163.6
			C235.1,163.6,235.1,163.6,235.1,163.6z"/>
		<path id="XMLID_1421_" class="st0" d="M233.7,196.8c5.2,0,10.4,0,15.6-0.1c2.1,0,1.9-0.2,2,2c0,0.8,0,1.5,0,2.2
			c0,0.6-0.2,0.9-0.8,0.9c-0.5,0-1,0-1.5,0c-10,0-20,0.1-30-0.1c-3.5-0.1-7.1-0.2-10.7-0.2c-1,0-1.3-0.4-1.2-1.3
			c0.1-3.7-0.5-3,2.9-3.1C217.9,197,225.8,196.8,233.7,196.8z"/>
		<path id="XMLID_1420_" class="st0" d="M127.8,251.4c-4.8,0-9.7,0.2-14.5,0c-3.6-0.1-7.2-0.2-10.8-0.2c-1.3,0-1.3-0.1-1.3-1.4
			c0-3.5-0.5-2.9,2.8-3c9.6-0.3,19.1-0.4,28.7-0.5c3.8,0,7.7,0.5,11.6,0.4c0.8,0,1.2,0.3,1.2,1.2c0.2,3.5,0.2,3.5-3.4,3.5
			c-4.8,0-9.4,0-14.2,0C127.8,251.5,127.8,251.5,127.8,251.4z"/>
		<path id="XMLID_1419_" class="st0" d="M226.8,241.5c4.1,0,8.4-0.2,12.5,0c5.1,0.2,10.2,0.2,15.3,0.2c0.9,0,1.4,0.2,1.3,1.2
			c-0.1,3.8,0.3,3.1-2.9,3.1c-11.1,0.2-22.2,0.5-33.3,0.3c-2.3-0.1-4.7-0.2-7-0.3c-0.8,0-1.1-0.2-1.2-1c-0.2-3.7-0.3-3.7,3.4-3.7
			C218.9,241.5,222.8,241.5,226.8,241.5L226.8,241.5z"/>
		<path id="XMLID_1418_" class="st0" d="M177.8,119.2c-4.4,0-8.8,0-13.3,0c-1.8,0-1.8,0-1.8-1.8c0-0.8,0.1-1.5,0-2.2
			c-0.1-1,0.4-1.3,1.3-1.2c4.4,0.1,8.8-0.2,13.2,0.2c2.4,0.2,4.8,0.1,7.1,0.1c3.6,0,7.2-0.1,10.7,0.8c1.8,0.5,3.9,0.5,5.8,0.6
			c1.7,0.2,3.5,0.3,5.1,0.3c0.8,0,1.1,0.4,1.1,1.2c0.1,1.6,0,1.8-1.7,1.8c-3.2,0.1-6.5,0-9.7,0.2
			C189.7,119.2,183.7,119.2,177.8,119.2z"/>
		<path id="XMLID_1417_" class="st0" d="M194.1,241.5c4.9,0,9.8,0,14.7,0c1.7,0,1.7,0,1.8,1.7c0,0.2,0,0.2,0,0.4
			c-0.1,2.8,0.6,2.8-2.7,2.5c-2-0.2-3.9-0.2-5.9-0.2c-11.1-0.2-22.2-0.5-33.3-0.4c-0.4,0-0.8,0-1.1-0.1c-1.2-0.2-1.3-0.2-1.3-1.5
			c-0.1-1.9-0.1-1.9,1.8-1.9C176.8,241.9,185.4,241.4,194.1,241.5z"/>
		<path id="XMLID_1416_" class="st0" d="M163.8,251.4c-5.3,0-10.5,0-15.8,0c-1.5,0-1.5,0-1.5-1.5c0-1-0.4-2.1,0.2-2.8
			c0.6-0.8,1.8-0.1,2.8-0.1c9.9,0.1,19.9,0.4,29.8,0.5c3.3,0,6.6,0.2,9.9,0.2c1.5,0,1.5,0.1,1.5,1.5c0,1.7,0,1.8-1.7,1.8
			C180.6,251.1,172.2,251.5,163.8,251.4z"/>
		<path id="XMLID_1415_" class="st0" d="M398.2,330.1c10.6,0.2,21.2,0.2,31.8,0.3c1.8,0,1.8,0,1.8,1.9c0,2.8,0.2,2.5-2.5,2.4
			c-9.8-0.3-19.6-0.7-29.4-0.8c-3.8-0.1-7.4-0.2-11.2-0.2c-1.3,0-1.3-0.1-1.3-1.3c0-0.2,0-0.2,0-0.4c0-1.8,0-1.8,1.8-1.8
			C392.2,330.1,395.2,330.1,398.2,330.1z"/>
		<path id="XMLID_1414_" class="st0" d="M158.4,338.6c-4.6,0-9.2,0.2-13.8,0c-4.4-0.2-9-0.2-13.4-0.2c-1.3,0-1.4-0.1-1.4-1.3
			c0-3.6-0.5-3.1,3-2.9c6.8,0.3,13.7,0.5,20.6,0.7c6.4,0.2,12.9,0.2,19.2,0.3c1.6,0,1.6,0,1.6,1.7c0,1.8,0,1.8-1.9,1.8
			C167.6,338.7,163,338.7,158.4,338.6C158.4,338.6,158.4,338.6,158.4,338.6z"/>
		<path id="XMLID_1413_" class="st0" d="M221.6,329.1c3.8,0,7.6-0.2,11.4,0c5.9,0.2,11.9,0.2,17.8,0.2c1.5,0,1.5,0.1,1.5,1.4
			c0,3.5,0.4,3-2.8,2.8c-7.7-0.3-15.6-0.5-23.3-0.8c-5.4-0.2-10.7-0.2-16.2-0.2c-0.6,0-1.5,0.4-1.8-0.5c-0.3-0.8-0.2-1.8,0-2.7
			c0.1-0.4,0.6-0.4,0.9-0.4c1.3,0,2.6,0,3.8,0C215.9,329,218.8,329,221.6,329.1C221.6,329,221.6,329.1,221.6,329.1z"/>
		<path id="XMLID_1412_" class="st0" d="M334,339.6c-6,0-12,0.1-18,0c-1.6,0-3.1-0.2-4.8-0.2c-0.7,0-1.1-0.2-1.2-1
			c-0.2-3.3-0.3-3.2,3.1-3.1c3,0.2,6,0.2,9,0.3c8.7,0.2,17.3,0.5,25.9,0.5c1.7,0,3.3,0.2,5,0.2c0.9,0,1.4,0.2,1.3,1.2
			c0,0.2,0,0.5,0,0.8c0,1.3-0.1,1.4-1.3,1.4c-2.8,0-5.7,0-8.4,0c-3.5,0-7,0-10.5,0C334,339.7,334,339.6,334,339.6z"/>
		<path id="XMLID_1411_" class="st0" d="M202.4,34.6c4.8,0,9.6,0,14.3,0c1.5,0,1.5,0,1.6,1.5c0,0.8,0,1.5,0,2.2
			c0.1,0.8-0.3,1.1-1.1,1c-6.5-0.1-13,0.2-19.5-0.2c-3.5-0.2-6.9-0.1-10.3-0.1c-0.4,0-0.8,0-1.1,0c-0.7,0-1.1-0.2-1-0.9
			c0.1-3.1-0.8-3.1,2.9-3.2c4.8-0.1,9.4-0.1,14.2-0.1C202.4,34.7,202.4,34.6,202.4,34.6z"/>
		<path id="XMLID_1410_" class="st0" d="M235.7,34.7c4.7,0,9.4-0.1,14.1,0c2.7,0,2.8,0.2,2.6,2.8c-0.1,1.2-0.1,1.4-1.4,1.4
			c-3,0.1-6,0-9,0.2c-7,0.3-14,0.2-20.9,0.3c-1.7,0-1.7,0-1.7-1.7c0-3.5-0.5-3,3-3c4.4-0.1,8.8,0,13.2-0.1
			C235.7,34.5,235.7,34.6,235.7,34.7z"/>
		<path id="XMLID_1409_" class="st0" d="M273.2,75.8c3.7,0,7.4-0.1,11,0c2.5,0.1,5,0.2,7.5,0.2c0.8,0,1.1,0.3,1.1,1.1
			c-0.1,3.6,0.4,2.8-2.7,2.9c-9.2,0.3-18.4,0.5-27.5,0.4c-0.3,0-0.6,0-0.9,0c-1.9,0-1.8,0.1-1.8-1.8c0-2.9,0-2.9,2.9-2.9
			C266.3,75.7,269.8,75.7,273.2,75.8C273.2,75.7,273.2,75.7,273.2,75.8z"/>
		<path id="XMLID_1408_" class="st0" d="M245.5,75.7c4,0,8,0,12,0c1.3,0,1.3,0,1.4,1.3c0.2,3.4,0.2,3.4-3.3,3.4
			c-5.7,0-11.4,0.1-17.1-0.1c-3.8-0.1-7.4-0.2-11.2-0.2c-1.3,0-1.4-0.1-1.4-1.3c0-3.2-0.3-2.5,2.6-2.7
			C234.2,75.8,239.9,75.8,245.5,75.7z"/>
		<path id="XMLID_1407_" class="st0" d="M317.4,155.3c-4,0-8,0.1-12,0c-2,0-4.1-0.2-6.1-0.2c-0.9,0-1.2-0.4-1.2-1.2
			c0.1-3.4-0.3-2.8,2.7-2.8c9.4-0.2,18.9-0.5,28.3-0.4c2.3,0,2.1-0.2,2.1,2.1c0,3,0.4,2.5-2.7,2.6c-3.8,0-7.5,0-11.2,0
			C317.4,155.4,317.4,155.3,317.4,155.3z"/>
		<path id="XMLID_1406_" class="st0" d="M205.2,74.6c-3.6,0-7.2,0.1-10.9,0c-2.6-0.1-5.1-0.2-7.7-0.2c-0.9,0-1.2-0.4-1.2-1.2
			c0.1-3.3-0.4-2.7,2.7-2.8c9.4-0.3,18.9-0.4,28.3-0.4c2.2,0,2.1-0.2,2.1,2.1c0,2.9,0.5,2.6-2.6,2.6
			C212.3,74.6,208.7,74.6,205.2,74.6L205.2,74.6z"/>
		<path id="XMLID_1405_" class="st0" d="M344.3,155.3c-2.5,0-6.6,0-10.7,0c-1.3,0-1.3,0-1.4-1.3c-0.2-3.4-0.2-3.4,3.3-3.4
			c5,0,10-0.2,14.9,0.1c4.4,0.2,9,0.2,13.4,0.2c1.3,0,1.4,0.1,1.4,1.3c0,3.1,0.4,2.5-2.6,2.8C357,155.3,351.5,155.2,344.3,155.3z"/>
		<path id="XMLID_1404_" class="st0" d="M346.5,115.3c4.1,0,8.2-0.1,12.3,0c1.7,0,3.5,0.2,5.1,0.2c0.8,0,1.2,0.2,1.1,1.1
			c-0.1,3.6,0.3,2.9-2.7,3c-9.4,0.2-18.9,0.5-28.3,0.5c-2.1,0-2,0.2-2-2c0-2.8,0-2.8,2.8-2.8C338.8,115.3,342.7,115.3,346.5,115.3
			C346.5,115.3,346.5,115.3,346.5,115.3z"/>
		<path id="XMLID_1403_" class="st0" d="M231,69.9c6.6-0.2,13.2,0.4,19.9,0.3c1.5,0,1.5,0.1,1.5,1.5c0,2.7,0.2,2.4-2.3,2.5
			c-9.5,0.4-19,0.3-28.5,0.4c-0.4,0-0.8,0-1.1,0c-0.7,0-0.9-0.3-1-1c-0.3-3.7-0.3-3.7,3.4-3.8C225.7,69.9,228.4,69.9,231,69.9z"/>
		<path id="XMLID_1402_" class="st0" d="M375.7,333.6c-9.4-0.3-19.5-0.2-29.6-0.2c-1,0-2,0-2.9,0.2c-0.9,0.2-1.1-0.2-1.1-1
			c0-0.2,0-0.2,0-0.4c0-1.5,0-1.5,1.5-1.6c2.7-0.1,5.4-0.1,8.1-0.1c4.1-0.1,8.4,0.1,12.5-0.2c6.8-0.3,13.7-0.2,20.6-0.2
			c0.5,0,1.4-0.4,1.6,0.5c0.3,0.8,0.2,1.8,0,2.7c-0.2,0.5-0.8,0.3-1.2,0.3C382.3,333.6,379.4,333.6,375.7,333.6z"/>
		<path id="XMLID_1401_" class="st0" d="M377.6,336.4c6.7,0,13.3,0,20.1-0.1c0.5,0,0.8,0,1.3,0c0.6,0,0.8,0.3,0.8,0.9
			c0.2,1.7,0,1.9-1.7,1.9c-13.6,0.5-27.4,0.4-41,0.5c-0.5,0-1.4,0.3-1.6-0.4c-0.2-0.8-0.2-1.7,0-2.5c0.1-0.3,0.5-0.3,0.8-0.3
			c1.1,0,2.1,0,3.1,0C365.5,336.4,371.5,336.4,377.6,336.4L377.6,336.4z"/>
		<path id="XMLID_1400_" class="st0" d="M321.3,120c-7.1-0.1-14.3-0.2-21.5-0.3c-0.5,0-1.3,0.2-1.5-0.3c-0.3-0.8-0.2-1.8,0-2.7
			c0.1-0.2,0.4-0.3,0.6-0.4c0.5-0.1,1-0.2,1.5-0.2c4.5,0,9-0.2,13.6-0.6c5.2-0.4,10.4-0.2,15.6-0.4c1.6-0.1,1.6,0,1.6,1.6
			c0.1,3.1,0.1,3.1-3.1,3.1c-2,0-4.1,0-6.1,0C321.8,119.9,321.5,119.9,321.3,120L321.3,120z"/>
		<path id="XMLID_1399_" class="st0" d="M267.8,111c8.4,0.1,16,0.2,23.6,0.3c1.5,0,1.5,0,1.5,1.5c0,0.4,0,0.8,0,1.1
			c0,0.5-0.2,0.8-0.8,0.8c-0.5,0-0.8,0-1.3,0c-4.4-0.1-8.8,0.2-13.2,0.5c-5.4,0.4-10.7,0.3-16,0.4c-1.7,0-1.7,0-1.8-1.7
			c-0.1-3.1-0.1-3.1,3-3.1C264.8,111,266.7,111,267.8,111z"/>
		<path id="XMLID_1398_" class="st0" d="M197.5,335.3c6.5,0,13,0,19.5-0.1c0.4,0,0.8,0,1.1,0c0.5,0,1.1-0.2,1.3,0.3
			c0.3,0.7,0.2,1.5,0,2.1c-0.2,0.5-0.8,0.3-1.2,0.3c-2.9,0.1-5.9,0-8.8,0.2c-10.7,0.5-21.5,0.2-32.2,0.4c-2.2,0-2.5-0.4-2.1-2.5
			c0.1-0.5,0.3-0.8,0.8-0.8c0.4,0,0.8,0,1.1,0c6.8,0,13.6,0,20.4-0.1C197.5,335.3,197.5,335.3,197.5,335.3z"/>
		<path id="XMLID_1397_" class="st0" d="M207,330.8c0,0.4,0,0.8,0,1.1c0,0.5-0.2,0.7-0.7,0.7c-0.4,0-0.8,0-1.1,0
			c-6.4-0.4-12.9-0.2-19.2-0.2c-7-0.1-14,0-20.9,0.1c-0.3,0-0.6,0-0.9,0c-0.5,0-1.2,0.2-1.4-0.3c-0.3-0.7-0.2-1.5,0-2.1
			c0.2-0.5,0.7-0.4,1.2-0.4c2.1,0,4.3,0,6.4-0.1c11.3-0.3,22.8-0.4,34.1-0.4c0.3,0,0.6,0,0.9,0C207,329.1,207,329.1,207,330.8z"/>
		<path id="XMLID_1396_" class="st0" d="M233.7,287.2c-3.3,0.4-6.6,0.7-9.8,0.8c-3.5,0.2-7.1,0.3-10.7,0.5c-0.5,0-0.8,0.2-1.3,0.2
			c-6.2,0.2-12.5,0.4-18.7,0.5c-1.7,0.1-1.8,0-1.8-1.7c0-3-0.3-2.6,2.5-2.6c5.3,0.1,10.7,0.1,16,0.4c4.4,0.2,8.8,0.3,13.2,0.6
			c3.1,0.2,6.1,0.4,9.1,0.7C232.7,286.8,233.3,286.6,233.7,287.2z"/>
		<path id="XMLID_1395_" class="st0" d="M339.2,199c-3.8,0.9-7.7,1.1-11.5,1.3c-6.2,0.4-12.5,0.6-18.7,0.8c-3.2,0.1-6.4,0.3-9.7,0.3
			c-1.8,0-1.9,0-1.9-1.8c0-2.8-0.3-2.5,2.5-2.5c5.6,0.1,11.3,0.1,16.9,0.4c4.1,0.2,8.1,0.3,12.1,0.6c3.1,0.2,6.4,0.4,9.5,0.8
			C338.6,198.8,338.9,198.9,339.2,199z"/>
		<path id="XMLID_1394_" class="st0" d="M58.4,249c1.4-0.2,2.8-0.4,4.1-0.5c2.5-0.2,5-0.3,7.5-0.5c5.8-0.4,11.7-0.6,17.4-0.8
			c3.8-0.1,7.4-0.4,11.2-0.4c1.6,0,1.6,0,1.6,1.6c0,3.2,0.4,2.8-2.8,2.7c-5.5-0.1-11-0.2-16.6-0.4c-4.1-0.2-8.2-0.3-12.3-0.6
			c-3.1-0.2-6.4-0.4-9.5-0.8C59,249.4,58.7,249.5,58.4,249z"/>
		<path id="XMLID_1393_" class="st0" d="M164.3,199.5c1.4-0.2,2.7-0.4,4.1-0.5c2.5-0.2,4.9-0.3,7.3-0.5c5.8-0.4,11.6-0.7,17.4-0.8
			c3.8-0.1,7.7-0.4,11.6-0.4c1.5,0,1.5,0,1.5,1.5c0,3.4,0.4,2.8-2.8,2.8c-5.5-0.1-11-0.2-16.5-0.4c-4.9-0.2-9.7-0.4-14.6-0.7
			C169.6,200.3,166.9,200.3,164.3,199.5z"/>
		<path id="XMLID_1392_" class="st0" d="M339.3,160.7c-1.5,0.6-2.9,0.7-4.4,0.8c-5.7,0.4-11.3,0.7-17,0.9c-3.7,0.2-7.4,0.2-11,0.4
			c-2.7,0.2-5.4,0.3-8.1,0.3c-1.4,0-1.5-0.1-1.5-1.5c0-3.5-0.3-2.9,2.8-2.8c5.9,0.1,11.9,0.2,17.8,0.5c3.7,0.2,7.4,0.3,11,0.5
			C332.3,160,335.8,160.3,339.3,160.7z"/>
		<path id="XMLID_1391_" class="st0" d="M267.1,337.6c1-0.6,1.7-0.5,2.5-0.5c3.1-0.5,6.4-0.5,9.5-0.8c7.1-0.5,14.2-0.7,21.3-0.8
			c2.5-0.1,5-0.2,7.5-0.2c1.4,0,1.5,0,1.5,1.5c0,3.3,0.5,2.9-2.8,2.8c-5.9-0.1-11.9-0.2-17.8-0.5c-3.6-0.2-7.2-0.3-10.8-0.5
			C274.5,338.2,270.9,337.9,267.1,337.6z"/>
		<path id="XMLID_1390_" class="st0" d="M58.6,287.6c1.4-0.5,2.8-0.6,4.2-0.7c5.5-0.3,11.1-0.7,16.6-0.9c3.7-0.2,7.4-0.2,11-0.4
			c2.8-0.2,5.6-0.3,8.4-0.3c1.5,0,1.5,0.1,1.5,1.4c0,3.5,0.3,2.9-2.7,2.8c-5.9-0.1-11.7-0.1-17.6-0.5c-3.8-0.2-7.6-0.3-11.3-0.5
			C65.3,288.3,62,288,58.6,287.6z"/>
		<path id="XMLID_1389_" class="st0" d="M123.5,206c0.5-0.5,1-0.3,1.5-0.4c3.4-0.5,6.8-0.6,10.3-0.8c6.8-0.4,13.6-0.6,20.4-0.8
			c2.8-0.1,5.5-0.2,8.3-0.2c1.4,0,1.5,0,1.5,1.4c0,3.5,0.4,2.9-2.8,2.8c-5.8-0.1-11.5-0.2-17.3-0.5c-3.8-0.2-7.6-0.3-11.3-0.5
			c-3.3-0.2-6.6-0.5-9.9-0.8C124,206.2,123.7,206.3,123.5,206z"/>
		<path id="XMLID_1388_" class="st0" d="M267.1,375.8c1.7-0.7,3.3-0.6,4.8-0.8c2.5-0.3,5-0.4,7.5-0.5c7.7-0.5,15.3-0.8,22.9-0.9
			c1.9,0,3.9-0.2,5.9-0.2c0.8,0,1.2,0.2,1.2,1.2c0.2,3.2,0.2,3.2-3,3.1c-6.2-0.1-12.4-0.2-18.6-0.5c-3.5-0.2-6.8-0.3-10.3-0.5
			C274.1,376.4,270.8,376.2,267.1,375.8z"/>
		<path id="XMLID_1387_" class="st0" d="M298.8,244c-14,1.5-27.9,1.7-41.9,2.1c-0.3-1.2-0.1-2.4-0.2-3.5c0-0.6,0.3-0.8,0.9-0.8
			c1.7,0,3.3-0.1,5,0.1c1.9,0.2,3.8,0.2,5.7,0.2c6.6,0.2,13.2,0.5,19.9,0.8c2.9,0.2,5.8,0.4,8.8,0.7
			C297.5,243.5,298.1,243.5,298.8,244z"/>
		<path id="XMLID_1386_" class="st0" d="M437.6,249.9c-3.5,0.4-6.8,0.6-10.2,0.8c-6.1,0.5-12.2,0.5-18.3,0.9c-4,0.2-8,0.2-12,0.3
			c-1.5,0.1-1.5,0-1.5-1.5c0-3.3-0.3-2.8,2.7-2.8c7.7,0.2,15.3,0.3,22.9,0.7c4.9,0.2,9.9,0.4,14.8,1
			C436.5,249.4,437,249.4,437.6,249.9z"/>
		<path id="XMLID_1385_" class="st0" d="M295.1,331.7c-3.5,0.4-6.8,0.6-10.2,0.8c-6,0.4-12,0.5-17.9,0.8c-4.1,0.2-8.2,0.2-12.3,0.3
			c-1.5,0-1.5,0-1.5-1.5c0-3.4-0.4-2.8,2.8-2.8c7.6,0.2,15.2,0.3,22.8,0.7c4.9,0.2,9.9,0.5,14.8,1
			C293.9,331.2,294.4,331.2,295.1,331.7z"/>
		<path id="XMLID_1384_" class="st0" d="M119.9,293.7c1.4-0.6,2.8-0.6,4.1-0.7c2.7-0.3,5.4-0.4,8.1-0.5c7.3-0.5,14.6-0.7,21.9-0.8
			c2.2-0.1,4.4-0.2,6.6-0.2c0.8,0,1.2,0.3,1.2,1.2c-0.1,3.8,0.5,3.1-3,3.1c-5.9-0.1-11.9-0.1-17.8-0.5c-3.5-0.2-7.1-0.3-10.7-0.5
			C126.8,294.4,123.3,294.2,119.9,293.7z"/>
		<path id="XMLID_1383_" class="st0" d="M437.9,288.2c-3.5,0.5-6.7,0.6-10,0.9c-6.4,0.5-12.8,0.6-19.2,1c-3.9,0.2-7.8,0.2-11.7,0.2
			c-0.8,0-1.2-0.2-1.2-1.2c0.1-3.8-0.5-3.3,3-3.1c3.7,0.2,7.4,0.1,11,0.2c7.7,0.3,15.3,0.6,22.9,1.1
			C434.3,287.5,436,287.5,437.9,288.2z"/>
		<path id="XMLID_1382_" class="st0" d="M474.8,332.6c-3.5,0.8-6.7,0.8-10,1.1c-5,0.3-9.9,0.5-14.9,0.7c-4.4,0.2-9,0.2-13.4,0.4
			c-1,0-1.9,0.2-2.9,0.2c-0.7,0.1-1-0.3-1-1c0-1.1-0.3-2.3,0.2-3.1c0.5-0.9,1.9-0.2,2.9-0.2c6.7-0.2,13.3,0.2,20,0.5
			c2.9,0.1,5.8,0.2,8.7,0.5c2.2,0.2,4.5,0.2,6.7,0.4C472.4,332.2,473.4,332.3,474.8,332.6z"/>
		<path id="XMLID_1381_" class="st0" d="M474.6,294.2c-2,0.7-4,0.7-6,0.8c-5.5,0.3-11.1,0.8-16.6,0.9c-6.1,0.2-12.3,0.3-18.4,0.5
			c-0.8,0-1.2-0.2-1.1-0.9c0-0.8,0-1.7,0-2.6c0-0.6,0.3-0.9,0.9-0.8c1.2,0.1,2.3,0.2,3.5,0.2c6.5-0.1,13,0.2,19.5,0.5
			c5.3,0.2,10.7,0.4,16,1C473.1,293.9,473.8,294.1,474.6,294.2z"/>
		<path id="XMLID_1380_" class="st0" d="M262,250.3c2-0.7,3.6-0.7,5.2-0.8c5.9-0.4,11.8-0.7,17.8-1c4.4-0.2,8.8-0.2,13.2-0.4
			c1.6-0.1,3.1-0.2,4.8-0.2c0.9-0.1,1.3,0.2,1.3,1.2c-0.1,3.7,0.5,3.1-2.9,3.1c-6-0.1-12-0.1-18-0.5c-3.6-0.2-7.2-0.2-10.8-0.5
			C269.2,250.9,265.8,250.8,262,250.3z"/>
		<path id="XMLID_1379_" class="st0" d="M294.9,293.3c-3.3,0.3-6.4,0.6-9.7,0.8c-3.6,0.2-7.2,0.3-10.8,0.6c-0.4,0-0.7,0.1-1.1,0.2
			c-6.2,0.2-12.3,0.3-18.6,0.5c-0.3,0-0.6,0-0.9,0c-0.6,0-0.8-0.2-0.9-0.8c-0.4-3.4-0.3-3.5,3.1-3.5c7.5,0.2,15,0.3,22.5,0.7
			c4.9,0.2,9.9,0.4,14.8,1C293.9,292.9,294.5,292.9,294.9,293.3z"/>
		<path id="XMLID_1378_" class="st0" d="M298.5,205.7c-3.9,0.6-7.7,0.7-11.4,1c-4.5,0.4-9,0.5-13.6,0.6c-5,0.2-10,0.3-15,0.5
			c-1.6,0.1-1.7,0-1.7-1.5c0-3.2-0.4-2.8,2.7-2.7c5,0.1,10,0.1,15,0.4c4.6,0.3,9.2,0.3,13.7,0.6c3.1,0.2,6.1,0.5,9.1,0.7
			C297.7,205.3,298.1,205.1,298.5,205.7z"/>
		<path id="XMLID_1377_" class="st0" d="M442.6,375.4c-3.4,0.4-6.7,0.7-10,0.8c-3.3,0.2-6.6,0.3-9.9,0.5c-0.5,0-0.8,0.2-1.3,0.2
			c-6.4,0.2-12.7,0.4-19.1,0.5c-1.7,0.1-1.7,0-1.7-1.8c0-0.1,0-0.2,0-0.2c0-2.2,0-2.2,2.1-2.2c4.4,0.1,8.7,0.1,13,0.2
			c5.3,0.2,10.7,0.5,16,0.7c3,0.2,6,0.4,9,0.7C441.4,375,442.1,374.9,442.6,375.4z"/>
		<path id="XMLID_1376_" class="st0" d="M249,111.1c2.7,0,5.4,0,8.1,0c2.1,0,1.9-0.2,1.9,2c0,0.6,0,1.2,0,1.8c0,0.6-0.3,0.9-0.9,0.8
			c-2.2-0.2-4.5,0.2-6.7-0.3c-1.8-0.5-3.8-0.6-5.6-0.8c-5.9-0.4-11.8-0.8-17.8-0.8c-0.3,0-0.6,0-0.9,0c-0.9,0-1-0.6-1.1-1.4
			c0-0.8,0.5-1,1.2-1c2.8,0,5.6,0,8.4-0.1C240,111.3,244.5,111.1,249,111.1z"/>
		<path id="XMLID_1375_" class="st0" d="M225.5,372.1c7.6,0.2,15.2,0.5,22.8,0.7c0.8,0,1.6,0.2,2.4,0.2c0.8,0,1.1,0.4,1,1.2
			c0,0.6-0.2,1.1-0.9,1.1c-0.9,0-1.8,0.2-2.8,0.2c-3.5,0.2-7.1,0.3-10.7,0.5c-5.1,0.2-10.1,0.3-15.3,0.5c-1.8,0.1-1.8,0-1.8-1.8
			c0-2.8-0.4-2.5,2.4-2.5C223.7,372.1,224.6,372.1,225.5,372.1L225.5,372.1z"/>
		<path id="XMLID_1374_" class="st0" d="M200.4,159c1.5,0,3.1,0,4.6,0c0.9,0,1.2,0.3,1.2,1.2c0,3.8,0.2,3.1-2.9,3.1
			c-8-0.2-16-0.5-23.8-0.7c-1.2,0-2.3-0.2-3.5-0.2c-0.7,0-1-0.3-1-1s0.1-1.2,0.9-1.2c0.5,0,1.1-0.2,1.6-0.2c3.5-0.2,7-0.3,10.4-0.5
			C192.1,159.3,196.2,159.2,200.4,159L200.4,159z"/>
		<path id="XMLID_1373_" class="st0" d="M124.3,376.6c-7.5-0.2-15-0.5-22.5-0.7c-1.1,0-2.1-0.2-3.1-0.2c-0.8,0-0.8-0.5-0.8-1.2
			c0-0.6,0.2-1.1,0.9-1.1c0.8,0,1.7-0.2,2.5-0.2c4.8-0.2,9.7-0.4,14.5-0.5c3.9-0.2,7.8-0.4,11.7-0.4c1.6,0,1.6,0,1.6,1.6
			c0,3.2,0.3,2.6-2.5,2.7C125.8,376.7,125.1,376.7,124.3,376.6C124.3,376.7,124.3,376.7,124.3,376.6z"/>
		<path id="XMLID_1372_" class="st0" d="M214.3,152.8c7.4,0.2,14.9,0.5,22.3,0.8c0.5,0,1.1,0.2,1.6,0.2c0.8,0,1.2,0.4,1.2,1.2
			s-0.5,1-1.2,1c-2.8,0.1-5.5,0.3-8.3,0.5c-4.8,0.2-9.7,0.3-14.5,0.5c-2.1,0.1-4.1,0.2-6.2,0.2c-0.9,0-1.2-0.3-1.2-1.2
			c0.1-3.9-0.4-3.1,3.1-3.1C212.1,152.8,213.1,152.8,214.3,152.8z"/>
		<path id="XMLID_1371_" class="st0" d="M113.6,157.2c-7.7-0.2-15.3-0.5-22.9-0.7c-1.4-0.1-2.8-0.2-4.2-0.3c-0.6,0-0.9-0.2-0.9-0.8
			c0-0.6-0.2-1.3,0.8-1.4c0.6-0.1,1.2-0.2,1.8-0.2c2.5-0.1,4.9-0.2,7.4-0.3c6.6-0.3,13.2-0.4,19.8-0.5c1.5,0,1.5,0,1.5,1.5
			c0,3.2,0.5,2.8-2.6,2.8C113.9,157.3,113.7,157.3,113.6,157.2C113.5,157.3,113.6,157.3,113.6,157.2z"/>
		<path id="XMLID_1370_" class="st0" d="M333.7,296.7c-5.3-0.2-10.5-0.2-15.8-0.5c-2.3-0.1-4.5-0.2-6.8-0.3c-0.7,0-1.2-0.2-1.2-1.1
			c0-0.7,0.2-1.2,1-1.2c0.3,0,0.6-0.1,0.9-0.1c2.9-0.2,5.8-0.2,8.7-0.4c5.6-0.3,11.1-0.4,16.7-0.5c1,0,1.9-0.1,2.9-0.2
			c0.8-0.1,1.2,0.2,1.2,1c0,0.8,0,1.6,0,2.4s-0.3,1-1.2,1c-2.1-0.1-4.3,0-6.4,0C333.7,296.8,333.7,296.7,333.7,296.7z"/>
		<path id="XMLID_1369_" class="st0" d="M124.1,334c1.4,0,2.7,0,4.1,0c0.6,0,0.8,0.2,0.9,0.8c0.4,3.4,0.3,3.5-3.1,3.5
			c-7.7-0.2-15.4-0.5-23.1-0.7c-1.4-0.1-2.7-0.2-4-0.2c-0.8,0-1.1-0.3-1.1-1.1s0.3-1.1,1.1-1.2c1.2-0.1,2.5-0.2,3.7-0.2
			c5.3-0.2,10.5-0.5,15.8-0.5C120.2,334.3,122.1,334.1,124.1,334z"/>
		<path id="XMLID_1368_" class="st0" d="M110.7,114.7c1.6,0,3.2,0.1,4.8,0c1-0.1,1.3,0.4,1.2,1.3c-0.1,0.6,0,1.2,0,1.8
			c0.1,0.8-0.2,1.3-1.2,1.2c-5.1-0.5-10.3-0.1-15.4-0.5c-1.1-0.1-2.1-0.1-3.1-0.1c-3.5,0.1-7-0.4-10.4-0.4c-0.7,0-1.2-0.1-1.2-1
			c0-0.8,0.2-1.3,1.1-1.4c0.3,0,0.6-0.1,0.9-0.1c3.3-0.2,6.6-0.3,9.9-0.5C101.7,115,106.1,114.9,110.7,114.7L110.7,114.7z"/>
		<path id="XMLID_1367_" class="st0" d="M297.9,290.5c-5.2-0.2-10.4-0.2-15.6-0.5c-2.5-0.2-5-0.2-7.5-0.3c-0.6,0-1.3,0.1-1.6-0.6
			c-0.5-0.8,0.1-1.7,1.2-1.8c2.1-0.2,4.3-0.3,6.4-0.4c6.7-0.2,13.3-0.5,20-0.6c0.8,0,1.5-0.2,2.2-0.2c1.3-0.1,1.4,0,1.4,1.2
			c0,0.4,0,0.8,0,1.1c0,1.9,0,1.9-1.8,1.9C301,290.5,299.5,290.6,297.9,290.5L297.9,290.5z"/>
		<path id="XMLID_1366_" class="st0" d="M123.6,244.3c1.5-0.5,3.1-0.6,4.6-0.7c5.7-0.4,11.3-0.7,17-0.9c3.7-0.2,7.4-0.2,11-0.3
			c2.6-0.1,5.1-0.4,7.7-0.3c0.5,0,1.2-0.3,1.4,0.5c0.2,0.8,0.3,1.7-0.2,2.5c-0.2,0.5-0.8,0.2-1.2,0.2c-2.1,0-4.3,0-6.4,0
			c-7.2,0-14.3,0.1-21.5,0.1C132,245.3,127.8,245.1,123.6,244.3z"/>
		<path id="XMLID_1365_" class="st0" d="M233.3,248.8c-3,0.6-6.1,0.8-9,1c-4.5,0.2-9,0.5-13.6,0.7c-0.2,0-0.5,0.1-0.8,0.1
			c-5.6,0.2-11.1,0.3-16.7,0.5c-0.5,0-1.2,0.3-1.5-0.4c-0.2-0.8-0.2-1.7,0-2.5c0.2-0.4,0.6-0.3,1-0.3c1.3,0,2.6,0,3.8,0
			c8.1,0,16.2-0.1,24.2-0.1C225.1,247.7,229.2,248,233.3,248.8z"/>
		<path id="XMLID_1364_" class="st0" d="M442.6,337.1c-6.5,0.8-12.8,1.1-19.1,1.4c-6.9,0.3-13.8,0.6-20.8,0.7c-0.2,0-0.4,0-0.5,0
			c-1.5,0-2.1-1-1.5-2.4c0.1-0.2,0.2-0.4,0.5-0.4c0.5,0,0.8,0,1.3-0.1c5.4-0.1,10.7,0,16-0.2c4.8-0.1,9.7-0.4,14.5-0.2
			c3,0.1,6,0.4,9,0.8C442.2,336.8,442.3,336.9,442.6,337.1z"/>
		<path id="XMLID_1363_" class="st0" d="M119.7,332c1.8-0.7,3.6-0.7,5.4-0.8c5.9-0.5,11.9-0.7,17.8-1c3.9-0.2,7.8-0.2,11.7-0.3
			c2-0.1,4.1-0.2,6.1-0.2c0.5,0,1.1-0.1,1.2,0.5c0.2,0.7,0.2,1.3-0.1,2c-0.1,0.2-0.3,0.2-0.5,0.2c-0.3,0.1-0.6,0.1-0.9,0.1
			c-9.4,0.2-18.9,0.3-28.3,0.4C128,333,123.9,332.7,119.7,332z"/>
		<path id="XMLID_1362_" class="st0" d="M325.8,333.9c-4.8,0-9.6,0-14.3,0c-0.5,0-1.2,0.2-1.3-0.6c-0.2-0.8,0.1-1.2,1-1.4
			c0.5-0.1,1.1-0.2,1.6-0.2c3.5-0.2,7-0.3,10.4-0.5c5.3-0.2,10.5-0.4,15.8-0.6c0.5,0,0.8,0,1.3,0c0.9-0.2,1.2,0.4,1.2,1.2
			c0,0.2,0,0.5,0,0.8c0.1,0.8-0.3,1.1-1.1,1.1c-2.1,0-4.3,0-6.4,0.1c-2.7,0-5.4,0-8.1,0C325.8,333.8,325.8,333.9,325.8,333.9z"/>
		<path id="XMLID_1361_" class="st0" d="M244.4,334.9c2,0,4.1,0,6.1,0c0.8,0,1.2,0.2,1.2,1c0,0.8-0.2,1.1-1.1,1.2
			c-1.8,0.1-3.7,0.2-5.5,0.3c-5.4,0.2-10.7,0.5-16.2,0.5c-2.2,0.1-4.4,0.2-6.6,0.2c-2,0-2,0-2-1.2c-0.1-1.5-0.1-1.5,2.1-1.6
			c4.1-0.1,8.4,0,12.5-0.1C238,335.1,241.2,334.9,244.4,334.9z"/>
		<path id="XMLID_1360_" class="st0" d="M181,74.3c-6.1-0.2-12-0.5-17.8-0.8c-0.4,0-0.7-0.1-1.1-0.2c-0.5-0.2-0.5-0.5-0.6-1
			c0-0.5,0.2-0.8,0.7-0.9c0.6-0.1,1.2-0.2,1.8-0.2c3.9-0.2,7.8-0.3,11.7-0.5c2.5-0.1,5-0.2,7.5-0.3c1.6-0.1,1.6,0,1.7,1.5
			c0,0.2,0,0.2,0,0.4c0,2.1,0.2,2-2,2C182.2,74.3,181.4,74.3,181,74.3z"/>
		<path id="XMLID_1359_" class="st0" d="M257.4,74.1c-1.1,0-2.2,0-3.3,0c-0.3,0-0.8,0-0.8-0.3c-0.2-1.1-0.2-2.2,0-3.3
			c0.1-0.5,0.6-0.4,0.9-0.4c1.5,0,2.9-0.1,4.4,0.1c1.7,0.2,3.5,0.2,5.1,0.2c3.5,0.2,7,0.3,10.4,0.5c0.5,0,1.1,0.2,1.6,0.2
			c0.5,0.1,0.8,0.3,0.8,0.8s-0.1,1-0.7,1.2c-0.4,0.1-0.7,0.2-1.1,0.2c-3,0.2-6,0.3-9,0.5C263,73.8,260.3,74,257.4,74.1L257.4,74.1z"
			/>
		<path id="XMLID_1358_" class="st0" d="M182.7,38.9c-5.8-0.2-11.5-0.4-17.3-0.6c-1.1-0.1-2.2-0.2-3.3-0.3c-0.5-0.1-0.8-0.3-0.8-0.8
			s0-1,0.6-1.2c0.2-0.1,0.5-0.1,0.7-0.1c2.5-0.2,4.9-0.3,7.4-0.4c4.4-0.2,8.8-0.5,13.2-0.5c1.5,0,1.5,0,1.5,1.5c0,0.2,0,0.2,0,0.4
			C184.8,38.9,185.2,38.9,182.7,38.9z"/>
		<path id="XMLID_1357_" class="st0" d="M297.8,76c5.9,0.2,11.7,0.5,17.6,0.8c0.7,0,1.4,0,1.4,1c0,0.6-0.2,1.1-0.8,1.1
			c-0.5,0-1.1,0.2-1.6,0.2c-3.2,0.2-6.4,0.3-9.7,0.5c-3.1,0.2-6.4,0.2-9.5,0.4c-1.4,0.1-1.5,0-1.5-1.4c0-2.9-0.3-2.5,2.4-2.5
			C296.5,76,297.2,76,297.8,76z"/>
		<path id="XMLID_1356_" class="st0" d="M221.8,80.1c-5.8-0.2-11.6-0.5-17.4-0.7c-0.5,0-1.1-0.2-1.6-0.2c-0.6,0-0.8-0.3-0.8-0.9
			c0-0.6,0.2-1.1,0.8-1.2c0.2,0,0.5-0.1,0.8-0.1c3.7-0.2,7.4-0.3,11-0.5c3.1-0.2,6.1-0.4,9.1-0.4c1.4,0,1.5,0,1.5,1.4
			c0,3.1,0.2,2.5-2.5,2.5C222.3,80.1,222.1,80.1,221.8,80.1L221.8,80.1z"/>
		<path id="XMLID_1355_" class="st0" d="M370.5,154.8c-1.2,0-2.3,0-3.5,0c-1.2,0-1.2-0.1-1.2-1.7c0-2.1,0-2.1,1.1-2.1
			c0.9,0,1.8,0,2.8,0.1c5.2,0.2,10.4,0.4,15.6,0.6c0.9,0.1,1.8,0.2,2.8,0.2c0.8,0,1.1,0.3,1.1,1.1c0,0.8-0.5,1-1.2,1
			c-2.5,0.2-5,0.3-7.5,0.4C377.1,154.5,373.8,154.7,370.5,154.8L370.5,154.8z"/>
		<path id="XMLID_1354_" class="st0" d="M292.6,155.1c-5.5-0.2-11.1-0.5-16.7-0.8c-0.3,0-0.6-0.1-0.9-0.1c-0.6-0.1-0.8-0.5-0.8-1.1
			c0-0.6,0.2-0.9,0.8-0.9c0.8-0.1,1.5-0.2,2.1-0.2c3.7-0.2,7.4-0.3,11-0.5c2.5-0.1,5-0.2,7.5-0.3c1.6-0.1,1.7,0,1.7,1.5
			c0,2.8,0.2,2.4-2.3,2.4C294.3,155.1,293.5,155.1,292.6,155.1z"/>
		<path id="XMLID_1353_" class="st0" d="M370.8,115.6c5.5,0.2,11.3,0.5,17,0.8c1.2,0.1,1.3,0.3,1.2,1.3c0,0.5-0.3,0.8-0.8,0.8
			c-0.8,0.1-1.7,0.2-2.5,0.2c-4.4,0.1-8.7,0.5-13,0.5c-1.8,0-3.5,0.2-5.3,0.2c-1.5,0.1-1.5,0-1.5-1.4c0-3-0.3-2.5,2.5-2.5
			C369.1,115.6,369.8,115.6,370.8,115.6z"/>
		<path id="XMLID_1352_" class="st0" d="M324.6,113.3c-1.5,0.5-2.9,0.7-4.4,0.8c-3.3,0.2-6.6,0.2-9.9,0.4
			c-5.3,0.2-10.5-0.1-15.8,0.4c-0.2,0-0.3,0-0.4,0c-0.9-0.6-0.3-1.5-0.5-2.4c-0.1-0.5,0.1-1,0.8-1c0.7,0,1.4-0.1,2,0
			c2.1,0.2,4.1,0.2,6.2,0.2c4.8,0.2,9.5,0.4,14.3,0.8C319.5,112.6,322.1,112.8,324.6,113.3z"/>
		<path id="XMLID_1351_" class="st0" d="M266,117.8c2.1-0.5,3.9-0.8,5.8-0.8c7.9-0.2,15.8-0.3,23.7-0.5c0.2,0,0.5,0,0.8,0
			c0.8-0.1,1.2,0.2,1.1,1c0,0.1,0,0.2,0,0.2c0.1,2,0.1,2.1-1.9,2c-6.1-0.2-12.3-0.3-18.3-0.8C273.5,118.6,269.9,118.6,266,117.8z"/>
		<path id="XMLID_1350_" class="st0" d="M258.2,34.8c5.4,0.2,10.7,0.5,16.2,0.8c0.5,0,0.8,0.1,1.3,0.2c0.6,0.2,0.7,0.6,0.7,1.2
			s-0.3,0.8-0.8,0.8c-1,0.1-1.9,0.2-2.9,0.3c-4.1,0.2-8.2,0.3-12.3,0.5c-1.9,0.1-3.8,0.2-5.7,0.3c-1.5,0.1-1.5,0-1.5-1.4
			c0-3-0.3-2.5,2.5-2.5C256.5,34.8,257.4,34.8,258.2,34.8L258.2,34.8z"/>
		<path id="XMLID_1349_" class="st0" d="M246.2,117c-1.8,0.2-3.7,0.4-5.4,0.5c-2.2,0.1-4.4,0.2-6.5,0.4c-0.4,0.1-0.8,0.1-1.1,0.1
			c-5.7,0.2-11.3,0.3-16.9,0.5c-2.3,0.1-4.7,0.2-7,0.2c-1.2,0-1.2-0.1-1.2-1.5c0-1.2,0.1-1.4,1.2-1.3c4.4,0.5,8.7,0.2,13,0.5
			c4.1,0.2,8.2,0.2,12.3,0.2c3.7,0.1,7.4,0.1,11,0.1C245.7,116.8,245.9,116.7,246.2,117z"/>
		<path id="XMLID_1348_" class="st0" d="M263.6,334.6c3.1-0.3,6.1-0.4,9.2-0.5c5.8-0.2,11.6-0.5,17.4-0.9c1.6-0.1,3.3-0.4,4.9-0.6
			c0.5-0.1,1-0.2,1.3,0.6c0.2,0.7,1.1,0.7,1.7,1c-1.6,0.1-3.1,0.2-4.8,0.3c-4.8,0.2-9.6,0.2-14.3,0.5c-4.3,0.3-8.7,0.5-13,1.2
			c-0.3,0.1-0.8,0.2-0.8-0.2C265.2,335.2,264.3,335.1,263.6,334.6z"/>
		<path id="XMLID_1347_" class="st0" d="M201.8,112.8c1.5-0.2,2.5-0.4,3.6-0.5c4.2-0.2,8.4-0.3,12.7-0.5c2-0.1,4-0.2,6.1-0.3
			c0.8-0.1,1.2,0.2,1.2,1c0,0.8-0.2,1.2-1.1,1.1c-3.7-0.2-7.4,0-11-0.2c-3.1-0.2-6.1-0.1-9.2-0.2
			C203.4,113.3,202.8,113.4,201.8,112.8z"/>
		<path id="XMLID_1346_" class="st0" d="M175.1,333.9c0.5-0.8,1.3-0.5,1.9-0.5c5.4,0,10.9,0.1,16.3,0.2c3.8,0,7.7,0,11.6,0
			c0.5,0,0.8,0,1.3,0c0.3,0,0.7,0.1,0.6,0.5c0,0.4-0.4,0.4-0.7,0.4c-3.5,0-7,0.1-10.4,0c-6.4-0.1-12.9-0.2-19.2-0.2
			C176.1,334.2,175.6,334.3,175.1,333.9z"/>
		<path id="XMLID_1345_" class="st0" d="M355.5,335.2c0.4-0.7,0.8-0.6,1.3-0.6c9.4,0,18.6,0,28,0c0.2,0,0.5,0,0.8,0
			c0.3,0,0.7,0.1,0.6,0.5s-0.4,0.4-0.7,0.4c-4.1,0-8.2,0-12.3,0c-4.4,0-9,0-13.4-0.1C358.3,335.4,356.9,335.3,355.5,335.2z"/>
		<path id="XMLID_1344_" class="st0" d="M294.9,291.5c8.5,0.3,16.7-0.1,24.8,0.5c-3.8,0-7.6,0.4-11.4,0.6c-3.1,0.2-6.2,0.5-9.3,0.8
			c-0.3,0-0.9,0.4-1-0.1C297.6,291.9,296.1,292.5,294.9,291.5z"/>
		<path id="XMLID_1343_" class="st0" d="M225.5,115.1c-2.3,0.6-16,0.2-17.5-0.5C209.1,114.3,222.8,114.5,225.5,115.1z"/>
		<path id="XMLID_1342_" class="st0" d="M87.1,336.4c2.9-0.6,5.8-1.2,8.8-1.2c0.5,0,1.2-0.2,1.3,0.6c0.2,0.9-0.1,1.4-1.1,1.4
			c-2-0.1-4-0.3-6-0.5C89.2,336.7,88.2,336.6,87.1,336.4z"/>
		<path id="XMLID_1341_" class="st0" d="M87.5,374.8c2.9-0.8,5.8-1.1,8.8-1.2c0.7,0,1.2,0.2,1.2,1.1s-0.5,1-1.2,1
			c-2.1-0.2-4.1-0.3-6.2-0.5C89.2,375.1,88.3,374.9,87.5,374.8z"/>
		<path id="XMLID_1340_" class="st0" d="M250,154.7c-1.2,0.7-2.2,0.5-3.3,0.6c-1.8,0.2-3.8,0.4-5.7,0.5c-0.7,0.1-1.3-0.1-1.3-1.1
			c0-0.6,0.2-0.9,0.8-0.9c0.9,0,1.8-0.1,2.8,0.1C245.5,154.2,247.7,154.1,250,154.7z"/>
		<path id="XMLID_1339_" class="st0" d="M262,374c-2.8,0.8-5.5,0.8-8.3,1.2c-0.8,0.1-0.9-0.3-0.9-1c0-0.6,0.2-1.1,0.9-1
			c1.9,0.2,3.9,0.3,5.8,0.5C260.3,373.8,261.2,373.9,262,374z"/>
		<path id="XMLID_1338_" class="st0" d="M164.3,161.1c2.8-0.5,5.7-0.7,8.5-0.8c0.7-0.1,1.1,0.2,1,0.9c0,0.8-0.3,1.2-1.1,1.1
			c-2.8-0.3-5.5-0.3-8.2-0.8C164.4,161.4,164.4,161.3,164.3,161.1z"/>
		<path id="XMLID_1337_" class="st0" d="M244.2,115.6c-5.8,0.2-11.4,0.2-17.2,0c-0.2,0-0.2,0-0.4,0c-0.3,0-0.6-0.1-0.6-0.5
			c0-0.3,0.3-0.3,0.5-0.3c1.8,0.1,3.5,0.1,5.3,0.2c0.7,0,1.3,0.2,2,0.2C237.4,115.1,240.8,115.7,244.2,115.6z"/>
		<path id="XMLID_1336_" class="st0" d="M74.8,155.1c2.8-0.4,5.5-0.7,8.4-0.8c1.1-0.1,1.4,0.5,1.2,1.5c-0.1,0.3-0.3,0.5-0.6,0.5
			c-2.9-0.4-5.8-0.2-8.7-0.9C74.9,155.2,74.9,155.1,74.8,155.1z"/>
		<path id="XMLID_1335_" class="st0" d="M262.1,335.6c-1.2,0.8-2.5,0.7-3.8,0.8c-1.5,0.2-3.1,0.1-4.5,0.4c-0.7,0.2-1.2-0.1-1.2-0.9
			c0-0.8,0.3-1.2,1.1-1.1C256.5,335.1,259.3,335.3,262.1,335.6z"/>
		<path id="XMLID_1334_" class="st0" d="M74.8,116.8c2.8-0.5,5.5-0.8,8.2-0.9c1.1,0,1.5,0.4,1.2,1.4c-0.1,0.3-0.2,0.6-0.6,0.5
			C80.7,117.5,77.7,117.6,74.8,116.8z"/>
		<path id="XMLID_1333_" class="st0" d="M299.2,333c2.8-0.5,5.7-0.8,8.6-0.9c0.5,0,1-0.2,1.2,0.5c0.2,0.8-0.2,1.2-1,1.2
			C305,333.9,302.1,333.6,299.2,333z"/>
		<path id="XMLID_1332_" class="st0" d="M262.3,288.6c1.9-0.7,3.8-0.5,5.4-0.8c1.2-0.2,2.3-0.2,3.5-0.2c0.5-0.1,0.8,0.1,0.8,0.6
			s0.2,1.2-0.7,1.2c-0.3,0-0.6,0-0.9,0C267.8,289.3,265.2,289.1,262.3,288.6z"/>
		<path id="XMLID_1331_" class="st0" d="M298.9,294.7c3.1-0.5,6-0.8,8.9-0.9c0.8,0,1.2,0.3,1.1,1.1c0,0.5-0.3,0.8-0.8,0.8
			c-1,0-2,0.1-2.9-0.1C303.1,295.2,301.1,295.3,298.9,294.7z"/>
		<path id="XMLID_1316_" class="st0" d="M219.3,334c-0.2,0.5-0.6,0.3-0.9,0.3c-3,0-6,0-9,0c-0.3,0-0.6,0-0.9-0.1
			c-0.2,0-0.5-0.2-0.5-0.5c0-0.2,0.2-0.2,0.4-0.3c0.1,0,0.2,0,0.2,0c3.5,0.1,7-0.2,10.4,0.3C219.2,333.9,219.2,334,219.3,334z"/>
		<path id="XMLID_1315_" class="st0" d="M399.6,335.1c-0.2,0.5-0.6,0.3-0.9,0.3c-3.3,0-6.6,0-9.9,0c-0.2,0-0.5,0-0.8,0
			c-0.2,0-0.5-0.2-0.5-0.4c0-0.3,0.2-0.4,0.5-0.4c1.2,0,2.5-0.1,3.7,0c2.4,0.2,4.8,0.1,7.1,0.2C399.1,334.9,399.4,334.7,399.6,335.1
			z"/>
		<path id="XMLID_1314_" class="st0" d="M396.7,117.4c-2,0.6-4,0.6-6,0.9c-0.5,0.1-1.2,0.1-1.2-0.8c0-0.8,0.4-0.9,1.1-0.9
			C392.7,116.6,394.7,116.9,396.7,117.4z"/>
		<path id="XMLID_1313_" class="st0" d="M397.3,152.8c-2.5,0.5-4.7,0.8-6.8,0.8c-0.5,0-0.8-0.3-0.8-0.8c0-0.6,0.3-0.9,0.9-0.8
			c1.6,0.2,3.3,0.3,4.9,0.5C395.9,152.5,396.4,152.7,397.3,152.8z"/>
		<path id="XMLID_1312_" class="st0" d="M153.4,72.5c2.4-0.7,4.4-0.6,6.4-0.9c0.7-0.1,1,0.2,1,0.9c0,0.7-0.4,0.8-1,0.8
			C157.7,73.2,155.7,72.9,153.4,72.5z"/>
		<path id="XMLID_1311_" class="st0" d="M284.3,72.2c-2,0.5-4,0.7-6,0.8c-0.6,0-0.8-0.2-0.8-0.8c0-0.6,0.2-0.9,0.9-0.8
			C280.3,71.5,282.3,71.6,284.3,72.2z"/>
		<path id="XMLID_1310_" class="st0" d="M284.2,36.8c-1.9,0.2-3.8,0.5-5.8,0.7c-0.5,0.1-1,0.2-1.1-0.6c-0.1-0.6,0.1-1.1,0.8-1.1
			C280.2,35.9,282.1,36.2,284.2,36.8z"/>
		<path id="XMLID_1309_" class="st0" d="M153.8,37.1c-0.1-0.3,0.2-0.3,0.4-0.3c1.8-0.3,3.6-0.6,5.4-0.6c0.7,0,1,0.2,1,0.9
			c0,0.8-0.6,0.8-1.2,0.7C157.6,37.5,155.7,37.6,153.8,37.1z"/>
		<path id="XMLID_1308_" class="st0" d="M354.4,335.3c-4.1,0-8.1,0-12-0.1c0-0.2,0-0.3,0-0.5c1.3,0,2.6-0.1,3.8-0.1
			c1.4,0,2.8,0,4.2,0C353.4,334.6,353.4,334.6,354.4,335.3z"/>
		<path id="XMLID_1307_" class="st0" d="M194.2,78.2c1.9-0.5,3.8-0.8,5.8-0.8c0.6,0,0.9,0.2,0.9,0.8c0,0.6-0.2,0.9-0.8,0.8
			C198.1,78.8,196.2,78.7,194.2,78.2z"/>
		<path id="XMLID_1306_" class="st0" d="M266.6,153.2c1.7-0.7,3.5-0.5,5.3-0.8c0.5-0.1,1.3-0.3,1.3,0.7c0.1,0.9-0.5,0.9-1.2,0.9
			C270.2,153.8,268.4,153.7,266.6,153.2z"/>
		<path id="XMLID_1305_" class="st0" d="M324.5,77.8c-1.8,0.7-3.6,0.5-5.4,0.8c-0.4,0.1-0.8,0.2-1.2-0.3c-0.3-0.7,0.1-1.3,0.8-1.3
			C320.7,77.1,322.6,77.4,324.5,77.8z"/>
		<path id="XMLID_1304_" class="st0" d="M177,201.9c3.7-0.3,7.4,0.5,10.2,0.4c-2.8,0-6.5,0-10.2,0C177,202.1,177,202.1,177,201.9z"
			/>
		<path id="XMLID_1303_" class="st0" d="M341.1,335.2c-3.7,0.1-7.4-0.5-11-0.4c3.7,0,7.4,0,11,0C341.1,334.9,341.1,335,341.1,335.2z
			"/>
		<path id="XMLID_1302_" class="st0" d="M276.7,202.8c2.8-0.1,5.8-0.2,8.6,0.2C282.4,203.5,279.6,202.7,276.7,202.8z"/>
		<path id="XMLID_1301_" class="st0" d="M149.4,333.6c4,0,8.1,0,12,0c0,0.1,0,0.2,0,0.2c-4,0-8.1,0-12,0
			C149.4,333.8,149.4,333.7,149.4,333.6z"/>
		<path id="XMLID_1300_" class="st0" d="M202.4,114.5c2.6-0.4,3.7-0.3,5,0.4C205.4,114.8,203.9,114.8,202.4,114.5z"/>
		<path id="XMLID_1299_" class="st0" d="M84.9,154.4c0.3,0.5,0.2,1,0.2,1.5C84.7,155.4,84.8,155,84.9,154.4z"/>
		<path id="XMLID_1298_" class="st0" d="M252.3,373.5c0,0.4,0,0.8,0,1.2c-0.1,0-0.1,0-0.2,0c0-0.5,0-0.9,0-1.3
			C252.2,373.5,252.3,373.5,252.3,373.5z"/>
		<path id="XMLID_1297_" class="st0" d="M293.8,291.5c-0.8,0.2-1.2,0.2-1.8,0.1C292.5,291.2,292.9,291.4,293.8,291.5z"/>
		<path id="XMLID_1296_" class="st0" d="M84.8,116.1c0.2,0.5,0.2,1,0.1,1.5C84.5,117.1,84.7,116.6,84.8,116.1z"/>
		<path id="XMLID_1295_" class="st0" d="M190.7,285.3c-0.1-0.1-0.2-0.2-0.3-0.2C190.5,285,190.9,284.9,190.7,285.3z"/>
		<path id="XMLID_1294_" class="st0" d="M286.9,203.1c-0.1,0-0.1,0.1-0.2,0.1s-0.1-0.1-0.1-0.1C286.7,203.1,286.7,203.1,286.9,203.1
			C286.8,203,286.8,203.1,286.9,203.1z"/>
	</g>
</g>
<g id="arrows">
	<path id="ar5" class="ar" d="M389.4,27.8c0.3,0.4,0.6,0.8,1,1.1c12.6,12.6,25.2,25.2,37.8,37.8c1.8,1.8,3.1,3.7,3.5,6.2
		c0.7,4.4-1.4,8.7-5.3,10.7c-3.9,2.1-8.6,1.4-11.8-1.8c-4.8-4.7-9.5-9.5-14.2-14.2c-0.3-0.3-0.5-0.5-1.1-1c0,0.7,0,1.2,0,1.7
		c0,16.6,0,33.1,0,49.7c0,5.8-4.4,10.3-9.9,10.3c-5.8,0.1-10.3-4.4-10.3-10.2c0-9.4,0-18.8,0-28.2c0-7.2,0-14.4,0-21.6
		c0-0.5,0-0.9,0-1.7c-0.5,0.5-0.8,0.8-1.1,1.1c-4.5,4.5-9,9-13.5,13.5c-3.1,3.1-6.8,4.4-11.1,2.9c-7.1-2.5-9.1-11.4-3.7-16.8
		c12.8-12.9,25.7-25.7,38.5-38.5c0.3-0.3,0.6-0.8,0.9-1.1C389.1,27.8,389.3,27.8,389.4,27.8z"/>
	<path id="ar4" class="ar" d="M119,0c0.4,0.5,0.8,1.1,1.3,1.5c17.3,17.3,34.6,34.6,51.9,51.9c2.4,2.4,4.3,5.1,4.8,8.5c1,6.1-1.9,11.9-7.3,14.7
		c-5.4,2.8-11.8,1.9-16.2-2.4c-6.5-6.5-13-13-19.6-19.5c-0.4-0.4-0.7-0.7-1.4-1.3c0,1,0,1.7,0,2.3c0,22.7,0,45.5,0,68.2
		c0,7.9-6,14.1-13.6,14.2c-8,0.1-14.2-6-14.2-14c0-12.9,0-25.8,0-38.7c0-9.9,0-19.8,0-29.7c0-0.6,0-1.2,0-2.3
		c-0.7,0.7-1.2,1.1-1.6,1.5c-6.2,6.2-12.4,12.4-18.6,18.6c-4.3,4.3-9.4,6-15.3,4c-9.8-3.4-12.5-15.7-5.1-23.1
		C81.8,36.8,99.4,19.2,117,1.6c0.5-0.5,0.8-1,1.2-1.6C118.5,0,118.7,0,119,0z"/>
	<path id="ar3" class="ar" d="M271.9,43c0.4,0.5,0.8,1.1,1.3,1.5c17.3,17.3,34.6,34.6,51.9,51.9c2.4,2.4,4.3,5.1,4.8,8.5
		c1,6.1-1.9,11.9-7.3,14.7c-5.4,2.8-11.8,1.9-16.2-2.4c-6.5-6.5-13-13-19.6-19.5c-0.4-0.4-0.7-0.7-1.4-1.3c0,1,0,1.7,0,2.3
		c0,22.7,0,45.5,0,68.2c0,7.9-6,14.1-13.6,14.2c-8,0.1-14.2-6-14.2-14c0-12.9,0-25.8,0-38.7c0-9.9,0-19.8,0-29.7c0-0.6,0-1.2,0-2.3
		c-0.7,0.7-1.2,1.1-1.6,1.5c-6.2,6.2-12.4,12.4-18.6,18.6c-4.3,4.3-9.4,6-15.3,4c-9.8-3.4-12.5-15.7-5.1-23.1
		c17.6-17.6,35.3-35.3,52.9-52.9c0.5-0.5,0.8-1,1.2-1.6C271.4,43,271.7,43,271.9,43z"/>
	<path id="ar2" class="ar" d="M34.3,159.4c0.3,0.3,0.5,0.6,0.8,0.9c10,10.1,20.1,20.1,30.1,30.1c1.4,1.4,2.5,2.9,2.8,5c0.6,3.5-1.1,6.9-4.2,8.6
		c-3.1,1.6-6.9,1.1-9.4-1.4c-3.8-3.8-7.6-7.6-11.4-11.3c-0.2-0.2-0.4-0.4-0.8-0.8c0,0.6,0,1,0,1.4c0,13.2,0,26.4,0,39.6
		c0,4.6-3.5,8.2-7.9,8.2c-4.6,0-8.2-3.5-8.2-8.1c0-7.5,0-15,0-22.5c0-5.8,0-11.5,0-17.3c0-0.4,0-0.7,0-1.4c-0.4,0.4-0.7,0.6-0.9,0.9
		c-3.6,3.6-7.2,7.2-10.8,10.8c-2.5,2.5-5.4,3.5-8.9,2.3c-5.7-2-7.3-9.1-3-13.4c10.2-10.3,20.5-20.5,30.7-30.7
		c0.3-0.3,0.5-0.6,0.7-0.9C34,159.4,34.1,159.4,34.3,159.4z"/>
	<path id="ar1" class="ar" d="M396.5,167.6c0.2,0.2,0.3,0.4,0.5,0.6c7.1,7.1,14.2,14.2,21.3,21.3c1,1,1.8,2.1,2,3.5c0.4,2.5-0.8,4.9-3,6.1
		c-2.2,1.2-4.9,0.8-6.7-1c-2.7-2.7-5.4-5.3-8-8c-0.1-0.1-0.3-0.3-0.6-0.5c0,0.4,0,0.7,0,1c0,9.3,0,18.7,0,28c0,3.3-2.5,5.8-5.6,5.8
		c-3.3,0-5.8-2.5-5.8-5.7c0-5.3,0-10.6,0-15.9c0-4.1,0-8.1,0-12.2c0-0.3,0-0.5,0-1c-0.3,0.3-0.5,0.4-0.6,0.6
		c-2.5,2.5-5.1,5.1-7.6,7.6c-1.8,1.8-3.8,2.5-6.3,1.6c-4-1.4-5.1-6.4-2.1-9.5c7.2-7.2,14.5-14.5,21.7-21.7c0.2-0.2,0.3-0.4,0.5-0.6
		C396.3,167.6,396.4,167.6,396.5,167.6z"/>
</g>
</svg>
