<?xml version="1.0" encoding="utf-8"?>
<!-- Generator: Adobe Illustrator 19.0.0, SVG Export Plug-In . SVG Version: 6.00 Build 0)  -->
<svg version="1.1" id="trade" xmlns="http://www.w3.org/2000/svg" xmlns:xlink="http://www.w3.org/1999/xlink" x="0px" y="0px"
	 viewBox="3 43 506 416" style="enable-background:new 3 43 506 416;" xml:space="preserve">
<style type="text/css">
	.st0{stroke:#000000;stroke-width:2;stroke-miterlimit:10;}
</style>
<g id="from" class="arrow">
	<path id="fromPath" class="st0" d="M4.3,151.3c16.7,0,33.4,0,50.1,0c40.1,0,80.2,0,120.3,0c48.5,0,96.9,0,145.5,0
		c41.9,0,83.8,0,125.7,0c13.7,0,27.4,0,41.1,0c6.3,0,13.5,0.9,19.8,0c0.3,0,0.6,0,0.8,0c0.9,0,1.7-1.2,1.2-2
		c-21.5-30-43.1-60-64.5-90c-3-4.2-6.1-8.5-9.1-12.7c-0.7-1-2.4-0.7-2.4,0.6c0,21.4,0,43,0,64.4c0.4-0.4,0.8-0.8,1.4-1.4
		c-14.2,1.3-28.6,2.5-42.8,3.9c-34.1,3-68.2,6.1-102.3,9.1c-41.4,3.7-82.8,7.4-124.2,11.1c-35.7,3.1-71.3,6.4-107.1,9.5
		c-11.8,1-23.6,2.1-35.5,3.1c-5.4,0.5-11.5,0.3-16.8,1.5c-0.2,0.1-0.5,0-0.7,0.1C2.7,148.8,2.6,151.4,4.3,151.3
		c14.2-1.3,28.6-2.5,42.8-3.9c34.1-3,68.2-6.1,102.3-9.1c41.4-3.7,82.8-7.4,124.2-11.1c35.7-3.1,71.3-6.4,107.1-9.5
		c11.8-1,23.6-2.1,35.5-3.1c5.4-0.5,11.5-0.3,16.8-1.5c0.2-0.1,0.5,0,0.7-0.1c0.7-0.1,1.4-0.5,1.4-1.4c0-21.4,0-43,0-64.4
		c-0.8,0.2-1.7,0.4-2.4,0.6c21.5,30,43.1,60,64.5,90c3,4.2,6.1,8.5,9.1,12.7c0.4-0.6,0.7-1.4,1.2-2c-16.7,0-33.4,0-50.1,0
		c-40.1,0-80.2,0-120.3,0c-48.5,0-96.9,0-145.5,0c-41.9,0-83.8,0-125.7,0c-13.7,0-27.4,0-41.1,0c-6.3,0-13.5-0.9-19.8,0
		c-0.3,0-0.6,0-0.8,0C2.6,148.7,2.6,151.3,4.3,151.3z"/>
</g>
<g id="to" class="arrow">
	<g id="XMLID_51_">
		<path id="XMLID_55_" class="st0" d="M507.7,347c-16.7,0-33.4,0-50.1,0c-40.1,0-80.2,0-120.3,0c-48.5,0-96.9,0-145.5,0
			c-41.9,0-83.8,0-125.7,0c-13.7,0-27.4,0-41.1,0c-6.3,0-13.5-0.9-19.8,0c-0.3,0-0.6,0-0.8,0c-0.9,0-1.7,1.2-1.2,2
			c21.5,30,43.1,60,64.5,90c3,4.2,6.1,8.5,9.1,12.7c0.7,1,2.4,0.7,2.4-0.6c0-21.4,0-43,0-64.4c-0.4,0.4-0.8,0.8-1.4,1.4
			c14.2-1.3,28.6-2.5,42.8-3.9c34.1-3,68.2-6.1,102.3-9.1c41.4-3.7,82.8-7.4,124.2-11.1c35.7-3.1,71.3-6.4,107.1-9.5
			c11.8-1,23.6-2.1,35.5-3.1c5.4-0.5,11.5-0.3,16.8-1.5c0.2-0.1,0.5,0,0.7-0.1C509.4,349.4,509.4,346.8,507.7,347
			c-14.2,1.3-28.6,2.5-42.8,3.9c-34.1,3-68.2,6.1-102.3,9.1c-41.4,3.7-82.8,7.4-124.2,11.1c-35.7,3.1-71.3,6.4-107.1,9.5
			c-11.8,1-23.6,2.1-35.5,3.1c-5.4,0.5-11.5,0.3-16.8,1.5c-0.2,0.1-0.5,0-0.7,0.1c-0.7,0.1-1.4,0.5-1.4,1.4c0,21.4,0,43,0,64.4
			c0.8-0.2,1.7-0.4,2.4-0.6c-21.5-30-43.1-60-64.5-90c-3-4.2-6.1-8.5-9.1-12.7c-0.4,0.6-0.7,1.4-1.2,2c16.7,0,33.4,0,50.1,0
			c40.1,0,80.2,0,120.3,0c48.5,0,96.9,0,145.5,0c41.9,0,83.8,0,125.7,0c13.7,0,27.4,0,41.1,0c6.3,0,13.5,0.9,19.8,0
			c0.3,0,0.6,0,0.8,0C509.4,349.6,509.4,347,507.7,347z"/>
	</g>
</g>
<g id="secondCoin" class='coin'>
	<g id="coinInline_1_">
		<g id="XMLID_45_">
			<path id="XMLID_49_" class="st0" d="M430.3,319.2c15.2-7,30.4-14,45.6-20.9c3.3-1.6,8.4-2.5,9.9-6.1c3.6-8.2,6.3-16.7,9.3-25
				c1.8-4.7,3.6-9.4,5.2-14.1c0.7-2.1,2.5-4.9,2.7-7.1c0.1-1.5-0.7-2.8-1.3-4.2c-1.6-4-3-8.1-4.6-12c-3.5-9.2-7-18.4-10.5-27.6
				c-0.5-1.5-0.9-3.7-2.1-4.7c-1.2-1-3.6-1.6-4.9-2.2c-9-4.1-17.9-8.1-26.9-12.1c-7-3.1-14.3-7.5-21.6-9.7c-3.5-1-7.8,2.3-11.1,3.7
				c-9.6,4.3-19.1,8.6-28.8,12.9c-4,1.8-7.9,3.6-11.8,5.3c-1.4,0.6-3.7,1.2-4.7,2.2c-1,1.2-1.6,3.7-2.1,5c-1.7,4.2-3.2,8.5-4.9,12.7
				c-3.5,9-6.9,18.1-10.5,27.1c-0.5,1.4-1.4,2.7-1.3,4.2c0.1,2.2,1.9,5,2.7,7c3.7,9.6,7.4,19.2,11.1,28.9c1.4,3.6,2.5,10.5,5.6,12.9
				c2.1,1.6,5.3,2.4,7.6,3.6c4.5,2.1,9,4.1,13.5,6.2c9,4.1,18.1,8.3,27.1,12.3c1.7,0.7,3.3,1.6,5,2.3c1.6,0.7,2.8-1.6,1.4-2.3
				c-14.5-6.7-29.2-13.3-43.7-20c-2.8-1.3-5.8-3.1-8.7-4c-0.4-0.1-0.9-0.3-1.4-0.6c1.2,0.8,0.3,0.4,0-0.7
				c-2.6-8.2-6.3-16.2-9.3-24.3c-1.7-4.5-3.5-8.9-5.1-13.4c-0.9-2.5-2.5-5.3-3.1-8.1c-0.2-1.3-0.2,0.8,0-0.2c0.2-0.9,0.7-2,1.2-2.9
				c1.5-3.7,2.8-7.3,4.3-11c3.6-9.1,7-18.3,10.6-27.4c0.6-1.7,1.2-4.3,2.2-5.6c-1,1.5-0.1,0.4,0.6,0.2c1.2-0.3,2.4-1,3.6-1.6
				c8.6-3.9,17-7.6,25.6-11.5c7.2-3.2,15.6-5.9,22.4-10c0.4-0.3,2.1-0.6,0.7-0.6c-1.4,0,0.2,0.3,0.6,0.6c2.6,1.6,5.9,2.6,8.6,3.9
				c9.3,4.2,18.5,8.4,27.8,12.5c5.1,2.3,11.8,4.2,16.5,7.4c-1-0.7-0.4-0.6,0,0.6c0.4,1.4,1,2.7,1.6,4.1c1.6,4.1,3.1,8.2,4.7,12.3
				c3.3,8.7,6.6,17.4,9.9,26.1c0.3,0.8,0.8,1.8,1,2.7c0.2,0.9,0.2-0.9-0.1,0.3c-0.6,2.7-2.1,5.5-3,8.2c-3.6,9.5-7.1,19-10.7,28.4
				c-1.2,3-2.6,6.1-3.5,9.1c-0.3,1.2-0.9,1.3,0.1,0.5c-0.5,0.3-1.3,0.6-1.8,0.8c-7.6,2.9-15.1,6.9-22.5,10.4
				c-8.6,4-17.2,7.8-25.7,11.8c-1.5,0.6-2.9,1.4-4.4,2C427.5,317.7,428.9,319.9,430.3,319.2z"/>
		</g>
	</g>
	<g id="coinOutline_1_">
		<g id="XMLID_39_">
			<path id="XMLID_43_" class="st0" d="M430.4,293.4c-9.8-4.4-19.8-8.8-29.6-13.2c-1.8-0.8-3.8-2-5.6-2.5c-1.6-0.4-0.4,0.8-0.9-0.9
				c-1.6-5.4-4.2-10.8-6.2-16c-1.8-4.7-4.6-9.8-5.6-14.7c-0.2-1-0.2,0.1-0.2,0c0.1-0.5,0.4-1.2,0.6-1.6c1.2-2.5,2-5.2,2.9-7.7
				c2.3-6.2,4.7-12.4,7-18.6c0.4-1.2,0.7-2.9,1.5-4c-1.3,1.7,2.1-0.4,2.8-0.8c5.9-2.6,11.8-5.3,17.7-7.9c4.4-2,10.7-3.6,14.5-6.6
				c1.3-0.9-0.5-0.8,0.4-0.1c1.6,1.3,4.3,1.9,6.1,2.7c6.4,2.8,12.7,5.6,19,8.5c2.5,1.2,5,2.3,7.5,3.3c0.8,0.4,4.1,2.4,2.9,0.8
				c0.7,0.9,1,2.8,1.5,4c1.2,3,2.4,6.2,3.6,9.2c2.2,5.6,4.2,11.4,6.5,16.9c0.2,0.5,0.6,1.2,0.6,1.7c0.1,0.6,0.1-1-0.1,0
				c-0.3,1.9-1.5,3.9-2.2,5.6c-2.6,7-5.3,13.9-7.9,20.9c-0.5,1.4-0.9,3.8-1.9,5c1-1.4,0.2-0.4-0.5-0.2c-0.9,0.3-2,0.9-2.9,1.4
				c-11,5-21.9,10-32.8,15.1c-1.6,0.7-0.2,2.9,1.4,2.3c10.6-4.8,21-9.6,31.6-14.4c2.5-1.2,4.9-1.6,6.2-4.1c2.7-5.3,4.4-11.5,6.5-17
				c1.2-3,2.3-6.1,3.5-9.1c0.5-1.5,1.8-3.5,1.9-5c0.2-3.3-2.8-8.1-4-11.1c-2.4-6.3-4.9-12.7-7.3-18.9c-1.2-3.1-1.6-3.5-4.6-4.8
				c-6.3-2.8-12.5-5.6-18.8-8.5c-3-1.4-6-2.7-9-4.1c-1.8-0.7-4-2.3-5.9-2.6c-2.5-0.5-5.3,1.6-7.6,2.6c-6.5,2.9-13.1,5.9-19.6,8.8
				c-2.6,1.2-5.1,2.3-7.7,3.5c-0.9,0.4-2.6,0.8-3.5,1.7c-0.7,0.7-1,2.4-1.4,3.3c-1,2.8-2.2,5.8-3.2,8.6c-2.3,6.2-4.7,12.4-7,18.6
				c-1.2,3.1-0.3,4.3,0.9,7.4c2.8,7.3,5.6,14.6,8.5,22.1c1.3,3.3,1.6,6.2,4.8,7.6c11.4,5.3,23,10.2,34.5,15.4
				C430.7,296.4,432,294.2,430.4,293.4z"/>
		</g>
	</g>
</g>
<g id="thirdCoin" class='coin'>
	<g id="coinInline_2_">
		<g id="XMLID_69_">
			<path id="XMLID_73_" class="st0" d="M256.6,319.4c15.2-7,30.4-14,45.6-20.9c3.3-1.6,8.4-2.5,9.9-6.1c3.6-8.2,6.3-16.7,9.3-25
				c1.8-4.7,3.6-9.4,5.2-14.1c0.7-2.1,2.5-4.9,2.7-7.1c0.1-1.5-0.7-2.8-1.3-4.2c-1.6-4-3-8.1-4.6-12c-3.5-9.2-7-18.4-10.5-27.6
				c-0.5-1.5-0.9-3.7-2.1-4.7c-1.2-1-3.6-1.6-4.9-2.2c-9-4.1-17.9-8.1-26.9-12.1c-7-3.1-14.3-7.5-21.6-9.7c-3.5-1-7.8,2.3-11.1,3.7
				c-9.6,4.3-19.1,8.6-28.8,12.9c-4,1.8-7.9,3.6-11.8,5.3c-1.4,0.6-3.7,1.2-4.7,2.2c-1,1.2-1.6,3.7-2.1,5c-1.7,4.2-3.2,8.5-4.9,12.7
				c-3.5,9-6.9,18.1-10.5,27.1c-0.5,1.4-1.4,2.7-1.3,4.2c0.1,2.2,1.9,5,2.7,7c3.7,9.6,7.4,19.2,11.1,28.9c1.4,3.6,2.5,10.5,5.6,12.9
				c2.1,1.6,5.3,2.4,7.6,3.6c4.5,2.1,9,4.1,13.5,6.2c9,4.1,18.1,8.3,27.1,12.3c1.7,0.7,3.3,1.6,5,2.3c1.6,0.7,2.8-1.6,1.4-2.3
				c-14.5-6.7-29.2-13.3-43.7-20c-2.8-1.3-5.8-3.1-8.7-4c-0.4-0.1-0.9-0.3-1.4-0.6c1.2,0.8,0.3,0.4,0-0.7
				c-2.6-8.2-6.3-16.2-9.3-24.3c-1.7-4.5-3.5-8.9-5.1-13.4c-0.9-2.5-2.5-5.3-3.1-8.1c-0.2-1.3-0.2,0.8,0-0.2c0.2-0.9,0.7-2,1.2-2.9
				c1.5-3.7,2.8-7.3,4.3-11c3.6-9.1,7-18.3,10.6-27.4c0.6-1.7,1.2-4.3,2.2-5.6c-1,1.5-0.1,0.4,0.6,0.2c1.2-0.3,2.4-1,3.6-1.6
				c8.6-3.9,17-7.6,25.6-11.5c7.2-3.2,15.6-5.9,22.4-10c0.4-0.3,2.1-0.6,0.7-0.6c-1.4,0,0.2,0.3,0.6,0.6c2.6,1.6,5.9,2.6,8.6,3.9
				c9.3,4.2,18.5,8.4,27.8,12.5c5.1,2.3,11.8,4.2,16.5,7.4c-1-0.7-0.4-0.6,0,0.6c0.4,1.4,1,2.7,1.6,4.1c1.6,4.1,3.1,8.2,4.7,12.3
				c3.3,8.7,6.6,17.4,9.9,26.1c0.3,0.8,0.8,1.8,1,2.7c0.2,0.9,0.2-0.9-0.1,0.3c-0.6,2.7-2.1,5.5-3,8.2c-3.6,9.5-7.1,19-10.7,28.4
				c-1.2,3-2.6,6.1-3.5,9.1c-0.3,1.2-0.9,1.3,0.1,0.5c-0.5,0.3-1.3,0.6-1.8,0.8c-7.6,2.9-15.1,6.9-22.5,10.4
				c-8.6,4-17.2,7.8-25.7,11.8c-1.5,0.6-2.9,1.4-4.4,2C253.8,317.8,255.1,320.1,256.6,319.4z"/>
		</g>
	</g>
	<g id="coinOutline_2_">
		<g id="XMLID_63_">
			<path id="XMLID_67_" class="st0" d="M256.7,293.6c-9.8-4.4-19.8-8.8-29.6-13.2c-1.8-0.8-3.8-2-5.6-2.5c-1.6-0.4-0.4,0.8-0.9-0.9
				c-1.6-5.4-4.2-10.8-6.2-16c-1.8-4.7-4.6-9.8-5.6-14.7c-0.2-1-0.2,0.1-0.2,0c0.1-0.5,0.4-1.2,0.6-1.6c1.2-2.5,2-5.2,2.9-7.7
				c2.3-6.2,4.7-12.4,7-18.6c0.4-1.2,0.7-2.9,1.5-4c-1.3,1.7,2.1-0.4,2.8-0.8c5.9-2.6,11.8-5.3,17.7-7.9c4.4-2,10.7-3.6,14.5-6.6
				c1.3-0.9-0.5-0.8,0.4-0.1c1.6,1.3,4.3,1.9,6.1,2.7c6.4,2.8,12.7,5.6,19,8.5c2.5,1.2,5,2.3,7.5,3.3c0.8,0.4,4.1,2.4,2.9,0.8
				c0.7,0.9,1,2.8,1.5,4c1.2,3,2.4,6.2,3.6,9.2c2.2,5.6,4.2,11.4,6.5,16.9c0.2,0.5,0.6,1.2,0.6,1.7c0.1,0.6,0.1-1-0.1,0
				c-0.3,1.9-1.5,3.9-2.2,5.6c-2.6,7-5.3,13.9-7.9,20.9c-0.5,1.4-0.9,3.8-1.9,5c1-1.4,0.2-0.4-0.5-0.2c-0.9,0.3-2,0.9-2.9,1.4
				c-11,5-21.9,10-32.8,15.1c-1.6,0.7-0.2,2.9,1.4,2.3c10.6-4.8,21-9.6,31.6-14.4c2.5-1.2,4.9-1.6,6.2-4.1c2.7-5.3,4.4-11.5,6.5-17
				c1.2-3,2.3-6.1,3.5-9.1c0.5-1.5,1.8-3.5,1.9-5c0.2-3.3-2.8-8.1-4-11.1c-2.4-6.3-4.9-12.7-7.3-18.9c-1.2-3.1-1.6-3.5-4.6-4.8
				c-6.3-2.8-12.5-5.6-18.8-8.5c-3-1.4-6-2.7-9-4.1c-1.8-0.7-4-2.3-5.9-2.6c-2.5-0.5-5.3,1.6-7.6,2.6c-6.5,2.9-13.1,5.9-19.6,8.8
				c-2.6,1.2-5.1,2.3-7.7,3.5c-0.9,0.4-2.6,0.8-3.5,1.7c-0.7,0.7-1,2.4-1.4,3.3c-1,2.8-2.2,5.8-3.2,8.6c-2.3,6.2-4.7,12.4-7,18.6
				c-1.2,3.1-0.3,4.3,0.9,7.4c2.8,7.3,5.6,14.6,8.5,22.1c1.3,3.3,1.6,6.2,4.8,7.6c11.4,5.3,23,10.2,34.5,15.4
				C256.9,296.6,258.2,294.3,256.7,293.6z"/>
		</g>
	</g>
</g>
<g id="firstCoin" class='coin'>
	<g id="coinInline">
		<g id="XMLID_33_">
			<path id="XMLID_37_" class="st0" d="M77.2,319.4c15.2-7,30.4-14,45.6-20.9c3.3-1.6,8.4-2.5,9.9-6.1c3.6-8.2,6.3-16.7,9.3-25
				c1.8-4.7,3.6-9.4,5.2-14.1c0.7-2.1,2.5-4.9,2.7-7.1c0.1-1.5-0.7-2.8-1.3-4.2c-1.6-4-3-8.1-4.6-12c-3.5-9.2-7-18.4-10.5-27.6
				c-0.5-1.5-0.9-3.7-2.1-4.7c-1.2-1-3.6-1.6-4.9-2.2c-9-4.1-17.9-8.1-26.9-12.1c-7-3.1-14.3-7.5-21.6-9.7c-3.5-1-7.8,2.3-11.1,3.7
				c-9.6,4.3-19.1,8.6-28.8,12.9c-4,1.8-7.9,3.6-11.8,5.3c-1.4,0.6-3.7,1.2-4.7,2.2c-1,1.2-1.6,3.7-2.1,5c-1.7,4.2-3.2,8.5-4.9,12.7
				c-3.5,9-6.9,18.1-10.5,27.1c-0.5,1.4-1.4,2.7-1.3,4.2c0.1,2.2,1.9,5,2.7,7c3.7,9.6,7.4,19.2,11.1,28.9c1.4,3.6,2.5,10.5,5.6,12.9
				c2.1,1.6,5.3,2.4,7.6,3.6c4.5,2.1,9,4.1,13.5,6.2c9,4.1,18.1,8.3,27.1,12.3c1.7,0.7,3.3,1.6,5,2.3c1.6,0.7,2.8-1.6,1.4-2.3
				c-14.5-6.7-29.2-13.3-43.7-20c-2.8-1.3-5.8-3.1-8.7-4c-0.4-0.1-0.9-0.3-1.4-0.6c1.2,0.8,0.3,0.4,0-0.7
				c-2.6-8.2-6.3-16.2-9.3-24.3c-1.7-4.5-3.5-8.9-5.1-13.4c-0.9-2.5-2.5-5.3-3.1-8.1c-0.2-1.3-0.2,0.8,0-0.2c0.2-0.9,0.7-2,1.2-2.9
				c1.5-3.7,2.8-7.3,4.3-11c3.6-9.1,7-18.3,10.6-27.4c0.6-1.7,1.2-4.3,2.2-5.6c-1,1.5-0.1,0.4,0.6,0.2c1.2-0.3,2.4-1,3.6-1.6
				c8.6-3.9,17-7.6,25.6-11.5c7.2-3.2,15.6-5.9,22.4-10c0.4-0.3,2.1-0.6,0.7-0.6c-1.4,0,0.2,0.3,0.6,0.6c2.6,1.6,5.9,2.6,8.6,3.9
				c9.3,4.2,18.5,8.4,27.8,12.5c5.1,2.3,11.8,4.2,16.5,7.4c-1-0.7-0.4-0.6,0,0.6c0.4,1.4,1,2.7,1.6,4.1c1.6,4.1,3.1,8.2,4.7,12.3
				c3.3,8.7,6.6,17.4,9.9,26.1c0.3,0.8,0.8,1.8,1,2.7c0.2,0.9,0.2-0.9-0.1,0.3c-0.6,2.7-2.1,5.5-3,8.2c-3.6,9.5-7.1,19-10.7,28.4
				c-1.2,3-2.6,6.1-3.5,9.1c-0.3,1.2-0.9,1.3,0.1,0.5c-0.5,0.3-1.3,0.6-1.8,0.8c-7.6,2.9-15.1,6.9-22.5,10.4
				c-8.6,4-17.2,7.8-25.7,11.8c-1.5,0.6-2.9,1.4-4.4,2C74.3,317.8,75.7,320.1,77.2,319.4z"/>
		</g>
	</g>
	<g id="coinOutline">
		<g id="XMLID_27_">
			<path id="XMLID_31_" class="st0" d="M77.3,293.6c-9.8-4.4-19.8-8.8-29.6-13.2c-1.8-0.8-3.8-2-5.6-2.5c-1.6-0.4-0.4,0.8-0.9-0.9
				c-1.6-5.4-4.2-10.8-6.2-16c-1.8-4.7-4.6-9.8-5.6-14.7c-0.2-1-0.2,0.1-0.2,0c0.1-0.5,0.4-1.2,0.6-1.6c1.2-2.5,2-5.2,2.9-7.7
				c2.3-6.2,4.7-12.4,7-18.6c0.4-1.2,0.7-2.9,1.5-4c-1.3,1.7,2.1-0.4,2.8-0.8c5.9-2.6,11.8-5.3,17.7-7.9c4.4-2,10.7-3.6,14.5-6.6
				c1.3-0.9-0.5-0.8,0.4-0.1c1.6,1.3,4.3,1.9,6.1,2.7c6.4,2.8,12.7,5.6,19,8.5c2.5,1.2,5,2.3,7.5,3.3c0.8,0.4,4.1,2.4,2.9,0.8
				c0.7,0.9,1,2.8,1.5,4c1.2,3,2.4,6.2,3.6,9.2c2.2,5.6,4.2,11.4,6.5,16.9c0.2,0.5,0.6,1.2,0.6,1.7c0.1,0.6,0.1-1-0.1,0
				c-0.3,1.9-1.5,3.9-2.2,5.6c-2.6,7-5.3,13.9-7.9,20.9c-0.5,1.4-0.9,3.8-1.9,5c1-1.4,0.2-0.4-0.5-0.2c-0.9,0.3-2,0.9-2.9,1.4
				c-11,5-21.9,10-32.8,15.1c-1.6,0.7-0.2,2.9,1.4,2.3c10.6-4.8,21-9.6,31.6-14.4c2.5-1.2,4.9-1.6,6.2-4.1c2.7-5.3,4.4-11.5,6.5-17
				c1.2-3,2.3-6.1,3.5-9.1c0.5-1.5,1.8-3.5,1.9-5c0.2-3.3-2.8-8.1-4-11.1c-2.4-6.3-4.9-12.7-7.3-18.9c-1.2-3.1-1.6-3.5-4.6-4.8
				c-6.3-2.8-12.5-5.6-18.8-8.5c-3-1.4-6-2.7-9-4.1c-1.8-0.7-4-2.3-5.9-2.6c-2.5-0.5-5.3,1.6-7.6,2.6C63,202,56.5,205,50,207.9
				c-2.6,1.2-5.1,2.3-7.7,3.5c-0.9,0.4-2.6,0.8-3.5,1.7c-0.7,0.7-1,2.4-1.4,3.3c-1,2.8-2.2,5.8-3.2,8.6c-2.3,6.2-4.7,12.4-7,18.6
				c-1.2,3.1-0.3,4.3,0.9,7.4c2.8,7.3,5.6,14.6,8.5,22.1c1.3,3.3,1.6,6.2,4.8,7.6c11.4,5.3,23,10.2,34.5,15.4
				C77.5,296.6,78.8,294.3,77.3,293.6z"/>
		</g>
	</g>
</g>
</svg>
