<?xml version="1.0" encoding="utf-8"?>
<!-- Generator: Adobe Illustrator 19.0.0, SVG Export Plug-In . SVG Version: 6.00 Build 0)  -->
<svg version="1.1" id="trade" xmlns="http://www.w3.org/2000/svg" xmlns:xlink="http://www.w3.org/1999/xlink" x="0px" y="0px"
	 viewBox="0 0 612 792" style="enable-background:new 0 0 612 792;" xml:space="preserve">
<g id="from">
	<g id="XMLID_57_">
		<path id="XMLID_61_" d="M91.2,240.2c16,0,31.9,0,47.9,0c38.3,0,76.7,0,115,0c46.4,0,92.7,0,139.1,0c40.1,0,80.1,0,120.2,0
			c13.1,0,26.2,0,39.3,0c6,0,12.9,0.9,18.9,0c0.3,0,0.6,0,0.8,0c0.9,0,1.6-1.1,1.1-1.9c-20.6-28.7-41.2-57.4-61.7-86.1
			c-2.9-4-5.8-8.1-8.7-12.1c-0.7-1-2.3-0.7-2.3,0.6c0,20.5,0,41.1,0,61.6c0.4-0.4,0.8-0.8,1.3-1.3c-13.6,1.2-27.3,2.4-40.9,3.7
			c-32.6,2.9-65.2,5.8-97.8,8.7c-39.6,3.5-79.2,7.1-118.8,10.6c-34.1,3-68.2,6.1-102.4,9.1c-11.3,1-22.6,2-33.9,3
			c-5.2,0.5-11,0.3-16.1,1.4c-0.2,0.1-0.5,0-0.7,0.1C89.7,237.8,89.6,240.3,91.2,240.2c13.6-1.2,27.3-2.4,40.9-3.7
			c32.6-2.9,65.2-5.8,97.8-8.7c39.6-3.5,79.2-7.1,118.8-10.6c34.1-3,68.2-6.1,102.4-9.1c11.3-1,22.6-2,33.9-3
			c5.2-0.5,11-0.3,16.1-1.4c0.2-0.1,0.5,0,0.7-0.1c0.7-0.1,1.3-0.5,1.3-1.3c0-20.5,0-41.1,0-61.6c-0.8,0.2-1.6,0.4-2.3,0.6
			c20.6,28.7,41.2,57.4,61.7,86.1c2.9,4,5.8,8.1,8.7,12.1c0.4-0.6,0.7-1.3,1.1-1.9c-16,0-31.9,0-47.9,0c-38.3,0-76.7,0-115,0
			c-46.4,0-92.7,0-139.1,0c-40.1,0-80.1,0-120.2,0c-13.1,0-26.2,0-39.3,0c-6,0-12.9-0.9-18.9,0c-0.3,0-0.6,0-0.8,0
			C89.6,237.7,89.6,240.2,91.2,240.2z"/>
	</g>
</g>
<g id="to">
	<g id="XMLID_51_">
		<path id="XMLID_55_" d="M572.6,427.3c-16,0-31.9,0-47.9,0c-38.3,0-76.7,0-115,0c-46.4,0-92.7,0-139.1,0c-40.1,0-80.1,0-120.2,0
			c-13.1,0-26.2,0-39.3,0c-6,0-12.9-0.9-18.9,0c-0.3,0-0.6,0-0.8,0c-0.9,0-1.6,1.1-1.1,1.9c20.6,28.7,41.2,57.4,61.7,86.1
			c2.9,4,5.8,8.1,8.7,12.1c0.7,1,2.3,0.7,2.3-0.6c0-20.5,0-41.1,0-61.6c-0.4,0.4-0.8,0.8-1.3,1.3c13.6-1.2,27.3-2.4,40.9-3.7
			c32.6-2.9,65.2-5.8,97.8-8.7c39.6-3.5,79.2-7.1,118.8-10.6c34.1-3,68.2-6.1,102.4-9.1c11.3-1,22.6-2,33.9-3
			c5.2-0.5,11-0.3,16.1-1.4c0.2-0.1,0.5,0,0.7-0.1C574.2,429.6,574.2,427.1,572.6,427.3c-13.6,1.2-27.3,2.4-40.9,3.7
			c-32.6,2.9-65.2,5.8-97.8,8.7c-39.6,3.5-79.2,7.1-118.8,10.6c-34.1,3-68.2,6.1-102.4,9.1c-11.3,1-22.6,2-33.9,3
			c-5.2,0.5-11,0.3-16.1,1.4c-0.2,0.1-0.5,0-0.7,0.1c-0.7,0.1-1.3,0.5-1.3,1.3c0,20.5,0,41.1,0,61.6c0.8-0.2,1.6-0.4,2.3-0.6
			c-20.6-28.7-41.2-57.4-61.7-86.1c-2.9-4-5.8-8.1-8.7-12.1c-0.4,0.6-0.7,1.3-1.1,1.9c16,0,31.9,0,47.9,0c38.3,0,76.7,0,115,0
			c46.4,0,92.7,0,139.1,0c40.1,0,80.1,0,120.2,0c13.1,0,26.2,0,39.3,0c6,0,12.9,0.9,18.9,0c0.3,0,0.6,0,0.8,0
			C574.2,429.8,574.2,427.3,572.6,427.3z"/>
	</g>
</g>
<g id="thirdCoin">
	<g id="coinInline_2_">
		<g id="XMLID_69_">
			<path id="XMLID_73_" d="M332.5,400.9c14.5-6.7,29.1-13.4,43.6-20c3.2-1.5,8-2.4,9.5-5.8c3.4-7.8,6-16,8.9-23.9
				c1.7-4.5,3.4-9,5-13.5c0.7-2,2.4-4.7,2.6-6.8c0.1-1.4-0.7-2.7-1.2-4c-1.5-3.8-2.9-7.7-4.4-11.5c-3.3-8.8-6.7-17.6-10-26.4
				c-0.5-1.4-0.9-3.5-2-4.5c-1.1-1-3.4-1.5-4.7-2.1c-8.6-3.9-17.1-7.7-25.7-11.6c-6.7-3-13.7-7.2-20.7-9.3c-3.3-1-7.5,2.2-10.6,3.5
				c-9.2,4.1-18.3,8.2-27.5,12.3c-3.8,1.7-7.6,3.4-11.3,5.1c-1.3,0.6-3.5,1.1-4.5,2.1c-1,1.1-1.5,3.5-2,4.8c-1.6,4-3.1,8.1-4.7,12.1
				c-3.3,8.6-6.6,17.3-10,25.9c-0.5,1.3-1.3,2.6-1.2,4c0.1,2.1,1.8,4.8,2.6,6.7c3.5,9.2,7.1,18.4,10.6,27.6c1.3,3.4,2.4,10,5.4,12.3
				c2,1.5,5.1,2.3,7.3,3.4c4.3,2,8.6,3.9,12.9,5.9c8.6,3.9,17.3,7.9,25.9,11.8c1.6,0.7,3.2,1.5,4.8,2.2c1.5,0.7,2.7-1.5,1.3-2.2
				c-13.9-6.4-27.9-12.7-41.8-19.1c-2.7-1.2-5.5-3-8.3-3.8c-0.4-0.1-0.9-0.3-1.3-0.6c1.1,0.8,0.3,0.4,0-0.7
				c-2.5-7.8-6-15.5-8.9-23.2c-1.6-4.3-3.3-8.5-4.9-12.8c-0.9-2.4-2.4-5.1-3-7.7c-0.2-1.2-0.2,0.8,0-0.2c0.2-0.9,0.7-1.9,1.1-2.8
				c1.4-3.5,2.7-7,4.1-10.5c3.4-8.7,6.7-17.5,10.1-26.2c0.6-1.6,1.1-4.1,2.1-5.4c-1,1.4-0.1,0.4,0.6,0.2c1.1-0.3,2.3-1,3.4-1.5
				c8.2-3.7,16.3-7.3,24.5-11c6.9-3.1,14.9-5.6,21.4-9.6c0.4-0.3,2-0.6,0.7-0.6c-1.3,0,0.2,0.3,0.6,0.6c2.5,1.5,5.6,2.5,8.2,3.7
				c8.9,4,17.7,8,26.6,12c4.9,2.2,11.3,4,15.8,7.1c-1-0.7-0.4-0.6,0,0.6c0.4,1.3,1,2.6,1.5,3.9c1.5,3.9,3,7.8,4.5,11.8
				c3.2,8.3,6.3,16.6,9.5,25c0.3,0.8,0.8,1.7,1,2.6c0.2,0.9,0.2-0.9-0.1,0.3c-0.6,2.6-2,5.3-2.9,7.8c-3.4,9.1-6.8,18.2-10.2,27.2
				c-1.1,2.9-2.5,5.8-3.3,8.7c-0.3,1.1-0.9,1.2,0.1,0.5c-0.5,0.3-1.2,0.6-1.7,0.8c-7.3,2.8-14.4,6.6-21.5,9.9
				c-8.2,3.8-16.4,7.5-24.6,11.3c-1.4,0.6-2.8,1.3-4.2,1.9C329.8,399.4,331,401.6,332.5,400.9z"/>
		</g>
	</g>
	<g id="coinOutline_2_">
		<g id="XMLID_63_">
			<path id="XMLID_67_" d="M332.6,376.3c-9.4-4.2-18.9-8.4-28.3-12.6c-1.7-0.8-3.6-1.9-5.4-2.4c-1.5-0.4-0.4,0.8-0.9-0.9
				c-1.5-5.2-4-10.3-5.9-15.3c-1.7-4.5-4.4-9.4-5.4-14.1c-0.2-1-0.2,0.1-0.2,0c0.1-0.5,0.4-1.1,0.6-1.5c1.1-2.4,1.9-5,2.8-7.4
				c2.2-5.9,4.5-11.9,6.7-17.8c0.4-1.1,0.7-2.8,1.4-3.8c-1.2,1.6,2-0.4,2.7-0.8c5.6-2.5,11.3-5.1,16.9-7.6
				c4.2-1.9,10.2-3.4,13.9-6.3c1.2-0.9-0.5-0.8,0.4-0.1c1.5,1.2,4.1,1.8,5.8,2.6c6.1,2.7,12.1,5.4,18.2,8.1c2.4,1.1,4.8,2.2,7.2,3.2
				c0.8,0.4,3.9,2.3,2.8,0.8c0.7,0.9,1,2.7,1.4,3.8c1.1,2.9,2.3,5.9,3.4,8.8c2.1,5.4,4,10.9,6.2,16.2c0.2,0.5,0.6,1.1,0.6,1.6
				c0.1,0.6,0.1-1-0.1,0c-0.3,1.8-1.4,3.7-2.1,5.4c-2.5,6.7-5.1,13.3-7.6,20c-0.5,1.3-0.9,3.6-1.8,4.8c1-1.3,0.2-0.4-0.5-0.2
				c-0.9,0.3-1.9,0.9-2.8,1.3c-10.5,4.8-20.9,9.6-31.4,14.4c-1.5,0.7-0.2,2.8,1.3,2.2c10.1-4.6,20.1-9.2,30.2-13.8
				c2.4-1.1,4.7-1.5,5.9-3.9c2.6-5.1,4.2-11,6.2-16.3c1.1-2.9,2.2-5.8,3.3-8.7c0.5-1.4,1.7-3.3,1.8-4.8c0.2-3.2-2.7-7.7-3.8-10.6
				c-2.3-6-4.7-12.1-7-18.1c-1.1-3-1.5-3.3-4.4-4.6c-6-2.7-12-5.4-18-8.1c-2.9-1.3-5.7-2.6-8.6-3.9c-1.7-0.7-3.8-2.2-5.6-2.5
				c-2.4-0.5-5.1,1.5-7.3,2.5c-6.2,2.8-12.5,5.6-18.7,8.4c-2.5,1.1-4.9,2.2-7.4,3.3c-0.9,0.4-2.5,0.8-3.3,1.6
				c-0.7,0.7-1,2.3-1.3,3.2c-1,2.7-2.1,5.5-3.1,8.2c-2.2,5.9-4.5,11.9-6.7,17.8c-1.1,3-0.3,4.1,0.9,7.1c2.7,7,5.4,14,8.1,21.1
				c1.2,3.2,1.5,5.9,4.6,7.3c10.9,5.1,22,9.8,33,14.7C332.8,379.1,334,376.9,332.6,376.3z"/>
		</g>
	</g>
</g>
<g id="secondCoin">
	<g id="coinInline_1_">
		<g id="XMLID_45_">
			<path id="XMLID_49_" d="M498.6,400.7c14.5-6.7,29.1-13.4,43.6-20c3.2-1.5,8-2.4,9.5-5.8c3.4-7.8,6-16,8.9-23.9
				c1.7-4.5,3.4-9,5-13.5c0.7-2,2.4-4.7,2.6-6.8c0.1-1.4-0.7-2.7-1.2-4c-1.5-3.8-2.9-7.7-4.4-11.5c-3.3-8.8-6.7-17.6-10-26.4
				c-0.5-1.4-0.9-3.5-2-4.5c-1.1-1-3.4-1.5-4.7-2.1c-8.6-3.9-17.1-7.7-25.7-11.6c-6.7-3-13.7-7.2-20.7-9.3c-3.3-1-7.5,2.2-10.6,3.5
				c-9.2,4.1-18.3,8.2-27.5,12.3c-3.8,1.7-7.6,3.4-11.3,5.1c-1.3,0.6-3.5,1.1-4.5,2.1c-1,1.1-1.5,3.5-2,4.8c-1.6,4-3.1,8.1-4.7,12.1
				c-3.3,8.6-6.6,17.3-10,25.9c-0.5,1.3-1.3,2.6-1.2,4c0.1,2.1,1.8,4.8,2.6,6.7c3.5,9.2,7.1,18.4,10.6,27.6c1.3,3.4,2.4,10,5.4,12.3
				c2,1.5,5.1,2.3,7.3,3.4c4.3,2,8.6,3.9,12.9,5.9c8.6,3.9,17.3,7.9,25.9,11.8c1.6,0.7,3.2,1.5,4.8,2.2c1.5,0.7,2.7-1.5,1.3-2.2
				c-13.9-6.4-27.9-12.7-41.8-19.1c-2.7-1.2-5.5-3-8.3-3.8c-0.4-0.1-0.9-0.3-1.3-0.6c1.1,0.8,0.3,0.4,0-0.7
				c-2.5-7.8-6-15.5-8.9-23.2c-1.6-4.3-3.3-8.5-4.9-12.8c-0.9-2.4-2.4-5.1-3-7.7c-0.2-1.2-0.2,0.8,0-0.2c0.2-0.9,0.7-1.9,1.1-2.8
				c1.4-3.5,2.7-7,4.1-10.5c3.4-8.7,6.7-17.5,10.1-26.2c0.6-1.6,1.1-4.1,2.1-5.4c-1,1.4-0.1,0.4,0.6,0.2c1.1-0.3,2.3-1,3.4-1.5
				c8.2-3.7,16.3-7.3,24.5-11c6.9-3.1,14.9-5.6,21.4-9.6c0.4-0.3,2-0.6,0.7-0.6c-1.3,0,0.2,0.3,0.6,0.6c2.5,1.5,5.6,2.5,8.2,3.7
				c8.9,4,17.7,8,26.6,12c4.9,2.2,11.3,4,15.8,7.1c-1-0.7-0.4-0.6,0,0.6c0.4,1.3,1,2.6,1.5,3.9c1.5,3.9,3,7.8,4.5,11.8
				c3.2,8.3,6.3,16.6,9.5,25c0.3,0.8,0.8,1.7,1,2.6c0.2,0.9,0.2-0.9-0.1,0.3c-0.6,2.6-2,5.3-2.9,7.8c-3.4,9.1-6.8,18.2-10.2,27.2
				c-1.1,2.9-2.5,5.8-3.3,8.7c-0.3,1.1-0.9,1.2,0.1,0.5c-0.5,0.3-1.2,0.6-1.7,0.8c-7.3,2.8-14.4,6.6-21.5,9.9
				c-8.2,3.8-16.4,7.5-24.6,11.3c-1.4,0.6-2.8,1.3-4.2,1.9C495.9,399.3,497.2,401.4,498.6,400.7z"/>
		</g>
	</g>
	<g id="coinOutline_1_">
		<g id="XMLID_39_">
			<path id="XMLID_43_" d="M498.7,376.1c-9.4-4.2-18.9-8.4-28.3-12.6c-1.7-0.8-3.6-1.9-5.4-2.4c-1.5-0.4-0.4,0.8-0.9-0.9
				c-1.5-5.2-4-10.3-5.9-15.3c-1.7-4.5-4.4-9.4-5.4-14.1c-0.2-1-0.2,0.1-0.2,0c0.1-0.5,0.4-1.1,0.6-1.5c1.1-2.4,1.9-5,2.8-7.4
				c2.2-5.9,4.5-11.9,6.7-17.8c0.4-1.1,0.7-2.8,1.4-3.8c-1.2,1.6,2-0.4,2.7-0.8c5.6-2.5,11.3-5.1,16.9-7.6
				c4.2-1.9,10.2-3.4,13.9-6.3c1.2-0.9-0.5-0.8,0.4-0.1c1.5,1.2,4.1,1.8,5.8,2.6c6.1,2.7,12.1,5.4,18.2,8.1c2.4,1.1,4.8,2.2,7.2,3.2
				c0.8,0.4,3.9,2.3,2.8,0.8c0.7,0.9,1,2.7,1.4,3.8c1.1,2.9,2.3,5.9,3.4,8.8c2.1,5.4,4,10.9,6.2,16.2c0.2,0.5,0.6,1.1,0.6,1.6
				c0.1,0.6,0.1-1-0.1,0c-0.3,1.8-1.4,3.7-2.1,5.4c-2.5,6.7-5.1,13.3-7.6,20c-0.5,1.3-0.9,3.6-1.8,4.8c1-1.3,0.2-0.4-0.5-0.2
				c-0.9,0.3-1.9,0.9-2.8,1.3c-10.5,4.8-20.9,9.6-31.4,14.4c-1.5,0.7-0.2,2.8,1.3,2.2c10.1-4.6,20.1-9.2,30.2-13.8
				c2.4-1.1,4.7-1.5,5.9-3.9c2.6-5.1,4.2-11,6.2-16.3c1.1-2.9,2.2-5.8,3.3-8.7c0.5-1.4,1.7-3.3,1.8-4.8c0.2-3.2-2.7-7.7-3.8-10.6
				c-2.3-6-4.7-12.1-7-18.1c-1.1-3-1.5-3.3-4.4-4.6c-6-2.7-12-5.4-18-8.1c-2.9-1.3-5.7-2.6-8.6-3.9c-1.7-0.7-3.8-2.2-5.6-2.5
				c-2.4-0.5-5.1,1.5-7.3,2.5c-6.2,2.8-12.5,5.6-18.7,8.4c-2.5,1.1-4.9,2.2-7.4,3.3c-0.9,0.4-2.5,0.8-3.3,1.6
				c-0.7,0.7-1,2.3-1.3,3.2c-1,2.7-2.1,5.5-3.1,8.2c-2.2,5.9-4.5,11.9-6.7,17.8c-1.1,3-0.3,4.1,0.9,7.1c2.7,7,5.4,14,8.1,21.1
				c1.2,3.2,1.5,5.9,4.6,7.3c10.9,5.1,22,9.8,33,14.7C498.9,378.9,500.2,376.8,498.7,376.1z"/>
		</g>
	</g>
</g>
<g id="firstCoin">
	<g id="coinInline">
		<g id="XMLID_33_">
			<path id="XMLID_37_" d="M160.9,400.9c14.5-6.7,29.1-13.4,43.6-20c3.2-1.5,8-2.4,9.5-5.8c3.4-7.8,6-16,8.9-23.9
				c1.7-4.5,3.4-9,5-13.5c0.7-2,2.4-4.7,2.6-6.8c0.1-1.4-0.7-2.7-1.2-4c-1.5-3.8-2.9-7.7-4.4-11.5c-3.3-8.8-6.7-17.6-10-26.4
				c-0.5-1.4-0.9-3.5-2-4.5c-1.1-1-3.4-1.5-4.7-2.1c-8.6-3.9-17.1-7.7-25.7-11.6c-6.7-3-13.7-7.2-20.7-9.3c-3.3-1-7.5,2.2-10.6,3.5
				c-9.2,4.1-18.3,8.2-27.5,12.3c-3.8,1.7-7.6,3.4-11.3,5.1c-1.3,0.6-3.5,1.1-4.5,2.1c-1,1.1-1.5,3.5-2,4.8c-1.6,4-3.1,8.1-4.7,12.1
				c-3.3,8.6-6.6,17.3-10,25.9c-0.5,1.3-1.3,2.6-1.2,4c0.1,2.1,1.8,4.8,2.6,6.7c3.5,9.2,7.1,18.4,10.6,27.6c1.3,3.4,2.4,10,5.4,12.3
				c2,1.5,5.1,2.3,7.3,3.4c4.3,2,8.6,3.9,12.9,5.9c8.6,3.9,17.3,7.9,25.9,11.8c1.6,0.7,3.2,1.5,4.8,2.2c1.5,0.7,2.7-1.5,1.3-2.2
				c-13.9-6.4-27.9-12.7-41.8-19.1c-2.7-1.2-5.5-3-8.3-3.8c-0.4-0.1-0.9-0.3-1.3-0.6c1.1,0.8,0.3,0.4,0-0.7
				c-2.5-7.8-6-15.5-8.9-23.2c-1.6-4.3-3.3-8.5-4.9-12.8c-0.9-2.4-2.4-5.1-3-7.7c-0.2-1.2-0.2,0.8,0-0.2c0.2-0.9,0.7-1.9,1.1-2.8
				c1.4-3.5,2.7-7,4.1-10.5c3.4-8.7,6.7-17.5,10.1-26.2c0.6-1.6,1.1-4.1,2.1-5.4c-1,1.4-0.1,0.4,0.6,0.2c1.1-0.3,2.3-1,3.4-1.5
				c8.2-3.7,16.3-7.3,24.5-11c6.9-3.1,14.9-5.6,21.4-9.6c0.4-0.3,2-0.6,0.7-0.6c-1.3,0,0.2,0.3,0.6,0.6c2.5,1.5,5.6,2.5,8.2,3.7
				c8.9,4,17.7,8,26.6,12c4.9,2.2,11.3,4,15.8,7.1c-1-0.7-0.4-0.6,0,0.6c0.4,1.3,1,2.6,1.5,3.9c1.5,3.9,3,7.8,4.5,11.8
				c3.2,8.3,6.3,16.6,9.5,25c0.3,0.8,0.8,1.7,1,2.6c0.2,0.9,0.2-0.9-0.1,0.3c-0.6,2.6-2,5.3-2.9,7.8c-3.4,9.1-6.8,18.2-10.2,27.2
				c-1.1,2.9-2.5,5.8-3.3,8.7c-0.3,1.1-0.9,1.2,0.1,0.5c-0.5,0.3-1.2,0.6-1.7,0.8c-7.3,2.8-14.4,6.6-21.5,9.9
				c-8.2,3.8-16.4,7.5-24.6,11.3c-1.4,0.6-2.8,1.3-4.2,1.9C158.2,399.4,159.5,401.6,160.9,400.9z"/>
		</g>
	</g>
	<g id="coinOutline">
		<g id="XMLID_27_">
			<path id="XMLID_31_" d="M161,376.3c-9.4-4.2-18.9-8.4-28.3-12.6c-1.7-0.8-3.6-1.9-5.4-2.4c-1.5-0.4-0.4,0.8-0.9-0.9
				c-1.5-5.2-4-10.3-5.9-15.3c-1.7-4.5-4.4-9.4-5.4-14.1c-0.2-1-0.2,0.1-0.2,0c0.1-0.5,0.4-1.1,0.6-1.5c1.1-2.4,1.9-5,2.8-7.4
				c2.2-5.9,4.5-11.9,6.7-17.8c0.4-1.1,0.7-2.8,1.4-3.8c-1.2,1.6,2-0.4,2.7-0.8c5.6-2.5,11.3-5.1,16.9-7.6
				c4.2-1.9,10.2-3.4,13.9-6.3c1.2-0.9-0.5-0.8,0.4-0.1c1.5,1.2,4.1,1.8,5.8,2.6c6.1,2.7,12.1,5.4,18.2,8.1c2.4,1.1,4.8,2.2,7.2,3.2
				c0.8,0.4,3.9,2.3,2.8,0.8c0.7,0.9,1,2.7,1.4,3.8c1.1,2.9,2.3,5.9,3.4,8.8c2.1,5.4,4,10.9,6.2,16.2c0.2,0.5,0.6,1.1,0.6,1.6
				c0.1,0.6,0.1-1-0.1,0c-0.3,1.8-1.4,3.7-2.1,5.4c-2.5,6.7-5.1,13.3-7.6,20c-0.5,1.3-0.9,3.6-1.8,4.8c1-1.3,0.2-0.4-0.5-0.2
				c-0.9,0.3-1.9,0.9-2.8,1.3c-10.5,4.8-20.9,9.6-31.4,14.4c-1.5,0.7-0.2,2.8,1.3,2.2c10.1-4.6,20.1-9.2,30.2-13.8
				c2.4-1.1,4.7-1.5,5.9-3.9c2.6-5.1,4.2-11,6.2-16.3c1.1-2.9,2.2-5.8,3.3-8.7c0.5-1.4,1.7-3.3,1.8-4.8c0.2-3.2-2.7-7.7-3.8-10.6
				c-2.3-6-4.7-12.1-7-18.1c-1.1-3-1.5-3.3-4.4-4.6c-6-2.7-12-5.4-18-8.1c-2.9-1.3-5.7-2.6-8.6-3.9c-1.7-0.7-3.8-2.2-5.6-2.5
				c-2.4-0.5-5.1,1.5-7.3,2.5c-6.2,2.8-12.5,5.6-18.7,8.4c-2.5,1.1-4.9,2.2-7.4,3.3c-0.9,0.4-2.5,0.8-3.3,1.6
				c-0.7,0.7-1,2.3-1.3,3.2c-1,2.7-2.1,5.5-3.1,8.2c-2.2,5.9-4.5,11.9-6.7,17.8c-1.1,3-0.3,4.1,0.9,7.1c2.7,7,5.4,14,8.1,21.1
				c1.2,3.2,1.5,5.9,4.6,7.3c10.9,5.1,22,9.8,33,14.7C161.2,379.1,162.5,376.9,161,376.3z"/>
		</g>
	</g>
</g>
</svg>
