<?xml version="1.0" encoding="utf-8"?>
<!-- Generator: Adobe Illustrator 21.0.0, SVG Export Plug-In . SVG Version: 6.00 Build 0)  -->
<svg version="1.1" id="Layer_1" xmlns="http://www.w3.org/2000/svg" xmlns:xlink="http://www.w3.org/1999/xlink" x="0px" y="0px"
	 viewBox="0 0 360 360" style="enable-background:new 0 0 360 360;" xml:space="preserve">
<style type="text/css">
	.st0{fill:#FFFFFF;}
</style>
<path id="firstline" class="st0" d="M104.2,172.1l-0.6,0.5L37.2,227c-2.7,2.2-6.8,1.8-9-0.9c-1-1.2-1.4-2.6-1.4-4
	c0-1.9,0.8-3.7,2.3-5l68.3-56.1c0.4-0.3,0.9-0.6,1.3-0.8c0.2-0.1,0.5-0.2,0.7-0.3c0.2,0.7,0.6,1.3,0.8,1.9c0.5,1.2,1,2.5,1.4,3.7
	C102.5,167.7,103.5,169.9,104.2,172.1z"/>
<path id="secondline" class="st0" d="M185.8,176.2c0.2,0.5,0.4,1.1,0.6,1.6c-0.3,0-0.5,0-0.8,0c-0.3,0-0.6-0.1-0.9-0.2l-47.2-13.2
	l-0.6-0.2c0.3-0.8,0.6-1.6,0.9-2.3c0.3-0.7,0.7-1.5,0.8-2.3c0,0,0-0.1,0-0.1c0,0,0,0,0,0c-0.1-0.3-0.2-0.5-0.3-0.7
	c-0.9-2.4-1.8-4.8-2.7-7.2c-0.1-0.2-0.1-0.3-0.2-0.5c0.2,0,0.5,0,0.7-0.1h0.1c0.6,0,1.1,0.1,1.7,0.2l47,13.1l0.7,0.2
	c-0.2,0.6-0.5,1.2-0.7,1.8c-0.4,1-0.8,2-1.2,3c-0.1,0.3-0.3,0.5-0.3,0.8v0c0,0,0,0,0,0c0,0.1,0.1,0.2,0.1,0.3
	c0.2,0.7,0.6,1.3,0.8,1.9C184.9,173.8,185.4,175,185.8,176.2z"/>
<path id="thirdline" class="st0" d="M315.4,91.2c0,1.9-0.8,3.7-2.3,4.9l-89,73c-0.2,0.2-0.5,0.4-0.7,0.5c-0.2,0.1-0.4,0.2-0.6,0.3
	c-0.1-0.2-0.2-0.4-0.2-0.6c-0.9-2.4-1.8-4.8-2.7-7.2c-0.1-0.2-0.1-0.3-0.2-0.5c-0.4-1-0.7-2-1.1-2.9c-0.1-0.4-0.3-0.8-0.4-1.1
	c0,0,0,0,0,0l0.6-0.5L305,86.3c2.7-2.2,6.8-1.8,9,0.9C314.9,88.4,315.4,89.8,315.4,91.2z"/>
<g id="arrow">
	<polygon class="st0" points="327,77.4 291.8,85.5 312,110.1 	"/>
</g>
<g id="coin1">
	<path class="st0" d="M106.2,262.2v12.5c-3.5,3.9-18.2,6.9-35.8,6.9c-20.2,0-36.6-3.9-36.6-8.7v-12.5c0,4.8,16.4,8.7,36.6,8.7
		C88,269.1,102.7,266.1,106.2,262.2z"/>
	<path class="st0" d="M106.2,255.1c0,4.1-15.8,8-35.8,8s-36.6-3.9-36.6-8c0-4.1,16.2-7.4,36.2-7.4S106.2,251,106.2,255.1z"/>
</g>
<g id="coin_2">
	<path class="st0" d="M216.2,222.2v12.5c-3.5,3.9-18.2,6.9-35.8,6.9c-20.2,0-36.6-3.9-36.6-8.7v-12.5c0,4.8,16.4,8.7,36.6,8.7
		C198,229.1,212.7,226.1,216.2,222.2z"/>
	<path class="st0" d="M216.2,242.2v12.5c-3.5,3.9-18.2,6.9-35.8,6.9c-20.2,0-36.6-3.9-36.6-8.7v-12.5c0,4.8,16.4,8.7,36.6,8.7
		C198,249.1,212.7,246.1,216.2,242.2z"/>
	<path class="st0" d="M216.2,262.2v12.5c-3.5,3.9-18.2,6.9-35.8,6.9c-20.2,0-36.6-3.9-36.6-8.7v-12.5c0,4.8,16.4,8.7,36.6,8.7
		C198,269.1,212.7,266.1,216.2,262.2z"/>
	<path class="st0" d="M216.2,215.1c0,4.1-15.8,8-35.8,8s-36.6-3.9-36.6-8c0-4.1,16.2-7.4,36.2-7.4S216.2,211,216.2,215.1z"/>
</g>
<g id="coin3">
	<path class="st0" d="M326.2,182.2v12.5c-3.5,3.9-18.2,6.9-35.8,6.9c-20.2,0-36.6-3.9-36.6-8.7v-12.5c0,4.8,16.4,8.7,36.6,8.7
		C308,189.1,322.7,186.1,326.2,182.2z"/>
	<path class="st0" d="M326.2,202.2v12.5c-3.5,3.9-18.2,6.9-35.8,6.9c-20.2,0-36.6-3.9-36.6-8.7v-12.5c0,4.8,16.4,8.7,36.6,8.7
		C308,209.1,322.7,206.1,326.2,202.2z"/>
	<path class="st0" d="M326.2,222.2v12.5c-3.5,3.9-18.2,6.9-35.8,6.9c-20.2,0-36.6-3.9-36.6-8.7v-12.5c0,4.8,16.4,8.7,36.6,8.7
		C308,229.1,322.7,226.1,326.2,222.2z"/>
	<path class="st0" d="M326.2,242.2v12.5c-3.5,3.9-18.2,6.9-35.8,6.9c-20.2,0-36.6-3.9-36.6-8.7v-12.5c0,4.8,16.4,8.7,36.6,8.7
		C308,249.1,322.7,246.1,326.2,242.2z"/>
	<path class="st0" d="M326.2,262.2v12.5c-3.5,3.9-18.2,6.9-35.8,6.9c-20.2,0-36.6-3.9-36.6-8.7v-12.5c0,4.8,16.4,8.7,36.6,8.7
		C308,269.1,322.7,266.1,326.2,262.2z"/>
	<path class="st0" d="M326.2,175.1c0,4.1-15.8,8-35.8,8s-36.6-3.9-36.6-8c0-4.1,16.2-7.4,36.2-7.4S326.2,171,326.2,175.1z"/>
</g>
<g id="Node1">
	<g id="immlogo">
		<path id="rightlogodesign1" class="st0" d="M128.8,160.8h-1.2c-0.2-0.4-0.3-0.7-0.5-1h1.8V160.8z"/>
		<path id="rightlogodesign2" class="st0" d="M115.8,164c0,0,1.5,0.6,3.6-3.1c0.1-0.2,0.2-0.4,0.3-0.6c0,0,0.1-0.2,0.3-0.4
			c0.4-0.7,1.3-2,1.9-2.4c0,0,1.4-1,3.5,0.7c0,0,0.8,0.6,1.4,1.6c0.2,0.3,0.4,0.6,0.5,1c0.1,0.2,0.2,0.5,0.3,0.8
			c0,0,0.6,2.9-2.4,2.4c0,0-1.7-0.4-3.3-1.6c0.2,0.1,3.6,1.7,4,0.3c0,0,0.3-0.7-0.3-1.8c-0.2-0.3-0.4-0.6-0.8-1
			c-0.1-0.1-0.2-0.2-0.4-0.4c0,0-1.7-1.7-3,0.4c0,0-0.1,0.1-0.1,0.1c0,0-0.2,0.4-0.5,0.9c-0.2,0.4-0.4,0.8-0.6,1.1
			c0,0-0.8,1.5-1.5,2C118.7,164,117.3,165.1,115.8,164z"/>
		<path id="leftlogodesign2" class="st0" d="M113.1,162.4c0,0-0.7-0.6-1.4-1.6c-0.2-0.3-0.4-0.6-0.5-1c-0.1-0.3-0.2-0.5-0.3-0.8
			c0,0-0.6-2.9,2.5-2.4c0,0,1.7,0.4,3.2,1.7c-0.2-0.1-3.6-1.7-4-0.3c0,0-0.3,0.8,0.3,1.9c0.2,0.3,0.4,0.6,0.8,1
			c0.1,0.1,0.2,0.2,0.3,0.3c0,0,1.7,1.7,3-0.3c0-0.1,0.1-0.1,0.1-0.2c0,0,0.2-0.4,0.5-0.8c0.2-0.4,0.5-0.8,0.6-1.1
			c0,0,0.8-1.5,1.5-2c0,0,1.4-1.1,3,0c0,0-1.5-0.6-3.6,3.1c-0.1,0.2-0.2,0.4-0.3,0.6c0,0-0.1,0.2-0.3,0.4c-0.4,0.7-1.3,2-1.9,2.3
			C116.6,163.2,115.2,164.1,113.1,162.4z"/>
		<path id="leftlogodesign1" class="st0" d="M111.5,160.8h-1.8v-1h1.3C111.1,160.2,111.3,160.5,111.5,160.8z"/>
	</g>
	<g id="Inside">
		<path class="st0" d="M131.8,156.6c-0.3-0.8-0.6-1.7-1-2.5c-0.3-0.9-0.7-1.8-1-2.7c-0.3-0.9-0.4-1-1.3-1.3
			c-1.7-0.8-3.5-1.6-5.2-2.4c-0.8-0.4-1.7-0.7-2.5-1.1c-0.5-0.2-1.1-0.6-1.6-0.7c-0.7-0.1-1.5,0.4-2.1,0.7c-1.8,0.8-3.6,1.6-5.4,2.4
			c-0.7,0.3-1.4,0.6-2.1,0.9c-0.3,0.1-0.7,0.2-0.9,0.5c-0.2,0.2-0.3,0.7-0.4,0.9c-0.3,0.8-0.6,1.6-0.9,2.4c-0.6,1.7-1.3,3.4-1.9,5.2
			c-0.3,0.9-0.1,1.2,0.3,2.1c0,0.1,0.1,0.2,0.1,0.3c0.7,1.8,1.4,3.6,2.1,5.5c0,0.1,0.1,0.2,0.1,0.3c0.4,0.9,0.4,1.7,1.3,2.1
			c3.2,1.5,6.4,2.8,9.5,4.2c0,0,0,0,0,0c0.1,0.1,0.2,0.1,0.3,0c2.9-1.3,5.8-2.7,8.7-4c0.7-0.3,1.4-0.4,1.7-1.1
			c0.7-1.5,1.2-3.2,1.8-4.7c0.2-0.5,0.4-1,0.6-1.4c0.1-0.4,0.3-0.7,0.4-1.1c0.1-0.4,0.5-0.9,0.5-1.4
			C133,158.7,132.1,157.4,131.8,156.6z M132.2,159.6c-0.1,0.5-0.4,1.1-0.6,1.6c-0.1,0.1-0.1,0.3-0.2,0.4c-0.7,1.8-1.4,3.6-2,5.4
			c-0.1,0.3-0.2,0.8-0.4,1.2c0,0-0.1,0.1-0.3,0.1c-0.3,0.1-0.6,0.3-0.8,0.4c-3,1.4-5.9,2.7-8.8,4c-2.7-1.2-5.4-2.4-8-3.6
			c-0.5-0.2-1-0.6-1.6-0.7c-0.1,0-0.2,0-0.2,0c0,0,0-0.1,0-0.2c-0.4-1.5-1.1-3-1.7-4.4c-0.5-1.3-1.3-2.7-1.6-4.1c0-0.1,0-0.1,0-0.1
			v0c0-0.1,0.1-0.2,0.1-0.3c0.3-0.7,0.6-1.4,0.8-2.1c0.6-1.7,1.3-3.4,1.9-5.2c0.1-0.3,0.2-0.7,0.3-1c0,0.1,0.7-0.3,0.9-0.4
			c1.6-0.7,3.3-1.5,4.9-2.2c1.2-0.6,2.9-1,4-1.8c0,0,0.1-0.1,0.1-0.1c0,0,0,0,0,0c0.4,0.4,1.2,0.5,1.7,0.8c1.8,0.8,3.5,1.6,5.3,2.3
			c0.7,0.3,1.4,0.6,2.1,0.9c0.2,0.1,0.9,0.5,0.9,0.4c0.2,0.3,0.2,0.7,0.3,1c0.3,0.8,0.7,1.7,1,2.5c0.1,0.1,0.1,0.3,0.2,0.5
			c0.5,1.4,1.1,2.8,1.6,4.2C132.1,159.2,132.2,159.3,132.2,159.6C132.2,159.5,132.2,159.5,132.2,159.6z"/>
	</g>
	<g id="Outside">
		<path class="st0" d="M139,158.4c-0.4-1.1-0.8-2.2-1.3-3.3c-0.5-1.4-1-2.7-1.5-4.1c-0.5-1.2-0.9-2.4-1.4-3.6
			c-0.1-0.4-0.3-1-0.6-1.3c-0.3-0.3-1-0.4-1.4-0.6c-2.5-1.1-5-2.2-7.4-3.4c-1.9-0.9-4-2.1-6-2.7c-1-0.3-2.2,0.6-3.1,1
			c-2.7,1.2-5.3,2.4-8,3.6c-1.1,0.5-2.2,1-3.3,1.5c-0.4,0.2-1,0.3-1.3,0.6c-0.3,0.3-0.4,1-0.6,1.4c-0.5,1.2-0.9,2.3-1.4,3.5
			c-0.9,2.5-1.9,5-2.9,7.5c-0.1,0.4-0.4,0.8-0.3,1.2c0,0.2,0,0.3,0.1,0.5c0.2,0.5,0.5,1,0.6,1.4c1,2.7,2.1,5.3,3.1,8
			c0.3,0.8,0.6,2.1,1.1,3c0.1,0.2,0.3,0.5,0.5,0.6c0.6,0.4,1.5,0.7,2.1,1c1.2,0.6,2.5,1.1,3.7,1.7c2.5,1.1,5,2.3,7.5,3.4
			c0.5,0.2,0.9,0.4,1.4,0.6c0.2,0.1,0.4,0,0.5-0.1c4.2-1.9,8.4-3.9,12.6-5.8c0.9-0.4,2.3-0.7,2.7-1.7c1-2.3,1.7-4.6,2.6-6.9
			c0.1-0.4,0.3-0.7,0.4-1.1c0.4-0.9,0.7-1.9,1.1-2.8c0.2-0.6,0.7-1.4,0.7-2C139.4,159.2,139.1,158.8,139,158.4z M138.7,159.6
			C138.7,159.6,138.7,159.6,138.7,159.6c-0.2,0.8-0.6,1.6-0.9,2.3c-0.3,0.8-0.6,1.6-0.9,2.3c-0.7,1.9-1.4,3.7-2.1,5.5
			c-0.3,0.8-0.7,1.7-1,2.5c0,0.1-0.1,0.2-0.1,0.2c0,0,0,0,0,0c-0.1,0.1-0.3,0.1-0.4,0.2c-2.1,0.8-4.2,1.9-6.2,2.9
			c-2.4,1.1-4.7,2.2-7.1,3.3c-0.3,0.1-0.7,0.3-1,0.5c-4-1.8-8-3.7-12-5.5c-0.8-0.4-1.6-0.9-2.4-1.1c-0.1,0-0.2-0.1-0.3-0.1
			c0-0.1-0.1-0.1-0.1-0.3c0-0.1-0.1-0.2-0.1-0.2c-0.7-2.2-1.7-4.3-2.5-6.5c-0.5-1.2-1-2.5-1.4-3.7c-0.2-0.6-0.6-1.3-0.8-1.9
			c0-0.1-0.1-0.2-0.1-0.3c0,0,0,0,0,0v0c0.1-0.3,0.2-0.6,0.3-0.8c0.4-1,0.8-2,1.2-3c1-2.5,1.9-5.1,2.9-7.6c0.1-0.4,0.3-1,0.5-1.4
			c0,0,0.2-0.1,0.3-0.1c0.3-0.1,0.7-0.3,1-0.4c2.4-1.1,4.7-2.1,7.1-3.2c2-0.9,4.3-1.6,6.2-2.8c0,0,0.1-0.1,0.2-0.1
			c0.1,0,0.1,0.1,0.2,0.1c0.7,0.4,1.6,0.7,2.4,1.1c2.6,1.2,5.1,2.3,7.7,3.5c1.4,0.6,3.2,1.1,4.4,2c0,0.1,0.1,0.1,0.1,0.2
			c0.1,0.4,0.3,0.8,0.4,1.1c0.4,1,0.7,1.9,1.1,2.9c0.1,0.2,0.1,0.3,0.2,0.5c0.9,2.4,1.8,4.8,2.7,7.2
			C138.5,159,138.6,159.3,138.7,159.6C138.7,159.6,138.7,159.6,138.7,159.6z"/>
	</g>
</g>
<g id="Node2">
	<g id="immlogo_1_">
		<path id="rightlogodesign1_1_" class="st0" d="M212.9,171.5h-1.2c-0.2-0.4-0.3-0.7-0.5-1h1.8V171.5z"/>
		<path id="rightlogodesign2_1_" class="st0" d="M199.9,174.6c0,0,1.5,0.6,3.6-3.1c0.1-0.2,0.2-0.4,0.3-0.6c0,0,0.1-0.2,0.3-0.4
			c0.4-0.7,1.3-2,1.9-2.4c0,0,1.4-1,3.5,0.7c0,0,0.8,0.6,1.4,1.6c0.2,0.3,0.4,0.6,0.5,1c0.1,0.2,0.2,0.5,0.3,0.8
			c0,0,0.6,2.9-2.4,2.4c0,0-1.7-0.4-3.3-1.6c0.2,0.1,3.6,1.7,4,0.3c0,0,0.3-0.7-0.3-1.8c-0.2-0.3-0.4-0.6-0.8-1
			c-0.1-0.1-0.2-0.2-0.4-0.4c0,0-1.7-1.7-3,0.4c0,0-0.1,0.1-0.1,0.1c0,0-0.2,0.4-0.5,0.9c-0.2,0.4-0.4,0.8-0.6,1.1
			c0,0-0.8,1.5-1.5,2C202.8,174.6,201.5,175.7,199.9,174.6z"/>
		<path id="leftlogodesign2_1_" class="st0" d="M197.2,173c0,0-0.7-0.6-1.4-1.6c-0.2-0.3-0.4-0.6-0.5-1c-0.1-0.3-0.2-0.5-0.3-0.8
			c0,0-0.6-2.9,2.5-2.4c0,0,1.7,0.4,3.2,1.7c-0.2-0.1-3.6-1.7-4-0.3c0,0-0.3,0.8,0.3,1.9c0.2,0.3,0.4,0.6,0.8,1
			c0.1,0.1,0.2,0.2,0.3,0.3c0,0,1.7,1.7,3-0.3c0-0.1,0.1-0.1,0.1-0.2c0,0,0.2-0.4,0.5-0.8c0.2-0.4,0.5-0.8,0.6-1.1
			c0,0,0.8-1.5,1.5-2c0,0,1.4-1.1,3,0c0,0-1.5-0.6-3.6,3.1c-0.1,0.2-0.2,0.4-0.3,0.6c0,0-0.1,0.2-0.3,0.4c-0.4,0.7-1.3,2-1.9,2.3
			C200.7,173.8,199.4,174.8,197.2,173z"/>
		<path id="leftlogodesign1_1_" class="st0" d="M195.6,171.5h-1.8v-1h1.3C195.3,170.9,195.4,171.2,195.6,171.5z"/>
	</g>
	<g id="Inside_1_">
		<path class="st0" d="M217,169.9c-0.2-0.9-0.8-1.9-1.1-2.6c-0.3-0.8-0.6-1.7-1-2.5c-0.3-0.8-0.6-1.7-1-2.5v0c0-0.1-0.1-0.2-0.1-0.2
			c-0.3-0.9-0.4-1-1.3-1.3c-1.7-0.8-3.5-1.6-5.2-2.4c-0.8-0.4-1.7-0.7-2.5-1.1c-0.5-0.2-1.1-0.6-1.6-0.7c-0.7-0.1-1.5,0.4-2.1,0.7
			c-1.8,0.8-3.6,1.6-5.4,2.4c-0.7,0.3-1.4,0.6-2.1,0.9c-0.3,0.1-0.7,0.2-0.9,0.5c-0.2,0.2-0.3,0.7-0.4,0.9c-0.3,0.8-0.6,1.6-0.9,2.4
			c-0.3,0.7-0.6,1.5-0.8,2.2c-0.4,1-0.7,2-1.1,2.9c-0.3,0.9-0.1,1.2,0.3,2.1c0,0.1,0.1,0.2,0.1,0.3c0.5,1.2,1,2.5,1.4,3.7
			c0.2,0.6,0.4,1.2,0.7,1.7c0,0.1,0.1,0.2,0.1,0.3c0.4,0.9,0.4,1.7,1.3,2.1c3.2,1.5,6.4,2.8,9.5,4.2c0,0,0,0,0,0
			c0.1,0.1,0.2,0.1,0.3,0c2.9-1.3,5.8-2.7,8.7-4c0.7-0.3,1.4-0.4,1.7-1.1c0.7-1.5,1.2-3.2,1.8-4.7c0.2-0.5,0.4-1,0.6-1.4
			c0.1-0.4,0.3-0.7,0.4-1.1c0.1-0.4,0.5-0.9,0.5-1.4C217,170.2,217,170,217,169.9z M216.3,170.2c-0.1,0.5-0.4,1.1-0.6,1.6
			c-0.1,0.1-0.1,0.3-0.2,0.4c-0.7,1.8-1.4,3.6-2,5.4c-0.1,0.3-0.2,0.8-0.4,1.2c0,0-0.1,0.1-0.3,0.1c-0.3,0.1-0.6,0.3-0.8,0.4
			c-3,1.4-5.9,2.7-8.8,4c-2.7-1.2-5.4-2.4-8-3.6c-0.5-0.2-1-0.6-1.6-0.7c-0.1,0-0.2,0-0.2,0c0,0,0-0.1,0-0.2c-0.4-1.3-1-2.6-1.5-3.9
			c-0.1-0.2-0.1-0.4-0.2-0.6c-0.5-1.3-1.3-2.7-1.6-4.1c0-0.1,0-0.1,0-0.1v0c0-0.1,0.1-0.2,0.1-0.3c0.3-0.7,0.6-1.4,0.8-2.1
			c0.1-0.2,0.1-0.4,0.2-0.5c0.6-1.5,1.2-3.1,1.7-4.6c0.1-0.3,0.2-0.7,0.3-1c0,0.1,0.7-0.3,0.9-0.4c1.6-0.7,3.3-1.5,4.9-2.2
			c1.2-0.6,2.9-1,4-1.8c0,0,0.1-0.1,0.1-0.1c0,0,0,0,0,0c0.4,0.4,1.2,0.5,1.7,0.8c1.8,0.8,3.5,1.6,5.3,2.3c0.7,0.3,1.4,0.6,2.1,0.9
			c0.2,0.1,0.9,0.5,0.9,0.4c0.2,0.3,0.2,0.7,0.3,1c0.1,0.3,0.2,0.6,0.4,0.9c0.2,0.5,0.4,1.1,0.6,1.6c0.1,0.1,0.1,0.3,0.2,0.5
			l1.4,3.6c0.1,0.2,0.1,0.4,0.2,0.6C216.2,169.9,216.3,170,216.3,170.2C216.3,170.1,216.3,170.1,216.3,170.2z"/>
	</g>
	<g id="Outside_1_">
		<path class="st0" d="M223.4,169.7c-0.1-0.2-0.2-0.4-0.3-0.6c-0.4-1.1-0.8-2.2-1.3-3.3c-0.5-1.4-1-2.7-1.5-4.1
			c-0.5-1.2-0.9-2.4-1.4-3.6c-0.1-0.3-0.2-0.6-0.3-0.9c-0.1-0.1-0.1-0.3-0.3-0.4c-0.3-0.3-1-0.4-1.4-0.6c-2.5-1.1-5-2.2-7.4-3.4
			c-1.9-0.9-4-2.1-6-2.7c-1-0.3-2.2,0.6-3.1,1c-2.7,1.2-5.3,2.4-8,3.6c-1.1,0.5-2.2,1-3.3,1.5c-0.4,0.2-1,0.3-1.3,0.6
			c-0.3,0.3-0.4,1-0.6,1.4c-0.5,1.2-0.9,2.3-1.4,3.5c-0.3,0.9-0.7,1.8-1,2.7c-0.6,1.6-1.2,3.2-1.9,4.8c-0.1,0.4-0.4,0.8-0.3,1.2
			c0,0.2,0,0.3,0.1,0.5c0.2,0.5,0.5,1,0.6,1.4c0.7,1.8,1.4,3.7,2.1,5.5c0.3,0.8,0.6,1.7,1,2.5c0.3,0.8,0.6,2.1,1.1,3
			c0.1,0.2,0.3,0.5,0.5,0.6c0.6,0.4,1.5,0.7,2.1,1c1.2,0.6,2.5,1.1,3.7,1.7c2.5,1.1,5,2.3,7.5,3.4c0.5,0.2,0.9,0.4,1.4,0.6
			c0.2,0.1,0.4,0,0.5-0.1c4.2-1.9,8.4-3.9,12.6-5.8c0.9-0.4,2.3-0.7,2.7-1.7c1-2.3,1.7-4.6,2.6-6.9c0.1-0.4,0.3-0.7,0.4-1.1
			c0.4-0.9,0.7-1.9,1.1-2.8c0.2-0.6,0.7-1.4,0.7-2C223.5,170.1,223.4,169.9,223.4,169.7z M222.8,170.2
			C222.8,170.2,222.8,170.2,222.8,170.2c-0.2,0.8-0.6,1.6-0.9,2.3c-0.3,0.8-0.6,1.6-0.9,2.3c-0.7,1.9-1.4,3.7-2.1,5.5
			c-0.3,0.8-0.7,1.7-1,2.5c0,0.1-0.1,0.2-0.1,0.2c0,0,0,0,0,0c-0.1,0.1-0.3,0.1-0.4,0.2c-2.1,0.8-4.2,1.9-6.2,2.9
			c-2.4,1.1-4.7,2.2-7.1,3.3c-0.3,0.1-0.7,0.3-1,0.5c-4-1.8-8-3.7-12-5.5c-0.8-0.4-1.6-0.9-2.4-1.1c-0.1,0-0.2-0.1-0.3-0.1
			c0-0.1-0.1-0.1-0.1-0.3c0-0.1-0.1-0.2-0.1-0.2c-0.5-1.6-1.2-3.2-1.9-4.9c-0.2-0.5-0.4-1.1-0.6-1.6c-0.5-1.2-1-2.5-1.4-3.7
			c-0.2-0.6-0.6-1.3-0.8-1.9c0-0.1-0.1-0.2-0.1-0.3c0,0,0,0,0,0v0c0.1-0.3,0.2-0.6,0.3-0.8c0.4-1,0.8-2,1.2-3
			c0.2-0.6,0.5-1.2,0.7-1.8c0.7-1.9,1.5-3.9,2.2-5.8c0.1-0.4,0.3-1,0.5-1.4c0,0,0.2-0.1,0.3-0.1c0.3-0.1,0.7-0.3,1-0.4
			c2.4-1.1,4.7-2.1,7.1-3.2c2-0.9,4.3-1.6,6.2-2.8c0,0,0.1-0.1,0.2-0.1c0.1,0,0.1,0.1,0.2,0.1c0.7,0.4,1.6,0.7,2.4,1.1
			c2.6,1.2,5.1,2.3,7.7,3.5c1.4,0.6,3.2,1.1,4.4,2c0,0.1,0.1,0.1,0.1,0.2c0,0,0,0,0,0c0.1,0.4,0.3,0.8,0.4,1.1
			c0.4,1,0.7,1.9,1.1,2.9c0.1,0.2,0.1,0.3,0.2,0.5c0.9,2.4,1.8,4.8,2.7,7.2c0.1,0.2,0.2,0.4,0.2,0.6
			C222.8,170.1,222.8,170.1,222.8,170.2C222.8,170.2,222.8,170.2,222.8,170.2z"/>
	</g>
</g>
</svg>
