<?xml version="1.0" encoding="utf-8"?>
<!-- Generator: Adobe Illustrator 21.0.0, SVG Export Plug-In . SVG Version: 6.00 Build 0)  -->
<svg version="1.1" id="Layer_1" xmlns="http://www.w3.org/2000/svg" xmlns:xlink="http://www.w3.org/1999/xlink" x="0px" y="0px"
	 viewBox="0 0 360 360" style="enable-background:new 0 0 360 360;" xml:space="preserve">
<style type="text/css">
	.st0{fill:#FFFFFF;}
</style>
<g id="thirdcontrol">
	<path id="upline_1_" class="st0" d="M244.1,106.1v13.3c-1.6-0.7-3.2-1.4-4.8-2.2c-0.9-0.4-2.1-0.8-3-1.3c0,0-0.1-0.1-0.2-0.1
		c-0.1,0-0.2,0.1-0.2,0.1c-2.4,1.4-5.2,2.3-7.7,3.5c-0.1,0-0.2,0.1-0.2,0.1v-13.4c0-4.5,3.6-8.1,8.1-8.1c2.2,0,4.3,0.9,5.7,2.4
		C243.2,101.8,244.1,103.9,244.1,106.1z"/>
	<path id="downline_1_" class="st0" d="M237.4,163.9c2.2-1,4.5-2.1,6.7-3.1v93.1c0,4.5-3.6,8.1-8.1,8.1s-8.1-3.6-8.1-8.1v-93.2
		c2.7,1.2,5.5,2.5,8.2,3.7C236.6,164.3,237,164.1,237.4,163.9z"/>
	<g id="Node1_2_">
		<g id="immlogo_2_">
			<path id="rightlogodesign1_2_" class="st0" d="M248.2,141.5h-1.5c-0.2-0.5-0.4-0.9-0.7-1.2h2.2V141.5z"/>
			<path id="rightlogodesign2_2_" class="st0" d="M232,145.4c0,0,1.8,0.7,4.4-3.9c0.1-0.2,0.3-0.5,0.4-0.7c0,0,0.1-0.2,0.3-0.5
				c0.5-0.8,1.6-2.5,2.4-2.9c0,0,1.7-1.2,4.4,0.9c0,0,1,0.7,1.8,2c0.2,0.4,0.5,0.8,0.7,1.2c0.1,0.3,0.2,0.6,0.3,0.9c0,0,0.8,3.6-3,3
				c0,0-2.2-0.4-4.1-2c0.2,0.1,4.5,2.1,5,0.3c0,0,0.3-0.9-0.4-2.2c-0.2-0.4-0.5-0.8-0.9-1.2c-0.1-0.1-0.3-0.3-0.5-0.4
				c0,0-2.1-2.2-3.7,0.4c0,0.1-0.1,0.1-0.1,0.2c0,0-0.3,0.5-0.6,1.1c-0.3,0.5-0.5,1-0.7,1.4c0,0-0.9,1.9-1.9,2.5
				C235.7,145.4,233.9,146.8,232,145.4z"/>
			<path id="leftlogodesign2_2_" class="st0" d="M228.7,143.5c0,0-0.9-0.7-1.7-1.9c-0.2-0.4-0.5-0.8-0.7-1.2c-0.1-0.3-0.3-0.7-0.4-1
				c0,0-0.7-3.6,3.1-3c0,0,2.2,0.5,4,2.1c-0.2-0.1-4.5-2.2-5-0.4c0,0-0.3,1,0.4,2.3c0.2,0.4,0.5,0.8,1,1.2c0.1,0.1,0.3,0.2,0.4,0.4
				c0,0,2.1,2.2,3.7-0.4c0-0.1,0.1-0.1,0.1-0.2c0,0,0.3-0.5,0.6-1c0.3-0.5,0.6-1,0.8-1.4c0,0,1-1.9,1.9-2.5c0,0,1.7-1.4,3.7,0
				c0,0-1.8-0.7-4.5,3.9c-0.1,0.2-0.3,0.5-0.4,0.7c0,0-0.1,0.2-0.3,0.5c-0.5,0.9-1.6,2.4-2.4,2.9
				C233.1,144.4,231.3,145.6,228.7,143.5z"/>
			<path id="leftlogodesign1_2_" class="st0" d="M226.7,141.5h-2.2v-1.2h1.6C226.2,140.8,226.5,141.2,226.7,141.5z"/>
		</g>
		<g id="Inside_2_">
			<path class="st0" d="M252,136.3c-0.4-1-0.8-2.1-1.2-3.1c-0.4-1.1-0.9-2.3-1.3-3.4c-0.4-1.1-0.5-1.2-1.6-1.7
				c-1.2-0.6-2.5-1.1-3.7-1.7c-0.9-0.4-1.8-0.8-2.7-1.2c-1.1-0.5-2.1-0.9-3.1-1.4c-0.6-0.3-1.4-0.8-2-0.9c-0.9-0.2-1.8,0.5-2.6,0.9
				c-1.9,0.9-3.8,1.7-5.7,2.6c-0.3,0.2-0.7,0.3-1,0.5c-0.9,0.4-1.8,0.8-2.7,1.2c-0.3,0.1-0.9,0.3-1.2,0.6c-0.3,0.2-0.4,0.8-0.5,1.2
				c-0.4,1-0.8,2-1.1,3c-0.8,2.1-1.6,4.3-2.4,6.4c-0.4,1.1-0.1,1.5,0.3,2.6c0,0.1,0.1,0.3,0.2,0.4c0.9,2.3,1.7,4.5,2.6,6.8
				c0,0.1,0.1,0.2,0.1,0.4c0.4,1.2,0.5,2.1,1.7,2.6c1.3,0.6,2.7,1.2,4,1.8c2.6,1.2,5.2,2.3,7.9,3.5c0,0,0,0,0,0
				c0.1,0.1,0.3,0.1,0.4,0c2.6-1.2,5.2-2.4,7.9-3.6l3-1.4c0.9-0.4,1.7-0.5,2.1-1.4c0.9-1.8,1.5-4,2.2-5.9c0.2-0.6,0.4-1.2,0.7-1.8
				c0.2-0.4,0.3-0.9,0.5-1.3c0.2-0.5,0.6-1.2,0.6-1.7C253.4,138.9,252.4,137.3,252,136.3z M252.4,139.9c-0.1,0.6-0.5,1.3-0.8,1.9
				c-0.1,0.2-0.1,0.4-0.2,0.5c-0.8,2.2-1.7,4.4-2.5,6.7c-0.1,0.4-0.3,1-0.5,1.5c0,0-0.2,0.1-0.3,0.2c-0.3,0.1-0.7,0.3-1,0.5
				c-1,0.5-2,0.9-3,1.4c-2.7,1.2-5.3,2.4-8,3.7c-2.7-1.2-5.5-2.4-8.2-3.6c-0.6-0.3-1.2-0.5-1.8-0.8c-0.6-0.3-1.3-0.7-1.9-0.9
				c-0.2,0-0.3,0-0.3,0c0,0,0-0.1,0-0.3c-0.5-1.9-1.4-3.7-2.1-5.5c-0.6-1.6-1.6-3.4-2-5.1c0-0.1,0-0.1,0-0.1v0
				c0-0.1,0.1-0.3,0.2-0.4c0.4-0.9,0.7-1.8,1-2.7c0.8-2.1,1.6-4.3,2.4-6.4c0.1-0.3,0.2-0.8,0.4-1.2c0,0.2,0.9-0.3,1.1-0.5
				c1-0.5,2.1-0.9,3.1-1.4c1-0.4,2-0.9,3-1.3c1.5-0.7,3.7-1.2,5-2.3c0,0,0.1-0.1,0.1-0.1c0,0,0,0,0.1,0c0.5,0.4,1.5,0.7,2.1,0.9
				c2,0.9,4,1.8,6,2.7c0.2,0.1,0.4,0.2,0.6,0.2c0.9,0.4,1.7,0.8,2.6,1.2c0.2,0.1,1.1,0.6,1.1,0.4c0.2,0.3,0.3,0.9,0.4,1.2
				c0.4,1,0.8,2.1,1.2,3.2c0.1,0.2,0.1,0.4,0.2,0.6c0.7,1.8,1.3,3.5,2,5.3c0.1,0.1,0.2,0.3,0.2,0.5
				C252.4,139.8,252.4,139.9,252.4,139.9z"/>
		</g>
		<g id="Outside_2_">
			<path class="st0" d="M260.9,138.5c-0.5-1.4-1-2.8-1.6-4.1c-0.6-1.7-1.3-3.4-1.9-5.1c-0.6-1.5-1.1-3-1.7-4.4
				c-0.2-0.5-0.3-1.3-0.7-1.6c-0.4-0.4-1.2-0.5-1.7-0.7c-3.1-1.4-6.1-2.8-9.2-4.1c0,0,0,0-0.1,0c-2.4-1.1-4.9-2.6-7.5-3.3
				c-1.2-0.4-2.7,0.8-3.8,1.3c-1.6,0.7-3.2,1.4-4.8,2.2c-1.7,0.8-3.4,1.5-5.1,2.3c-1.4,0.6-2.7,1.2-4.1,1.8
				c-0.5,0.2-1.3,0.4-1.6,0.7c-0.3,0.4-0.5,1.3-0.7,1.7c-0.6,1.4-1.1,2.9-1.7,4.4c-1.2,3.1-2.4,6.2-3.6,9.3
				c-0.2,0.5-0.5,0.9-0.4,1.5c0,0.2,0,0.4,0.1,0.6c0.2,0.6,0.6,1.3,0.8,1.8c1.3,3.3,2.6,6.6,3.8,9.9c0.4,1,0.7,2.6,1.3,3.7
				c0.2,0.3,0.4,0.6,0.6,0.7c0.7,0.5,1.8,0.8,2.6,1.2c1.5,0.7,3.1,1.4,4.6,2.1c1.1,0.5,2.2,1,3.2,1.5c2,0.9,4.1,1.9,6.1,2.8
				c0.6,0.3,1.1,0.5,1.7,0.8c0.2,0.1,0.5,0,0.6-0.1c2.6-1.2,5.2-2.4,7.8-3.6c2.6-1.2,5.2-2.4,7.9-3.6c1.2-0.5,2.9-0.9,3.4-2.1
				c1.2-2.8,2.2-5.8,3.2-8.6c0.1-0.4,0.3-0.9,0.5-1.3c0.4-1.2,0.9-2.4,1.3-3.5c0.3-0.7,0.9-1.7,0.9-2.5
				C261.4,139.5,261.1,139,260.9,138.5z M260.5,139.9C260.5,140,260.5,140,260.5,139.9c-0.2,1-0.8,2-1.1,2.9c-0.4,1-0.7,1.9-1.1,2.9
				c-0.9,2.3-1.7,4.6-2.6,6.9c-0.4,1-0.9,2.1-1.2,3.1c0,0.1-0.1,0.2-0.1,0.3c0,0,0,0,0,0c-0.2,0.1-0.3,0.2-0.5,0.2
				c-2.6,1-5.2,2.4-7.7,3.6c-0.7,0.3-1.4,0.7-2.2,1c-2.2,1-4.5,2-6.7,3.1c-0.4,0.2-0.8,0.4-1.3,0.6c-2.7-1.3-5.5-2.5-8.2-3.7
				c-2.3-1-4.5-2.1-6.8-3.1c-1-0.4-2-1.1-3-1.4c-0.1,0-0.2-0.1-0.3-0.1c0-0.1-0.1-0.2-0.1-0.3c0-0.1-0.1-0.2-0.1-0.3
				c-0.9-2.7-2.1-5.4-3.1-8.1c-0.6-1.5-1.2-3.1-1.8-4.6c-0.3-0.8-0.7-1.6-1-2.4c0-0.1-0.1-0.2-0.1-0.4c0,0,0,0,0,0v0
				c0.1-0.3,0.2-0.7,0.4-1c0.5-1.3,1-2.5,1.5-3.8c1.2-3.1,2.4-6.3,3.6-9.4c0.2-0.5,0.3-1.2,0.6-1.7c0,0,0.2-0.1,0.4-0.2
				c0.4-0.1,0.8-0.4,1.2-0.5c2.9-1.3,5.7-2.6,8.6-3.9c0.1,0,0.2-0.1,0.2-0.1c2.5-1.1,5.4-2,7.7-3.5c0,0,0.1-0.1,0.2-0.1
				c0.1,0,0.2,0.1,0.2,0.1c0.9,0.5,2,0.9,3,1.3c1.6,0.7,3.2,1.4,4.8,2.2c1.6,0.7,3.2,1.4,4.8,2.2c1.7,0.8,3.9,1.4,5.5,2.5
				c0.1,0.1,0.1,0.2,0.2,0.3c0.1,0.5,0.4,0.9,0.5,1.4c0.5,1.2,0.9,2.4,1.4,3.6c0.1,0.2,0.1,0.4,0.2,0.6c1.1,3,2.3,6,3.4,9
				C260.3,139.3,260.5,139.6,260.5,139.9C260.5,139.9,260.5,139.9,260.5,139.9z"/>
		</g>
	</g>
</g>
<g id="secondcontrol">
	<path id="upline" class="st0" d="M188.1,106.1v96.7c-1.6-0.7-3.2-1.4-4.8-2.2c-0.9-0.4-2.1-0.8-3-1.3c0,0-0.1-0.1-0.2-0.1
		c-0.1,0-0.2,0.1-0.2,0.1c-2.4,1.4-5.2,2.3-7.7,3.5c-0.1,0-0.2,0.1-0.2,0.1v-96.8c0-4.5,3.6-8.1,8.1-8.1c2.2,0,4.3,0.9,5.7,2.4
		C187.2,101.8,188.1,103.9,188.1,106.1z"/>
	<path id="downline" class="st0" d="M181.4,247.3c2.2-1,4.5-2.1,6.7-3.1v9.7c0,4.5-3.6,8.1-8.1,8.1s-8.1-3.6-8.1-8.1v-9.8
		c2.7,1.2,5.5,2.5,8.2,3.7C180.5,247.7,181,247.5,181.4,247.3z"/>
	<g id="Node1_1_">
		<g id="immlogo_1_">
			<path id="rightlogodesign1_1_" class="st0" d="M192.2,224.9h-1.5c-0.2-0.5-0.4-0.9-0.7-1.2h2.2V224.9z"/>
			<path id="rightlogodesign2_1_" class="st0" d="M176,228.8c0,0,1.8,0.7,4.4-3.9c0.1-0.2,0.3-0.5,0.4-0.7c0,0,0.1-0.2,0.3-0.5
				c0.5-0.8,1.6-2.5,2.4-2.9c0,0,1.7-1.2,4.4,0.9c0,0,1,0.7,1.8,2c0.2,0.4,0.5,0.8,0.7,1.2c0.1,0.3,0.2,0.6,0.3,0.9c0,0,0.8,3.6-3,3
				c0,0-2.2-0.4-4.1-2c0.2,0.1,4.5,2.1,5,0.3c0,0,0.3-0.9-0.4-2.2c-0.2-0.4-0.5-0.8-0.9-1.2c-0.1-0.1-0.3-0.3-0.5-0.4
				c0,0-2.1-2.2-3.7,0.4c0,0.1-0.1,0.1-0.1,0.2c0,0-0.3,0.5-0.6,1.1c-0.3,0.5-0.5,1-0.7,1.4c0,0-0.9,1.9-1.9,2.5
				C179.7,228.8,177.9,230.2,176,228.8z"/>
			<path id="leftlogodesign2_1_" class="st0" d="M172.7,226.9c0,0-0.9-0.7-1.7-1.9c-0.2-0.4-0.5-0.8-0.7-1.2c-0.1-0.3-0.3-0.7-0.4-1
				c0,0-0.7-3.6,3.1-3c0,0,2.2,0.5,4,2.1c-0.2-0.1-4.5-2.2-5-0.4c0,0-0.3,1,0.4,2.3c0.2,0.4,0.5,0.8,1,1.2c0.1,0.1,0.3,0.2,0.4,0.4
				c0,0,2.1,2.2,3.7-0.4c0-0.1,0.1-0.1,0.1-0.2c0,0,0.3-0.5,0.6-1c0.3-0.5,0.6-1,0.8-1.4c0,0,1-1.9,1.9-2.5c0,0,1.7-1.4,3.7,0
				c0,0-1.8-0.7-4.5,3.9c-0.1,0.2-0.3,0.5-0.4,0.7c0,0-0.1,0.2-0.3,0.5c-0.5,0.9-1.6,2.4-2.4,2.9C177,227.8,175.3,229,172.7,226.9z"
				/>
			<path id="leftlogodesign1_1_" class="st0" d="M170.7,224.9h-2.2v-1.2h1.6C170.2,224.2,170.4,224.6,170.7,224.9z"/>
		</g>
		<g id="Inside_1_">
			<path class="st0" d="M195.9,219.7c-0.4-1-0.8-2.1-1.2-3.1c-0.4-1.1-0.9-2.3-1.3-3.4c-0.4-1.1-0.5-1.2-1.6-1.7
				c-1.2-0.6-2.5-1.1-3.7-1.7c-0.9-0.4-1.8-0.8-2.7-1.2c-1.1-0.5-2.1-0.9-3.1-1.4c-0.6-0.3-1.4-0.8-2-0.9c-0.9-0.2-1.8,0.5-2.6,0.9
				c-1.9,0.9-3.8,1.7-5.7,2.6c-0.3,0.2-0.7,0.3-1,0.5c-0.9,0.4-1.8,0.8-2.7,1.2c-0.3,0.1-0.9,0.3-1.2,0.6c-0.3,0.2-0.4,0.8-0.5,1.2
				c-0.4,1-0.8,2-1.1,3c-0.8,2.1-1.6,4.3-2.4,6.4c-0.4,1.1-0.1,1.5,0.3,2.6c0,0.1,0.1,0.3,0.2,0.4c0.9,2.3,1.7,4.5,2.6,6.8
				c0,0.1,0.1,0.2,0.1,0.4c0.4,1.2,0.5,2.1,1.7,2.6c1.3,0.6,2.7,1.2,4,1.8c2.6,1.2,5.2,2.3,7.9,3.5c0,0,0,0,0,0
				c0.1,0.1,0.3,0.1,0.4,0c2.6-1.2,5.2-2.4,7.9-3.6l3-1.4c0.9-0.4,1.7-0.5,2.1-1.4c0.9-1.8,1.5-4,2.2-5.9c0.2-0.6,0.4-1.2,0.7-1.8
				c0.2-0.4,0.3-0.9,0.5-1.3c0.2-0.5,0.6-1.2,0.6-1.7C197.4,222.3,196.3,220.7,195.9,219.7z M196.4,223.3c-0.1,0.6-0.5,1.3-0.8,1.9
				c-0.1,0.2-0.1,0.4-0.2,0.5c-0.8,2.2-1.7,4.4-2.5,6.7c-0.1,0.4-0.3,1-0.5,1.5c0,0-0.2,0.1-0.3,0.2c-0.3,0.1-0.7,0.3-1,0.5
				c-1,0.5-2,0.9-3,1.4c-2.7,1.2-5.3,2.4-8,3.7c-2.7-1.2-5.5-2.4-8.2-3.6c-0.6-0.3-1.2-0.5-1.8-0.8c-0.6-0.3-1.3-0.7-1.9-0.9
				c-0.2,0-0.3,0-0.3,0c0,0,0-0.1,0-0.3c-0.5-1.9-1.4-3.7-2.1-5.5c-0.6-1.6-1.6-3.4-2-5.1c0-0.1,0-0.1,0-0.1v0
				c0-0.1,0.1-0.3,0.2-0.4c0.4-0.9,0.7-1.8,1-2.7c0.8-2.1,1.6-4.3,2.4-6.4c0.1-0.3,0.2-0.8,0.4-1.2c0,0.2,0.9-0.3,1.1-0.5
				c1-0.5,2.1-0.9,3.1-1.4c1-0.4,2-0.9,3-1.3c1.5-0.7,3.7-1.2,5-2.3c0,0,0.1-0.1,0.1-0.1c0,0,0,0,0.1,0c0.5,0.4,1.5,0.7,2.1,0.9
				c2,0.9,4,1.8,6,2.7c0.2,0.1,0.4,0.2,0.6,0.2c0.9,0.4,1.7,0.8,2.6,1.2c0.2,0.1,1.1,0.6,1.1,0.4c0.2,0.3,0.3,0.9,0.4,1.2
				c0.4,1,0.8,2.1,1.2,3.2c0.1,0.2,0.1,0.4,0.2,0.6c0.7,1.8,1.3,3.5,2,5.3c0.1,0.1,0.2,0.3,0.2,0.5
				C196.4,223.2,196.4,223.3,196.4,223.3z"/>
		</g>
		<g id="Outside_1_">
			<path class="st0" d="M204.9,221.9c-0.5-1.4-1-2.8-1.6-4.1c-0.6-1.7-1.3-3.4-1.9-5.1c-0.6-1.5-1.1-3-1.7-4.4
				c-0.2-0.5-0.3-1.3-0.7-1.6c-0.4-0.4-1.2-0.5-1.7-0.7c-3.1-1.4-6.1-2.8-9.2-4.1c0,0,0,0-0.1,0c-2.4-1.1-4.9-2.6-7.5-3.3
				c-1.2-0.4-2.7,0.8-3.8,1.3c-1.6,0.7-3.2,1.4-4.8,2.2c-1.7,0.8-3.4,1.5-5.1,2.3c-1.4,0.6-2.7,1.2-4.1,1.8
				c-0.5,0.2-1.3,0.4-1.6,0.7c-0.3,0.4-0.5,1.3-0.7,1.7c-0.6,1.4-1.1,2.9-1.7,4.4c-1.2,3.1-2.4,6.2-3.6,9.3
				c-0.2,0.5-0.5,0.9-0.4,1.5c0,0.2,0,0.4,0.1,0.6c0.2,0.6,0.6,1.3,0.8,1.8c1.3,3.3,2.6,6.6,3.8,9.9c0.4,1,0.7,2.6,1.3,3.7
				c0.2,0.3,0.4,0.6,0.6,0.7c0.7,0.5,1.8,0.8,2.6,1.2c1.5,0.7,3.1,1.4,4.6,2.1c1.1,0.5,2.2,1,3.2,1.5c2,0.9,4.1,1.9,6.1,2.8
				c0.6,0.3,1.1,0.5,1.7,0.8c0.2,0.1,0.5,0,0.6-0.1c2.6-1.2,5.2-2.4,7.8-3.6c2.6-1.2,5.2-2.4,7.9-3.6c1.2-0.5,2.9-0.9,3.4-2.1
				c1.2-2.8,2.2-5.8,3.2-8.6c0.1-0.4,0.3-0.9,0.5-1.3c0.4-1.2,0.9-2.4,1.3-3.5c0.3-0.7,0.9-1.7,0.9-2.5
				C205.3,222.9,205.1,222.4,204.9,221.9z M204.5,223.3C204.5,223.4,204.5,223.4,204.5,223.3c-0.2,1-0.8,2-1.1,2.9
				c-0.4,1-0.7,1.9-1.1,2.9c-0.9,2.3-1.7,4.6-2.6,6.9c-0.4,1-0.9,2.1-1.2,3.1c0,0.1-0.1,0.2-0.1,0.3c0,0,0,0,0,0
				c-0.2,0.1-0.3,0.2-0.5,0.2c-2.6,1-5.2,2.4-7.7,3.6c-0.7,0.3-1.4,0.7-2.2,1c-2.2,1-4.5,2-6.7,3.1c-0.4,0.2-0.8,0.4-1.3,0.6
				c-2.7-1.3-5.5-2.5-8.2-3.7c-2.3-1-4.5-2.1-6.8-3.1c-1-0.4-2-1.1-3-1.4c-0.1,0-0.2-0.1-0.3-0.1c0-0.1-0.1-0.2-0.1-0.3
				c0-0.1-0.1-0.2-0.1-0.3c-0.9-2.7-2.1-5.4-3.1-8.1c-0.6-1.5-1.2-3.1-1.8-4.6c-0.3-0.8-0.7-1.6-1-2.4c0-0.1-0.1-0.2-0.1-0.4
				c0,0,0,0,0,0v0c0.1-0.3,0.2-0.7,0.4-1c0.5-1.3,1-2.5,1.5-3.8c1.2-3.1,2.4-6.3,3.6-9.4c0.2-0.5,0.3-1.2,0.6-1.7
				c0,0,0.2-0.1,0.4-0.2c0.4-0.1,0.8-0.4,1.2-0.5c2.9-1.3,5.7-2.6,8.6-3.9c0.1,0,0.2-0.1,0.2-0.1c2.5-1.1,5.4-2,7.7-3.5
				c0,0,0.1-0.1,0.2-0.1c0.1,0,0.2,0.1,0.2,0.1c0.9,0.5,2,0.9,3,1.3c1.6,0.7,3.2,1.4,4.8,2.2c1.6,0.7,3.2,1.4,4.8,2.2
				c1.7,0.8,3.9,1.4,5.5,2.5c0.1,0.1,0.1,0.2,0.2,0.3c0.1,0.5,0.4,0.9,0.5,1.4c0.5,1.2,0.9,2.4,1.4,3.6c0.1,0.2,0.1,0.4,0.2,0.6
				c1.1,3,2.3,6,3.4,9C204.3,222.7,204.4,223,204.5,223.3C204.5,223.3,204.5,223.3,204.5,223.3z"/>
		</g>
	</g>
</g>
<g id="firstcontrol">
	<path id="upline_2_" class="st0" d="M132.1,106.1v38.2c-1.6-0.7-3.2-1.4-4.8-2.2c-0.9-0.4-2.1-0.8-3-1.3c0,0-0.1-0.1-0.2-0.1
		c-0.1,0-0.2,0.1-0.2,0.1c-2.4,1.4-5.2,2.3-7.7,3.5c-0.1,0-0.2,0.1-0.2,0.1v-38.3c0-4.5,3.6-8.1,8.1-8.1c2.2,0,4.3,0.9,5.7,2.4
		C131.2,101.8,132.1,103.9,132.1,106.1z"/>
	<path id="downline_2_" class="st0" d="M125.4,188.8c2.2-1,4.5-2.1,6.7-3.1v68.2c0,4.5-3.6,8.1-8.1,8.1c-4.5,0-8.1-3.6-8.1-8.1
		v-68.3c2.7,1.2,5.5,2.5,8.2,3.7C124.5,189.2,124.9,189,125.4,188.8z"/>
	<g id="Node1">
		<g id="immlogo">
			<path id="rightlogodesign1" class="st0" d="M136.1,166.4h-1.5c-0.2-0.5-0.4-0.9-0.7-1.2h2.2V166.4z"/>
			<path id="rightlogodesign2" class="st0" d="M120,170.3c0,0,1.8,0.7,4.4-3.9c0.1-0.2,0.3-0.5,0.4-0.7c0,0,0.1-0.2,0.3-0.5
				c0.5-0.8,1.6-2.5,2.4-2.9c0,0,1.7-1.2,4.4,0.9c0,0,1,0.7,1.8,2c0.2,0.4,0.5,0.8,0.7,1.2c0.1,0.3,0.2,0.6,0.3,0.9c0,0,0.8,3.6-3,3
				c0,0-2.2-0.4-4.1-2c0.2,0.1,4.5,2.1,5,0.3c0,0,0.3-0.9-0.4-2.2c-0.2-0.4-0.5-0.8-0.9-1.2c-0.1-0.1-0.3-0.3-0.5-0.4
				c0,0-2.1-2.2-3.7,0.4c0,0.1-0.1,0.1-0.1,0.2c0,0-0.3,0.5-0.6,1.1c-0.3,0.5-0.5,1-0.7,1.4c0,0-0.9,1.9-1.9,2.5
				C123.6,170.3,121.9,171.7,120,170.3z"/>
			<path id="leftlogodesign2" class="st0" d="M116.7,168.4c0,0-0.9-0.7-1.7-1.9c-0.2-0.4-0.5-0.8-0.7-1.2c-0.1-0.3-0.3-0.7-0.4-1
				c0,0-0.7-3.6,3.1-3c0,0,2.2,0.5,4,2.1c-0.2-0.1-4.5-2.2-5-0.4c0,0-0.3,1,0.4,2.3c0.2,0.4,0.5,0.8,1,1.2c0.1,0.1,0.3,0.2,0.4,0.4
				c0,0,2.1,2.2,3.7-0.4c0-0.1,0.1-0.1,0.1-0.2c0,0,0.3-0.5,0.6-1c0.3-0.5,0.6-1,0.8-1.4c0,0,1-1.9,1.9-2.5c0,0,1.7-1.4,3.7,0
				c0,0-1.8-0.7-4.5,3.9c-0.1,0.2-0.3,0.5-0.4,0.7c0,0-0.1,0.2-0.3,0.5c-0.5,0.9-1.6,2.4-2.4,2.9C121,169.3,119.3,170.5,116.7,168.4
				z"/>
			<path id="leftlogodesign1" class="st0" d="M114.7,166.4h-2.2v-1.2h1.6C114.2,165.6,114.4,166.1,114.7,166.4z"/>
		</g>
		<g id="Inside">
			<path class="st0" d="M139.9,161.2c-0.4-1-0.8-2.1-1.2-3.1c-0.4-1.1-0.9-2.3-1.3-3.4c-0.4-1.1-0.5-1.2-1.6-1.7
				c-1.2-0.6-2.5-1.1-3.7-1.7c-0.9-0.4-1.8-0.8-2.7-1.2c-1.1-0.5-2.1-0.9-3.1-1.4c-0.6-0.3-1.4-0.8-2-0.9c-0.9-0.2-1.8,0.5-2.6,0.9
				c-1.9,0.9-3.8,1.7-5.7,2.6c-0.3,0.2-0.7,0.3-1,0.5c-0.9,0.4-1.8,0.8-2.7,1.2c-0.3,0.1-0.9,0.3-1.2,0.6c-0.3,0.2-0.4,0.8-0.5,1.2
				c-0.4,1-0.8,2-1.1,3c-0.8,2.1-1.6,4.3-2.4,6.4c-0.4,1.1-0.1,1.5,0.3,2.6c0,0.1,0.1,0.3,0.2,0.4c0.9,2.3,1.7,4.5,2.6,6.8
				c0,0.1,0.1,0.2,0.1,0.4c0.4,1.2,0.5,2.1,1.7,2.6c1.3,0.6,2.7,1.2,4,1.8c2.6,1.2,5.2,2.3,7.9,3.5c0,0,0,0,0,0
				c0.1,0.1,0.3,0.1,0.4,0c2.6-1.2,5.2-2.4,7.9-3.6l3-1.4c0.9-0.4,1.7-0.5,2.1-1.4c0.9-1.8,1.5-4,2.2-5.9c0.2-0.6,0.4-1.2,0.7-1.8
				c0.2-0.4,0.3-0.9,0.5-1.3c0.2-0.5,0.6-1.2,0.6-1.7C141.4,163.8,140.3,162.2,139.9,161.2z M140.4,164.8c-0.1,0.6-0.5,1.3-0.8,1.9
				c-0.1,0.2-0.1,0.4-0.2,0.5c-0.8,2.2-1.7,4.4-2.5,6.7c-0.1,0.4-0.3,1-0.5,1.5c0,0-0.2,0.1-0.3,0.2c-0.3,0.1-0.7,0.3-1,0.5
				c-1,0.5-2,0.9-3,1.4c-2.7,1.2-5.3,2.4-8,3.7c-2.7-1.2-5.5-2.4-8.2-3.6c-0.6-0.3-1.2-0.5-1.8-0.8c-0.6-0.3-1.3-0.7-1.9-0.9
				c-0.2,0-0.3,0-0.3,0c0,0,0-0.1,0-0.3c-0.5-1.9-1.4-3.7-2.1-5.5c-0.6-1.6-1.6-3.4-2-5.1c0-0.1,0-0.1,0-0.1v0
				c0-0.1,0.1-0.3,0.2-0.4c0.4-0.9,0.7-1.8,1-2.7c0.8-2.1,1.6-4.3,2.4-6.4c0.1-0.3,0.2-0.8,0.4-1.2c0,0.2,0.9-0.3,1.1-0.5
				c1-0.5,2.1-0.9,3.1-1.4c1-0.4,2-0.9,3-1.3c1.5-0.7,3.7-1.2,5-2.3c0,0,0.1-0.1,0.1-0.1c0,0,0,0,0.1,0c0.5,0.4,1.5,0.7,2.1,0.9
				c2,0.9,4,1.8,6,2.7c0.2,0.1,0.4,0.2,0.6,0.2c0.9,0.4,1.7,0.8,2.6,1.2c0.2,0.1,1.1,0.6,1.1,0.4c0.2,0.3,0.3,0.9,0.4,1.2
				c0.4,1,0.8,2.1,1.2,3.2c0.1,0.2,0.1,0.4,0.2,0.6c0.7,1.8,1.3,3.5,2,5.3c0.1,0.1,0.2,0.3,0.2,0.5
				C140.4,164.7,140.4,164.8,140.4,164.8z"/>
		</g>
		<g id="Outside">
			<path class="st0" d="M148.9,163.4c-0.5-1.4-1-2.8-1.6-4.1c-0.6-1.7-1.3-3.4-1.9-5.1c-0.6-1.5-1.1-3-1.7-4.4
				c-0.2-0.5-0.3-1.3-0.7-1.6c-0.4-0.4-1.2-0.5-1.7-0.7c-3.1-1.4-6.1-2.8-9.2-4.1c0,0,0,0-0.1,0c-2.4-1.1-4.9-2.6-7.5-3.3
				c-1.2-0.4-2.7,0.8-3.8,1.3c-1.6,0.7-3.2,1.4-4.8,2.2c-1.7,0.8-3.4,1.5-5.1,2.3c-1.4,0.6-2.7,1.2-4.1,1.8
				c-0.5,0.2-1.3,0.4-1.6,0.7c-0.3,0.4-0.5,1.3-0.7,1.7c-0.6,1.4-1.1,2.9-1.7,4.4c-1.2,3.1-2.4,6.2-3.6,9.3
				c-0.2,0.5-0.5,0.9-0.4,1.5c0,0.2,0,0.4,0.1,0.6c0.2,0.6,0.6,1.3,0.8,1.8c1.3,3.3,2.6,6.6,3.8,9.9c0.4,1,0.7,2.6,1.3,3.7
				c0.2,0.3,0.4,0.6,0.6,0.7c0.7,0.5,1.8,0.8,2.6,1.2c1.5,0.7,3.1,1.4,4.6,2.1c1.1,0.5,2.2,1,3.2,1.5c2,0.9,4.1,1.9,6.1,2.8
				c0.6,0.3,1.1,0.5,1.7,0.8c0.2,0.1,0.5,0,0.6-0.1c2.6-1.2,5.2-2.4,7.8-3.6c2.6-1.2,5.2-2.4,7.9-3.6c1.2-0.5,2.9-0.9,3.4-2.1
				c1.2-2.8,2.2-5.8,3.2-8.6c0.1-0.4,0.3-0.9,0.5-1.3c0.4-1.2,0.9-2.4,1.3-3.5c0.3-0.7,0.9-1.7,0.9-2.5
				C149.3,164.4,149,163.9,148.9,163.4z M148.5,164.8C148.5,164.9,148.5,164.9,148.5,164.8c-0.2,1-0.8,2-1.1,2.9
				c-0.4,1-0.7,1.9-1.1,2.9c-0.9,2.3-1.7,4.6-2.6,6.9c-0.4,1-0.9,2.1-1.2,3.1c0,0.1-0.1,0.2-0.1,0.3c0,0,0,0,0,0
				c-0.2,0.1-0.3,0.2-0.5,0.2c-2.6,1-5.2,2.4-7.7,3.6c-0.7,0.3-1.4,0.7-2.2,1c-2.2,1-4.5,2-6.7,3.1c-0.4,0.2-0.8,0.4-1.3,0.6
				c-2.7-1.3-5.5-2.5-8.2-3.7c-2.3-1-4.5-2.1-6.8-3.1c-1-0.4-2-1.1-3-1.4c-0.1,0-0.2-0.1-0.3-0.1c0-0.1-0.1-0.2-0.1-0.3
				c0-0.1-0.1-0.2-0.1-0.3c-0.9-2.7-2.1-5.4-3.1-8.1c-0.6-1.5-1.2-3.1-1.8-4.6c-0.3-0.8-0.7-1.6-1-2.4c0-0.1-0.1-0.2-0.1-0.4
				c0,0,0,0,0,0v0c0.1-0.3,0.2-0.7,0.4-1c0.5-1.3,1-2.5,1.5-3.8c1.2-3.1,2.4-6.3,3.6-9.4c0.2-0.5,0.3-1.2,0.6-1.7
				c0,0,0.2-0.1,0.4-0.2c0.4-0.1,0.8-0.4,1.2-0.5c2.9-1.3,5.7-2.6,8.6-3.9c0.1,0,0.2-0.1,0.2-0.1c2.5-1.1,5.4-2,7.7-3.5
				c0,0,0.1-0.1,0.2-0.1c0.1,0,0.2,0.1,0.2,0.1c0.9,0.5,2,0.9,3,1.3c1.6,0.7,3.2,1.4,4.8,2.2c1.6,0.7,3.2,1.4,4.8,2.2
				c1.7,0.8,3.9,1.4,5.5,2.5c0.1,0.1,0.1,0.2,0.2,0.3c0.1,0.5,0.4,0.9,0.5,1.4c0.5,1.2,0.9,2.4,1.4,3.6c0.1,0.2,0.1,0.4,0.2,0.6
				c1.1,3,2.3,6,3.4,9C148.3,164.2,148.4,164.5,148.5,164.8C148.5,164.8,148.5,164.8,148.5,164.8z"/>
		</g>
	</g>
</g>
</svg>
