<?xml version="1.0" encoding="utf-8"?>
<!-- Generator: Adobe Illustrator 21.0.0, SVG Export Plug-In . SVG Version: 6.00 Build 0)  -->
<svg version="1.1" id="Layer_1" xmlns="http://www.w3.org/2000/svg" xmlns:xlink="http://www.w3.org/1999/xlink" x="0px" y="0px"
	 viewBox="0 0 360 360" style="enable-background:new 0 0 360 360;" xml:space="preserve">
<style type="text/css">
	.st0{fill:#FFFFFF;}
	.st1{fill:none;stroke:#FFFFFF;stroke-width:5;stroke-miterlimit:10;}
</style>
<g id="node_1">
	<polygon id="lowerleft" class="st0" points="102,147.8 105.9,158.3 117.8,163.6 117.8,158.5 109.7,154.9 107,147.8 	"/>
	<polygon id="upperleft" class="st0" points="117.8,132.1 105.9,137.4 102,147.8 107,147.8 109.6,140.8 117.8,137.1 	"/>
	<polygon id="loweright" class="st0" points="133.5,147.8 129.6,158.3 117.8,163.6 117.8,158.5 125.8,154.9 128.5,147.8 	"/>
	<polygon id="upperright" class="st0" points="117.8,132.1 129.6,137.4 133.5,147.8 128.5,147.8 125.9,140.8 117.8,137.1 	"/>
	<path id="rightlogodesign1" class="st0" d="M126.7,148.4h-1.2c-0.1-0.3-0.3-0.7-0.5-0.9h1.7V148.4z"/>
	<path id="rightlogodesign2" class="st0" d="M114.5,151.3c0,0,1.4,0.5,3.4-2.9c0.1-0.2,0.2-0.4,0.3-0.5c0,0,0.1-0.2,0.2-0.4
		c0.4-0.6,1.2-1.9,1.8-2.2c0,0,1.3-0.9,3.3,0.7c0,0,0.7,0.6,1.3,1.5c0.2,0.3,0.4,0.6,0.5,0.9c0.1,0.2,0.2,0.5,0.2,0.7
		c0,0,0.6,2.7-2.3,2.3c0,0-1.6-0.3-3.1-1.5c0.1,0.1,3.4,1.6,3.8,0.3c0,0,0.2-0.7-0.3-1.7c-0.2-0.3-0.4-0.6-0.7-0.9
		c-0.1-0.1-0.2-0.2-0.4-0.3c0,0-1.6-1.6-2.8,0.3c0,0-0.1,0.1-0.1,0.1c0,0-0.2,0.4-0.5,0.8c-0.2,0.3-0.4,0.7-0.6,1
		c0,0-0.7,1.4-1.4,1.9C117.3,151.3,116,152.3,114.5,151.3z"/>
	<path id="leftlogodesign2" class="st0" d="M112,149.8c0,0-0.7-0.5-1.3-1.5c-0.2-0.3-0.4-0.6-0.5-0.9c-0.1-0.2-0.2-0.5-0.3-0.8
		c0,0-0.5-2.7,2.3-2.2c0,0,1.6,0.3,3,1.6c-0.1-0.1-3.4-1.6-3.8-0.3c0,0-0.3,0.7,0.3,1.7c0.2,0.3,0.4,0.6,0.7,0.9
		c0.1,0.1,0.2,0.2,0.3,0.3c0,0,1.6,1.6,2.8-0.3c0-0.1,0.1-0.1,0.1-0.2c0,0,0.2-0.4,0.5-0.8c0.2-0.4,0.4-0.8,0.6-1
		c0,0,0.7-1.4,1.4-1.9c0,0,1.3-1,2.8,0c0,0-1.4-0.5-3.4,2.9c-0.1,0.2-0.2,0.3-0.3,0.5c0,0-0.1,0.2-0.3,0.4c-0.4,0.6-1.2,1.8-1.8,2.2
		C115.3,150.5,114,151.5,112,149.8z"/>
	<path id="leftlogodesign1" class="st0" d="M110.5,148.4h-1.7v-0.9h1.2C110.1,147.8,110.3,148.1,110.5,148.4z"/>
	<circle id="ellipse" class="st1" cx="117.8" cy="147.8" r="20"/>
</g>
<path id="line1" class="st0" d="M105.9,169.8l-64.2,52.7c-2.6,2.1-6.4,1.7-8.4-0.8h0c-2.1-2.6-1.7-6.4,0.8-8.4l64.2-52.7
	c2.6-2.1,6.4-1.7,8.4,0.8l0,0C108.8,164,108.4,167.8,105.9,169.8z"/>
<g id="node_2">
	<polygon id="lowerleft_1_" class="st0" points="202.1,157.2 195.8,166.5 198.2,179.2 202.4,176.3 200.7,167.7 205,161.4 	"/>
	<polygon id="upperleft_1_" class="st0" points="224,161.2 212.8,154.5 202.1,157.2 205,161.4 212.2,159.5 219.9,164.1 	"/>
	<polygon id="loweright_1_" class="st0" points="220.2,183.1 209.3,185.9 198.2,179.2 202.4,176.3 209.9,180.8 217.3,178.9 	"/>
	<polygon id="upperright_1_" class="st0" points="224,161.2 226.4,174 220.2,183.1 217.3,178.9 221.5,172.8 219.9,164.1 	"/>
	<path id="rightlogodesign1_1_" class="st0" d="M215.8,177.8l-0.7-1c0.2-0.3,0.4-0.6,0.5-0.9l1,1.4L215.8,177.8z"/>
	<path id="rightlogodesign2_1_" class="st0" d="M206.4,169.5c0,0,0.4,1.4,4.3,1.1c0.2,0,0.4,0,0.6-0.1c0,0,0.2,0,0.5,0
		c0.8,0,2.2-0.1,2.8,0.2c0,0,1.5,0.5,1.3,3.1c0,0,0,0.9-0.5,2c-0.1,0.3-0.3,0.6-0.5,0.9c-0.1,0.2-0.3,0.4-0.4,0.6c0,0-1.9,2-3.2-0.6
		c0,0-0.7-1.5-0.5-3.4c0,0.2,0.6,3.7,2,3.2c0,0,0.7-0.2,1.2-1.2c0.1-0.3,0.3-0.7,0.4-1.1c0-0.2,0.1-0.3,0.1-0.5c0,0,0.4-2.2-1.9-2.1
		c0,0-0.1,0-0.1,0c0,0-0.4,0-0.9,0.1c-0.4,0-0.8,0.1-1.2,0.1c0,0-1.6,0.3-2.4-0.1C208,171.8,206.4,171.3,206.4,169.5z"/>
	<path id="leftlogodesign2_1_" class="st0" d="M206.2,166.6c0,0,0-0.9,0.5-1.9c0.1-0.3,0.3-0.6,0.5-1c0.1-0.2,0.3-0.5,0.5-0.7
		c0,0,1.9-2,3.2,0.6c0,0,0.6,1.5,0.5,3.4c0-0.2-0.6-3.7-1.9-3.2c0,0-0.7,0.2-1.2,1.3c-0.1,0.3-0.3,0.7-0.4,1.1c0,0.1,0,0.3-0.1,0.4
		c0,0-0.4,2.2,1.8,2.1c0.1,0,0.1,0,0.2,0c0,0,0.4,0,0.9-0.1c0.4,0,0.9-0.1,1.2-0.1c0,0,1.6-0.2,2.4,0.1c0,0,1.6,0.5,1.6,2.3
		c0,0-0.4-1.5-4.3-1.1c-0.2,0-0.4,0-0.6,0.1c0,0-0.2,0-0.5,0c-0.8,0-2.2,0-2.8-0.2C207.5,169.7,206,169.2,206.2,166.6z"/>
	<path id="leftlogodesign1_1_" class="st0" d="M206.5,164.6l-1-1.4l0.8-0.5l0.7,1C206.8,163.9,206.6,164.3,206.5,164.6z"/>
	
		<ellipse id="ellipse_1_" transform="matrix(0.8192 -0.5734 0.5734 0.8192 -59.4481 151.8168)" class="st1" cx="211.1" cy="170.2" rx="20" ry="20"/>
</g>
<path id="line2" class="st0" d="M186.3,173.1l-47.1-13.2c-3.2-0.9-5.1-4.2-4.2-7.4v0c0.9-3.2,4.2-5.1,7.4-4.2l47.1,13.2
	c3.2,0.9,5.1,4.2,4.2,7.4v0C192.8,172.1,189.4,174,186.3,173.1z"/>
<path id="line2_1_" class="st0" d="M317.8,92.6l-83.6,68.6c-2.6,2.1-6.4,1.7-8.4-0.8l0,0c-2.1-2.6-1.7-6.4,0.8-8.4l83.6-68.6
	c2.6-2.1,6.4-1.7,8.4,0.8v0C320.7,86.7,320.4,90.5,317.8,92.6z"/>
<polygon id="arrow" class="st0" points="330.9,75 297.8,82.6 316.8,105.7 "/>
<g id="coin1">
	<path class="st0" d="M106.2,262.2v12.5c-3.5,3.9-18.2,6.9-35.8,6.9c-20.2,0-36.6-3.9-36.6-8.7v-12.5c0,4.8,16.4,8.7,36.6,8.7
		C88,269.1,102.7,266.1,106.2,262.2z"/>
	<path class="st0" d="M106.2,255.1c0,4.1-15.8,8-35.8,8s-36.6-3.9-36.6-8c0-4.1,16.2-7.4,36.2-7.4S106.2,251,106.2,255.1z"/>
</g>
<g id="coin_2">
	<path class="st0" d="M216.2,222.2v12.5c-3.5,3.9-18.2,6.9-35.8,6.9c-20.2,0-36.6-3.9-36.6-8.7v-12.5c0,4.8,16.4,8.7,36.6,8.7
		C198,229.1,212.7,226.1,216.2,222.2z"/>
	<path class="st0" d="M216.2,242.2v12.5c-3.5,3.9-18.2,6.9-35.8,6.9c-20.2,0-36.6-3.9-36.6-8.7v-12.5c0,4.8,16.4,8.7,36.6,8.7
		C198,249.1,212.7,246.1,216.2,242.2z"/>
	<path class="st0" d="M216.2,262.2v12.5c-3.5,3.9-18.2,6.9-35.8,6.9c-20.2,0-36.6-3.9-36.6-8.7v-12.5c0,4.8,16.4,8.7,36.6,8.7
		C198,269.1,212.7,266.1,216.2,262.2z"/>
	<path class="st0" d="M216.2,215.1c0,4.1-15.8,8-35.8,8s-36.6-3.9-36.6-8c0-4.1,16.2-7.4,36.2-7.4S216.2,211,216.2,215.1z"/>
</g>
<g id="coin3">
	<path class="st0" d="M326.2,182.2v12.5c-3.5,3.9-18.2,6.9-35.8,6.9c-20.2,0-36.6-3.9-36.6-8.7v-12.5c0,4.8,16.4,8.7,36.6,8.7
		C308,189.1,322.7,186.1,326.2,182.2z"/>
	<path class="st0" d="M326.2,202.2v12.5c-3.5,3.9-18.2,6.9-35.8,6.9c-20.2,0-36.6-3.9-36.6-8.7v-12.5c0,4.8,16.4,8.7,36.6,8.7
		C308,209.1,322.7,206.1,326.2,202.2z"/>
	<path class="st0" d="M326.2,222.2v12.5c-3.5,3.9-18.2,6.9-35.8,6.9c-20.2,0-36.6-3.9-36.6-8.7v-12.5c0,4.8,16.4,8.7,36.6,8.7
		C308,229.1,322.7,226.1,326.2,222.2z"/>
	<path class="st0" d="M326.2,242.2v12.5c-3.5,3.9-18.2,6.9-35.8,6.9c-20.2,0-36.6-3.9-36.6-8.7v-12.5c0,4.8,16.4,8.7,36.6,8.7
		C308,249.1,322.7,246.1,326.2,242.2z"/>
	<path class="st0" d="M326.2,262.2v12.5c-3.5,3.9-18.2,6.9-35.8,6.9c-20.2,0-36.6-3.9-36.6-8.7v-12.5c0,4.8,16.4,8.7,36.6,8.7
		C308,269.1,322.7,266.1,326.2,262.2z"/>
	<path class="st0" d="M326.2,175.1c0,4.1-15.8,8-35.8,8s-36.6-3.9-36.6-8c0-4.1,16.2-7.4,36.2-7.4S326.2,171,326.2,175.1z"/>
</g>
</svg>
